{"glyphs":{"0":{"ha":721,"x_min":21,"x_max":700,"o":"m 21 424 q 47 605 21 524 q 117 744 72 686 q 225 835 163 803 q 361 867 288 867 q 497 835 435 867 q 605 744 560 803 q 675 605 650 686 q 700 424 700 524 q 675 242 700 324 q 605 101 650 160 q 497 11 560 43 q 361 -21 435 -21 q 225 11 288 -21 q 117 101 163 43 q 47 242 72 160 q 21 424 21 324 m 132 424 q 147 250 132 328 q 192 117 163 172 q 264 31 221 61 q 361 0 307 0 q 459 31 417 0 q 531 117 501 61 q 574 250 560 172 q 589 424 589 328 q 574 596 589 518 q 531 729 560 674 q 459 815 501 785 q 361 846 417 846 q 264 815 307 846 q 192 729 221 785 q 147 596 163 674 q 132 424 132 518 z "},"1":{"ha":267,"x_min":28,"x_max":239,"o":"m 189 867 l 189 96 q 204 47 189 71 q 239 7 219 22 l 239 0 l 28 0 l 28 7 q 63 47 47 22 q 78 96 78 71 l 78 708 l 28 708 l 28 732 q 126 765 85 732 q 168 867 168 799 l 189 867 z "},"2":{"ha":647,"x_min":28,"x_max":618,"o":"m 28 0 q 64 126 28 69 q 153 232 100 182 q 270 329 207 282 q 387 428 333 376 q 476 537 440 479 q 511 667 511 594 q 500 733 511 701 q 466 790 489 765 q 408 831 443 815 q 326 846 374 846 q 247 828 285 846 q 172 781 208 811 q 100 711 136 751 q 28 625 64 671 l 28 736 q 100 786 61 763 q 181 828 139 810 q 268 856 224 846 q 356 867 313 867 q 456 853 408 867 q 540 808 504 839 q 597 731 576 778 q 618 619 618 685 q 587 501 618 553 q 508 407 556 449 q 400 330 460 365 q 281 260 340 294 q 171 190 222 226 q 88 111 119 154 l 522 111 q 575 126 554 111 q 611 160 596 140 l 618 160 l 568 0 l 28 0 z "},"3":{"ha":656,"x_min":28,"x_max":635,"o":"m 231 438 q 332 457 289 438 q 403 508 375 476 q 444 581 431 540 q 457 661 457 621 q 446 730 457 697 q 413 789 435 763 q 360 831 392 815 q 288 846 329 846 q 218 835 253 846 q 152 800 183 824 q 97 740 121 776 q 60 656 72 704 l 60 767 q 166 842 101 817 q 300 867 231 867 q 399 853 350 867 q 485 814 447 840 q 546 748 522 788 q 569 656 569 708 q 520 526 569 589 q 371 435 471 464 q 568 361 501 422 q 635 208 635 300 q 606 117 635 158 q 531 44 578 75 q 423 -3 483 14 q 297 -21 363 -21 q 151 4 222 -21 q 28 88 81 29 l 28 199 q 158 50 94 100 q 300 0 221 0 q 383 15 343 0 q 454 58 424 31 q 503 124 485 86 q 522 208 522 163 q 510 290 522 253 q 472 356 497 328 q 406 401 446 385 q 313 417 367 417 l 224 417 l 224 438 l 231 438 z "},"4":{"ha":636,"x_min":28,"x_max":608,"o":"m 360 915 q 341 788 360 851 q 291 663 322 724 q 220 544 260 601 q 140 435 181 486 l 393 435 l 393 708 l 483 846 l 504 846 l 504 435 l 513 435 q 565 449 544 435 q 601 483 586 464 l 608 483 l 558 324 l 504 324 l 504 96 q 519 47 504 71 q 554 7 535 22 l 554 0 l 343 0 l 343 7 q 378 47 363 22 q 393 96 393 71 l 393 324 l 28 324 q 197 620 144 471 q 249 915 249 769 l 360 915 z "},"5":{"ha":674,"x_min":21,"x_max":653,"o":"m 94 424 l 94 421 l 74 421 l 74 424 l 100 846 l 489 846 q 542 860 521 846 q 578 894 563 875 l 585 894 l 535 735 l 114 735 l 97 468 q 189 541 131 514 q 318 568 247 568 q 463 544 400 568 q 567 479 525 519 q 631 388 610 439 q 653 283 653 336 q 620 152 653 208 q 535 57 588 96 q 417 -1 483 18 q 281 -21 350 -21 q 139 0 207 -21 q 21 65 71 21 l 21 176 q 138 42 68 85 q 282 0 208 0 q 391 24 343 0 q 472 88 439 49 q 523 181 506 128 q 540 289 540 233 q 524 384 540 338 q 477 467 508 431 q 399 525 446 503 q 292 547 353 547 q 178 513 232 547 q 94 424 125 479 z "},"6":{"ha":619,"x_min":21,"x_max":599,"o":"m 338 567 q 453 543 404 567 q 534 481 501 519 q 583 393 567 443 q 599 290 599 343 q 580 177 599 233 q 524 76 561 121 q 431 5 486 32 q 301 -22 375 -22 q 199 -4 249 -22 q 109 60 149 14 q 45 183 69 106 q 21 379 21 261 q 34 541 21 456 q 82 699 47 626 q 178 819 117 771 q 336 867 239 867 q 533 807 435 867 l 533 696 q 448 808 501 771 q 338 846 394 846 q 259 826 292 846 q 203 774 226 807 q 167 699 181 742 q 145 611 153 657 q 134 520 138 565 q 131 436 131 475 q 217 535 161 503 q 338 567 274 567 m 131 360 q 131 288 131 325 q 135 213 131 250 q 149 140 139 175 q 176 75 158 104 q 233 19 200 39 q 308 -1 265 -1 q 383 20 350 -1 q 440 81 417 42 q 475 173 463 119 q 488 290 488 226 q 476 381 488 338 q 443 459 465 425 q 386 514 421 493 q 304 535 351 535 q 197 491 246 535 q 131 360 147 447 z "},"7":{"ha":601,"x_min":28,"x_max":574,"o":"m 574 735 q 449 587 497 665 q 373 418 400 508 q 336 224 346 328 q 326 0 326 121 l 215 0 q 238 207 215 103 q 304 408 261 311 q 410 588 347 504 q 553 735 474 672 l 124 735 q 71 720 92 735 q 35 686 50 706 l 28 686 l 78 846 l 574 846 l 574 735 z "},"8":{"ha":672,"x_min":22,"x_max":651,"o":"m 213 463 q 132 534 164 492 q 100 646 100 576 q 120 741 100 700 q 172 810 140 782 q 246 853 204 839 q 331 867 288 867 q 433 849 389 867 q 508 801 478 831 q 552 735 538 772 q 567 661 567 699 q 531 555 567 604 q 425 486 496 506 q 508 451 467 469 q 581 403 549 432 q 632 335 613 375 q 651 235 651 294 q 625 123 651 171 q 556 43 599 75 q 459 -5 514 11 q 347 -21 404 -21 q 203 1 264 -21 q 101 60 142 24 q 42 142 61 96 q 22 236 22 189 q 33 310 22 274 q 68 377 44 347 q 128 430 92 407 q 213 463 164 453 m 382 503 q 437 568 418 519 q 456 674 456 617 q 448 737 456 706 q 425 792 440 768 q 385 831 410 817 q 329 846 361 846 q 283 835 306 846 q 244 804 261 825 q 216 753 226 783 q 206 685 206 724 q 220 617 206 646 q 259 568 235 589 q 315 532 283 547 q 382 503 347 517 m 247 444 q 160 369 188 426 q 133 242 133 311 q 147 154 133 197 q 187 76 160 111 q 254 21 214 42 q 350 0 294 0 q 430 17 394 0 q 490 63 465 35 q 527 130 514 92 q 540 210 540 168 q 513 297 540 263 q 442 356 485 332 q 347 401 399 381 q 247 444 296 421 z "},"9":{"ha":619,"x_min":21,"x_max":599,"o":"m 282 278 q 167 301 215 278 q 85 363 118 325 q 37 451 53 401 q 21 554 21 501 q 40 667 21 611 q 97 768 60 724 q 190 840 135 813 q 318 867 246 867 q 421 849 371 867 q 510 785 471 831 q 574 661 550 739 q 599 465 599 583 q 570 269 599 358 q 491 115 542 179 q 371 15 440 50 q 221 -21 301 -21 q 21 38 125 -21 l 21 149 q 106 38 53 76 q 218 0 158 0 q 316 22 269 0 q 399 94 363 44 q 458 220 435 143 q 488 407 482 297 q 401 309 457 340 q 282 278 344 278 m 489 485 q 489 557 489 519 q 485 632 489 594 q 471 705 481 669 q 443 769 461 740 q 387 826 419 806 q 311 846 354 846 q 236 824 269 846 q 180 764 203 803 q 144 672 157 725 q 132 554 132 618 q 143 463 132 507 q 176 385 154 419 q 233 331 199 351 q 315 310 268 310 q 423 353 374 310 q 489 485 472 397 z "},"\u0000":{"ha":0,"x_min":0,"x_max":0,"o":""},"\r":{"ha":463,"x_min":0,"x_max":0,"o":""}," ":{"ha":278,"x_min":0,"x_max":0,"o":""},"!":{"ha":168,"x_min":28,"x_max":140,"o":"m 29 846 l 140 846 l 94 0 l 74 0 l 29 846 m 28 -104 q 43 -64 28 -79 q 83 -49 58 -49 q 124 -64 108 -49 q 139 -104 139 -79 q 124 -144 139 -129 q 83 -160 108 -160 q 43 -144 58 -160 q 28 -104 28 -129 z "},"\"":{"ha":307,"x_min":28,"x_max":279,"o":"m 93 622 q 83 613 93 613 q 72 622 72 613 q 64 664 71 647 q 49 694 57 681 q 34 722 40 708 q 28 751 28 735 q 43 792 28 776 q 83 807 58 807 q 124 791 108 807 q 139 751 139 775 q 133 722 139 735 q 118 695 126 708 q 102 665 110 682 q 93 622 94 647 m 233 622 q 224 613 233 613 q 213 622 213 613 q 204 664 211 647 q 189 694 197 681 q 174 722 181 708 q 168 751 168 735 q 183 792 168 776 q 224 807 199 807 q 264 791 249 807 q 279 751 279 775 q 273 722 279 735 q 258 695 267 708 q 242 665 250 682 q 233 622 235 647 z "},"#":{"ha":981,"x_min":28,"x_max":953,"o":"m 297 283 l 28 283 l 28 339 l 315 339 l 374 513 l 110 513 l 110 568 l 393 568 l 486 846 l 544 846 l 451 568 l 625 568 l 718 846 l 776 846 l 683 568 l 953 568 l 953 513 l 664 513 l 606 339 l 879 339 l 879 283 l 588 283 l 492 0 l 433 0 l 529 283 l 356 283 l 260 0 l 201 0 l 297 283 m 547 339 l 606 513 l 432 513 l 374 339 l 547 339 z "},"$":{"ha":700,"x_min":21,"x_max":678,"o":"m 300 867 q 320 867 311 867 q 340 865 329 867 l 340 899 l 361 899 l 361 864 q 470 842 417 857 q 569 804 524 826 l 569 693 q 478 787 529 747 q 361 840 428 826 l 361 508 q 472 463 415 486 q 574 409 528 440 q 649 334 619 378 q 678 226 678 290 q 648 111 678 158 q 571 35 618 64 q 468 -8 524 6 q 361 -21 413 -21 l 361 -53 l 340 -53 l 340 -21 q 168 9 253 -18 q 21 81 83 36 l 21 192 q 90 128 54 161 q 166 68 126 96 q 249 22 206 40 q 340 0 293 3 l 340 397 q 232 442 286 419 q 135 496 178 465 q 66 567 93 526 q 39 663 39 607 q 63 756 39 717 q 124 819 86 794 q 208 855 161 843 q 300 867 254 867 m 340 843 q 319 845 329 844 q 297 846 308 846 q 188 808 226 846 q 149 721 149 771 q 164 650 149 681 q 206 595 179 619 q 267 552 232 571 q 340 517 301 533 l 340 843 m 361 0 q 451 17 411 1 q 517 57 490 32 q 558 114 543 82 q 572 179 572 146 q 555 250 572 219 q 508 306 538 281 q 441 350 479 331 q 361 388 403 369 l 361 0 z "},"%":{"ha":560,"x_min":28,"x_max":532,"o":"m 85 0 l 439 813 q 399 794 421 799 q 353 789 376 789 q 270 797 313 789 q 190 804 228 804 q 151 800 171 804 q 237 764 204 799 q 269 674 269 729 q 236 581 269 615 q 149 547 203 547 q 61 581 94 547 q 28 674 28 615 q 46 744 28 714 l 46 746 q 60 763 53 757 q 75 776 67 769 q 140 810 104 801 q 213 819 175 819 q 285 815 249 819 q 354 811 321 811 q 410 818 385 811 q 454 846 436 825 l 475 846 l 106 0 l 85 0 m 75 674 q 95 588 75 621 q 149 556 115 556 q 202 588 182 556 q 222 674 222 621 q 202 759 222 726 q 149 792 182 792 q 110 777 126 792 q 88 743 94 763 q 75 674 75 714 m 532 172 q 499 81 532 115 q 411 46 465 46 q 324 81 357 46 q 290 172 290 115 q 324 265 290 231 q 411 299 357 299 q 499 265 465 299 q 532 172 532 231 m 485 172 q 465 258 485 225 q 411 290 444 290 q 358 258 378 290 q 338 172 338 225 q 358 87 338 119 q 411 54 378 54 q 465 87 444 54 q 485 172 485 119 z "},"&":{"ha":839,"x_min":28,"x_max":811,"o":"m 371 438 l 371 417 l 286 417 q 222 401 250 417 q 176 361 194 386 q 148 303 157 336 q 139 233 139 269 q 163 119 139 168 q 227 37 188 69 q 317 -12 267 4 q 419 -28 367 -28 q 522 -10 472 -28 q 612 44 572 8 q 676 133 651 79 q 700 258 700 188 q 672 368 700 322 q 589 417 643 414 q 532 370 553 399 q 519 289 511 342 q 497 301 507 293 q 481 320 488 308 q 474 350 474 332 q 496 417 474 393 q 552 456 518 442 q 625 476 586 469 q 698 491 664 483 q 754 511 732 499 q 776 549 776 524 q 769 568 776 560 q 746 576 761 576 q 771 586 751 586 q 798 577 785 586 q 811 547 811 568 q 795 502 811 519 q 753 473 779 485 q 696 453 728 461 q 633 433 664 444 q 765 367 719 419 q 811 249 811 315 q 778 119 811 175 q 689 26 744 64 q 563 -30 633 -11 q 419 -49 493 -49 q 276 -31 346 -49 q 150 21 206 -14 q 61 109 94 56 q 28 233 28 163 q 76 358 28 301 q 218 432 125 415 q 110 491 151 451 q 54 579 69 531 q 49 678 39 628 q 97 771 60 729 q 195 840 133 813 q 344 867 257 867 q 478 842 414 867 q 585 767 543 817 l 585 656 q 548 740 572 704 q 492 800 524 776 q 426 835 461 824 q 357 846 392 846 q 248 815 292 846 q 181 740 204 785 q 157 642 158 694 q 174 544 156 589 q 233 468 193 499 q 331 438 272 438 l 371 438 z "},"'":{"ha":167,"x_min":28,"x_max":139,"o":"m 93 661 q 83 651 93 651 q 72 661 72 651 q 64 703 71 686 q 49 733 57 719 q 34 760 40 747 q 28 790 28 774 q 43 831 28 815 q 83 846 58 846 q 124 830 108 846 q 139 790 139 814 q 133 760 139 774 q 118 734 126 747 q 102 703 110 721 q 93 661 94 686 z "},"(":{"ha":343,"x_min":28,"x_max":315,"o":"m 139 426 q 151 305 139 365 q 188 192 164 244 q 244 94 211 139 q 315 21 276 50 l 315 0 q 198 91 251 40 q 107 198 144 142 q 49 313 69 254 q 28 428 28 372 q 49 542 28 485 q 107 653 69 599 q 198 756 144 707 q 315 846 251 806 l 315 825 q 244 753 276 796 q 188 658 211 710 q 151 548 164 607 q 139 426 139 489 z "},")":{"ha":343,"x_min":28,"x_max":315,"o":"m 204 429 q 192 549 204 490 q 156 658 179 607 q 100 753 132 710 q 28 825 68 796 l 28 846 q 146 756 93 806 q 236 653 199 707 q 294 542 274 599 q 315 428 315 485 q 294 313 315 372 q 236 198 274 254 q 146 91 199 142 q 28 0 93 40 l 28 21 q 100 94 68 50 q 156 192 132 139 q 192 306 179 246 q 204 429 204 367 z "},"*":{"ha":386,"x_min":28,"x_max":358,"o":"m 140 693 q 136 704 139 696 l 81 685 q 61 681 71 681 q 28 722 28 681 l 28 724 q 42 760 28 749 q 82 767 57 772 l 143 753 l 144 753 l 94 792 q 75 824 75 807 q 97 857 75 842 q 125 867 111 867 q 163 836 151 867 l 185 778 l 197 778 l 221 838 q 258 869 233 869 q 286 860 272 869 l 288 860 q 308 826 308 844 q 289 793 308 808 l 242 757 q 247 749 244 754 l 306 768 q 325 772 317 772 q 358 731 358 772 l 358 729 q 344 692 358 704 q 304 686 329 681 l 251 699 q 249 693 250 696 q 246 688 247 690 l 296 649 q 315 616 315 633 q 294 585 315 599 l 293 585 q 265 575 279 575 q 228 606 240 575 l 207 661 l 204 661 l 197 660 l 194 660 q 190 660 192 660 q 185 661 188 661 l 161 603 q 122 572 149 572 q 94 582 108 572 l 93 582 q 72 615 72 597 q 90 650 71 633 l 140 693 z "},"+":{"ha":514,"x_min":28,"x_max":486,"o":"m 285 504 l 285 303 l 486 303 l 486 247 l 285 247 l 285 46 l 229 46 l 229 247 l 28 247 l 28 303 l 229 303 l 229 504 l 285 504 z "},",":{"ha":197,"x_min":28,"x_max":169,"o":"m 169 56 q 131 -42 169 -6 q 28 -78 92 -78 l 28 -57 q 76 -41 58 -57 q 94 3 94 -25 q 58 56 58 14 q 74 96 58 81 q 114 111 89 111 q 154 96 139 111 q 169 56 169 81 z "},"-":{"ha":365,"x_min":28,"x_max":338,"o":"m 28 301 l 338 301 l 338 246 l 28 246 l 28 301 z "},".":{"ha":167,"x_min":28,"x_max":139,"o":"m 28 56 q 43 96 28 81 q 83 111 58 111 q 124 96 108 111 q 139 56 139 81 q 124 15 139 31 q 83 0 108 0 q 43 15 58 0 q 28 56 28 31 z "},"/":{"ha":546,"x_min":28,"x_max":518,"o":"m 397 846 l 518 846 l 149 0 l 28 0 l 397 846 z "},":":{"ha":167,"x_min":28,"x_max":139,"o":"m 28 492 q 43 532 28 517 q 83 547 58 547 q 124 532 108 547 q 139 492 139 517 q 124 451 139 467 q 83 436 108 436 q 43 451 58 436 q 28 492 28 467 m 28 56 q 43 96 28 81 q 83 111 58 111 q 124 96 108 111 q 139 56 139 81 q 124 15 139 31 q 83 0 108 0 q 43 15 58 0 q 28 56 28 31 z "},";":{"ha":197,"x_min":28,"x_max":169,"o":"m 114 547 q 154 532 139 547 q 169 492 169 517 q 154 451 169 467 q 114 436 139 436 q 74 451 89 436 q 58 492 58 467 q 74 532 58 517 q 114 547 89 547 m 169 56 q 131 -42 169 -6 q 28 -78 92 -78 l 28 -57 q 76 -41 58 -57 q 94 3 94 -25 q 58 56 58 14 q 74 96 58 81 q 114 111 89 111 q 154 96 139 111 q 169 56 169 81 z "},"<":{"ha":367,"x_min":28,"x_max":339,"o":"m 264 547 l 339 547 l 101 272 l 103 272 l 339 -3 l 265 -3 l 28 272 l 264 547 z "},"=":{"ha":450,"x_min":28,"x_max":422,"o":"m 422 319 l 28 319 l 28 375 l 422 375 l 422 319 m 422 169 l 28 169 l 28 225 l 422 225 l 422 169 z "},">":{"ha":367,"x_min":28,"x_max":339,"o":"m 103 -3 l 28 -3 l 265 272 l 264 272 l 28 547 l 101 547 l 339 272 l 103 -3 z "},"?":{"ha":617,"x_min":28,"x_max":590,"o":"m 156 10 q 181 171 157 110 q 242 273 206 232 q 319 343 278 314 q 397 407 361 372 q 457 492 433 442 q 481 625 481 542 q 466 708 481 668 q 424 779 451 749 q 357 828 396 810 q 269 846 318 846 q 197 831 233 846 q 128 783 160 815 q 69 699 96 750 q 28 578 43 649 l 28 689 q 130 820 61 774 q 290 867 199 867 q 402 845 349 867 q 497 786 456 824 q 562 697 538 749 q 588 585 586 646 q 561 446 590 501 q 487 350 532 390 q 388 278 442 310 q 288 211 335 247 q 210 128 242 175 q 176 10 178 81 q 165 0 176 0 q 156 10 156 0 m 111 -104 q 126 -64 111 -79 q 167 -49 142 -49 q 207 -64 192 -49 q 222 -104 222 -79 q 207 -144 222 -129 q 167 -160 192 -160 q 126 -144 142 -160 q 111 -104 111 -129 z "},"@":{"ha":1190,"x_min":21,"x_max":1169,"o":"m 21 269 q 63 501 21 397 q 179 680 104 606 q 360 795 254 754 q 596 836 467 836 q 831 795 725 836 q 1012 680 936 754 q 1128 501 1088 606 q 1169 269 1169 397 q 1147 140 1169 194 q 1086 49 1124 85 q 1002 -5 1049 13 q 908 -22 956 -22 q 803 2 851 -22 q 726 75 754 26 q 686 32 711 50 q 633 3 661 14 q 577 -12 606 -7 q 525 -17 549 -17 q 457 -8 490 -17 q 398 19 424 1 q 357 63 372 38 q 342 122 342 89 q 378 215 342 183 q 465 261 414 247 q 533 276 497 269 q 600 294 568 283 q 659 321 632 304 q 703 367 686 338 l 703 397 q 661 497 703 460 q 563 533 619 533 q 458 495 510 533 q 379 369 407 457 l 379 481 q 497 541 438 518 q 628 564 556 564 q 701 553 667 564 q 760 519 735 542 q 799 463 785 497 q 814 385 814 429 l 814 151 q 845 39 814 78 q 917 0 876 0 q 967 16 942 0 q 1013 65 992 32 q 1046 149 1033 99 q 1058 269 1058 200 q 1025 493 1058 393 q 931 665 992 593 q 785 776 871 738 q 596 815 700 815 q 406 776 492 815 q 260 666 321 738 q 165 494 199 594 q 132 272 132 394 q 163 50 132 150 q 251 -121 194 -50 q 388 -231 308 -192 q 565 -269 468 -269 q 739 -229 658 -269 q 876 -92 819 -189 l 876 -203 q 728 -269 808 -247 q 565 -290 649 -290 q 342 -250 443 -290 q 170 -136 242 -210 q 60 40 99 -62 q 21 269 21 143 m 714 101 q 703 169 703 135 l 703 332 q 637 285 675 300 q 561 256 599 271 q 485 207 517 239 q 453 122 453 175 q 488 46 453 74 q 569 17 522 18 q 608 23 588 17 q 649 40 629 29 q 687 67 669 51 q 714 101 704 82 z "},"A":{"ha":983,"x_min":28,"x_max":956,"o":"m 761 67 l 653 282 l 231 282 l 121 67 q 117 33 114 51 q 143 7 119 14 l 143 0 l 28 0 l 28 6 q 69 27 51 11 q 97 67 86 43 l 493 846 l 886 67 q 915 27 897 43 q 956 6 932 11 l 956 0 l 739 0 l 739 7 q 765 33 763 14 q 761 67 768 51 m 240 303 l 642 303 l 442 699 l 240 303 z "},"B":{"ha":769,"x_min":28,"x_max":749,"o":"m 749 251 q 726 148 749 194 q 664 69 704 101 q 567 18 624 36 q 440 0 510 0 l 28 0 l 28 7 q 63 47 47 22 q 78 96 78 71 l 78 750 q 63 799 78 775 q 28 839 47 824 l 28 846 l 372 846 q 494 824 443 846 q 574 768 544 803 q 614 691 604 733 q 612 608 624 649 q 567 531 600 567 q 482 476 535 496 q 591 454 542 472 q 675 407 640 436 q 729 338 710 378 q 749 251 749 299 m 244 825 q 204 810 219 825 q 189 769 189 794 l 189 478 l 338 478 q 431 503 393 478 q 487 568 468 529 q 506 651 506 607 q 489 735 507 696 q 435 799 471 774 q 346 825 400 825 l 244 825 m 189 76 q 204 36 189 51 q 244 21 219 21 l 425 21 q 579 84 521 21 q 638 251 638 147 q 579 401 638 344 q 424 457 521 457 l 189 457 l 189 76 z "},"C":{"ha":783,"x_min":28,"x_max":756,"o":"m 468 -21 q 287 11 368 -21 q 148 101 206 43 q 59 242 90 160 q 28 424 28 324 q 59 605 28 524 q 148 744 90 686 q 287 835 206 803 q 468 867 368 867 q 555 858 513 867 q 635 838 597 850 q 703 810 672 825 q 756 783 735 796 l 756 672 q 715 733 743 701 q 648 789 686 764 q 563 830 610 814 q 468 846 517 846 q 333 815 393 846 q 229 729 272 785 q 163 596 186 674 q 139 424 139 518 q 163 250 139 328 q 229 117 186 172 q 333 31 272 61 q 468 0 393 0 q 563 16 517 0 q 648 57 610 32 q 715 113 686 82 q 756 174 743 144 l 756 63 q 703 37 735 51 q 635 10 672 22 q 555 -12 597 -3 q 468 -21 513 -21 z "},"D":{"ha":829,"x_min":28,"x_max":808,"o":"m 189 0 l 28 0 l 28 7 q 63 47 47 22 q 78 96 78 71 l 78 750 q 63 799 78 775 q 28 839 47 824 l 28 846 l 400 846 q 575 810 499 846 q 703 714 651 774 q 782 577 756 654 q 808 419 808 500 q 782 263 808 339 q 703 129 756 188 q 576 36 651 71 q 401 1 500 1 q 293 1 343 1 q 189 0 243 0 m 244 825 q 204 810 219 825 q 189 769 189 794 l 189 76 q 204 36 189 51 q 244 21 219 21 q 319 22 285 21 q 386 22 353 22 q 527 59 468 22 q 624 154 586 96 q 679 285 661 213 q 697 431 697 358 q 679 574 697 503 q 624 701 661 644 q 527 792 586 757 q 385 826 468 826 q 331 826 353 826 q 293 826 308 826 q 267 825 278 825 q 244 825 256 825 z "},"E":{"ha":678,"x_min":28,"x_max":650,"o":"m 189 435 l 426 435 q 476 449 458 435 q 508 483 493 464 l 515 483 l 515 365 l 508 365 q 476 399 493 385 q 426 414 458 414 l 189 414 l 189 76 q 204 36 189 51 q 244 21 219 21 l 554 21 q 607 35 586 21 q 643 69 628 50 l 650 69 l 629 0 l 28 0 l 28 7 q 63 47 47 22 q 78 96 78 71 l 78 750 q 63 799 78 775 q 28 839 47 824 l 28 846 l 629 846 l 650 776 l 643 776 q 607 810 628 796 q 554 825 586 825 l 244 825 q 204 810 219 825 q 189 769 189 794 l 189 435 z "},"F":{"ha":707,"x_min":28,"x_max":679,"o":"m 244 825 q 204 810 219 825 q 189 769 189 794 l 189 396 l 456 396 q 505 410 488 396 q 538 444 522 425 l 544 444 l 544 326 l 538 326 q 505 360 522 346 q 456 375 488 375 l 189 375 l 189 96 q 204 47 189 71 q 239 7 219 22 l 239 0 l 28 0 l 28 7 q 63 47 47 22 q 78 96 78 71 l 78 750 q 63 799 78 775 q 28 839 47 824 l 28 846 l 658 846 l 679 776 l 672 776 q 636 810 657 796 q 583 825 615 825 l 244 825 z "},"G":{"ha":869,"x_min":21,"x_max":842,"o":"m 461 -21 q 280 11 361 -21 q 141 101 199 43 q 52 242 83 160 q 21 424 21 324 q 52 605 21 524 q 141 744 83 686 q 280 835 199 803 q 461 867 361 867 q 544 858 506 867 q 614 836 583 849 q 667 809 644 824 q 700 783 689 794 l 700 672 q 667 733 688 701 q 617 789 646 764 q 549 830 588 814 q 461 846 510 846 q 326 815 386 846 q 222 729 265 785 q 156 596 179 674 q 132 424 132 518 q 156 250 132 328 q 222 117 179 172 q 326 31 265 61 q 461 0 386 0 q 535 12 501 0 q 597 42 569 24 q 644 85 624 61 q 681 135 665 110 l 681 328 q 665 377 681 353 q 631 417 650 401 l 631 424 l 842 424 l 842 417 q 807 377 822 401 q 792 328 792 353 l 792 0 l 681 57 q 643 32 665 46 q 593 6 621 18 q 532 -13 565 -6 q 461 -21 499 -21 z "},"H":{"ha":824,"x_min":28,"x_max":796,"o":"m 239 846 l 239 839 q 204 799 219 824 q 189 750 189 775 l 189 436 l 635 436 l 635 750 q 619 799 635 775 q 585 839 604 824 l 585 846 l 796 846 l 796 839 q 761 799 776 824 q 746 750 746 775 l 746 96 q 761 47 746 71 q 796 7 776 22 l 796 0 l 585 0 l 585 7 q 619 47 604 22 q 635 96 635 71 l 635 415 l 189 415 l 189 96 q 204 47 189 71 q 239 7 219 22 l 239 0 l 28 0 l 28 7 q 63 47 47 22 q 78 96 78 71 l 78 750 q 63 799 78 775 q 28 839 47 824 l 28 846 l 239 846 z "},"I":{"ha":267,"x_min":28,"x_max":239,"o":"m 239 846 l 239 839 q 204 799 219 824 q 189 750 189 775 l 189 96 q 204 47 189 71 q 239 7 219 22 l 239 0 l 28 0 l 28 7 q 63 47 47 22 q 78 96 78 71 l 78 750 q 63 799 78 775 q 28 839 47 824 l 28 846 l 239 846 z "},"J":{"ha":267,"x_min":-89,"x_max":239,"o":"m 78 750 q 63 799 78 775 q 28 839 47 824 l 28 846 l 239 846 l 239 839 q 204 799 219 824 q 189 750 189 775 l 189 144 q 172 27 189 74 q 128 -47 156 -19 q 68 -85 101 -74 q 1 -96 35 -96 q -47 -90 -24 -96 q -89 -78 -69 -85 l -89 -57 q -29 -72 -58 -72 q 46 -40 14 -72 q 78 56 78 -8 l 78 750 z "},"K":{"ha":781,"x_min":28,"x_max":753,"o":"m 239 846 l 239 839 q 204 799 219 824 q 189 750 189 775 l 189 96 q 204 47 189 71 q 239 7 219 22 l 239 0 l 28 0 l 28 7 q 63 47 47 22 q 78 96 78 71 l 78 750 q 63 799 78 775 q 28 839 47 824 l 28 846 l 239 846 m 207 413 q 207 435 199 424 l 519 779 q 533 810 531 793 q 528 839 536 826 l 528 846 l 629 846 l 629 840 q 587 819 608 839 q 547 779 565 799 l 311 519 q 298 493 300 508 q 307 467 296 478 l 671 67 q 708 29 688 47 q 753 6 729 11 l 753 0 l 531 0 l 531 7 q 521 67 547 32 l 207 413 z "},"L":{"ha":707,"x_min":28,"x_max":679,"o":"m 189 76 q 204 36 189 51 q 244 21 219 21 l 583 21 q 636 35 615 21 q 672 69 657 50 l 679 69 l 658 0 l 28 0 l 28 7 q 63 47 47 22 q 78 96 78 71 l 78 750 q 63 799 78 775 q 28 839 47 824 l 28 846 l 239 846 l 239 839 q 204 799 219 824 q 189 750 189 775 l 189 76 z "},"M":{"ha":1026,"x_min":28,"x_max":999,"o":"m 835 846 l 963 846 l 963 839 q 926 799 943 824 q 913 750 910 775 l 949 96 q 965 47 951 71 q 999 7 979 22 l 999 0 l 788 0 l 788 7 q 824 47 807 22 q 838 96 840 71 l 803 719 l 494 0 l 143 713 l 107 96 q 121 47 104 71 q 157 7 138 22 l 157 0 l 36 0 l 36 7 q 69 47 56 22 q 86 96 83 71 l 124 751 l 110 779 q 74 821 99 803 q 28 840 49 839 l 28 846 l 200 846 l 539 160 l 835 846 z "},"N":{"ha":932,"x_min":28,"x_max":904,"o":"m 833 0 l 158 726 l 158 96 q 174 47 158 71 q 208 7 189 22 l 208 0 l 88 0 l 88 7 q 122 47 107 22 q 138 96 138 71 l 138 749 l 110 779 q 67 822 86 804 q 28 840 47 839 l 28 846 l 200 846 l 833 163 l 833 750 q 818 799 833 775 q 783 839 803 824 l 783 846 l 904 846 l 904 839 q 869 799 885 824 q 854 750 854 775 l 854 0 l 833 0 z "},"O":{"ha":922,"x_min":21,"x_max":901,"o":"m 21 424 q 52 605 21 524 q 141 744 83 686 q 280 835 199 803 q 461 867 361 867 q 642 835 561 867 q 781 744 724 803 q 870 605 839 686 q 901 424 901 524 q 870 242 901 324 q 781 101 839 160 q 642 11 724 43 q 461 -21 561 -21 q 280 11 361 -21 q 141 101 199 43 q 52 242 83 160 q 21 424 21 324 m 132 424 q 156 250 132 328 q 222 117 179 172 q 326 31 265 61 q 461 0 386 0 q 597 31 536 0 q 701 117 658 61 q 767 250 743 172 q 790 424 790 328 q 767 596 790 518 q 701 729 743 674 q 597 815 658 785 q 461 846 536 846 q 326 815 386 846 q 222 729 265 785 q 156 596 179 674 q 132 424 132 518 z "},"P":{"ha":776,"x_min":28,"x_max":756,"o":"m 440 297 l 189 297 l 189 96 q 204 47 189 71 q 239 7 219 22 l 239 0 l 28 0 l 28 7 q 63 47 47 22 q 78 96 78 71 l 78 750 q 63 799 78 775 q 28 839 47 824 l 28 846 l 451 846 q 583 824 526 846 q 678 764 640 801 q 734 678 715 726 q 754 578 753 631 q 736 476 756 526 q 677 385 717 425 q 578 322 638 346 q 440 297 519 297 m 244 825 q 204 810 219 825 q 189 769 189 794 l 189 318 l 415 318 q 515 340 472 318 q 586 399 558 363 q 628 483 614 436 q 642 578 642 529 q 628 669 642 625 q 587 749 614 714 q 519 804 560 783 q 424 825 478 825 l 244 825 z "},"Q":{"ha":922,"x_min":21,"x_max":997,"o":"m 21 424 q 52 605 21 524 q 141 744 83 686 q 280 835 199 803 q 461 867 361 867 q 642 835 561 867 q 781 744 724 803 q 870 605 839 686 q 901 424 901 524 q 874 253 901 331 q 797 118 847 175 q 676 26 747 61 q 515 -18 604 -10 q 592 -58 556 -35 q 664 -105 628 -82 q 741 -144 700 -128 q 832 -161 782 -161 q 919 -139 879 -161 q 982 -64 958 -117 q 993 -76 989 -65 q 997 -99 997 -86 q 983 -159 997 -132 q 944 -206 968 -186 q 890 -235 921 -225 q 825 -246 858 -246 q 744 -230 781 -246 q 678 -189 708 -214 q 619 -135 647 -164 q 562 -82 592 -107 q 499 -39 532 -57 q 424 -19 465 -21 l 415 -19 q 252 22 325 -12 q 128 115 179 57 q 49 251 76 172 q 21 424 21 329 m 132 424 q 156 250 132 328 q 222 117 179 172 q 326 31 265 61 q 461 0 386 0 q 597 31 536 0 q 701 117 658 61 q 767 250 743 172 q 790 424 790 328 q 767 596 790 518 q 701 729 743 674 q 597 815 658 785 q 461 846 536 846 q 326 815 386 846 q 222 729 265 785 q 156 596 179 674 q 132 424 132 518 z "},"R":{"ha":833,"x_min":28,"x_max":806,"o":"m 440 297 l 363 297 q 444 233 407 274 q 516 153 481 193 q 589 85 551 114 q 674 57 626 57 q 756 85 722 57 q 790 153 790 113 q 801 141 797 151 q 806 118 806 131 q 792 60 806 86 q 754 17 778 35 q 700 -11 731 -1 q 636 -21 669 -21 q 542 3 579 -21 q 478 62 504 26 q 432 138 451 97 q 392 215 413 179 q 346 274 372 250 q 279 297 319 297 l 189 297 l 189 96 q 204 47 189 71 q 239 7 219 22 l 239 0 l 28 0 l 28 7 q 63 47 47 22 q 78 96 78 71 l 78 750 q 63 799 78 775 q 28 839 47 824 l 28 846 l 451 846 q 583 824 526 846 q 678 764 640 801 q 735 678 717 726 q 754 578 754 631 q 735 476 754 526 q 676 385 715 425 q 578 322 638 346 q 440 297 519 297 m 244 825 q 204 810 219 825 q 189 769 189 794 l 189 318 l 415 318 q 515 340 472 318 q 586 399 558 363 q 628 483 614 436 q 642 578 642 529 q 628 669 642 625 q 587 749 614 714 q 519 804 560 783 q 424 825 478 825 l 244 825 z "},"S":{"ha":700,"x_min":21,"x_max":678,"o":"m 300 867 q 440 849 369 867 q 569 804 511 832 l 569 693 q 456 803 521 760 q 297 846 390 846 q 188 808 226 846 q 149 721 149 771 q 172 636 149 671 q 231 575 194 601 q 315 528 268 549 q 412 487 363 507 q 509 445 461 467 q 594 394 557 424 q 654 324 631 364 q 678 226 678 283 q 647 110 678 157 q 569 33 617 63 q 465 -8 521 4 q 357 -21 408 -21 q 267 -13 313 -21 q 176 8 221 -6 q 92 40 132 21 q 21 81 53 58 l 21 192 q 90 115 51 150 q 172 54 129 79 q 261 15 215 29 q 350 0 307 0 q 444 15 403 0 q 514 54 486 29 q 557 112 542 79 q 572 179 572 144 q 533 283 572 242 q 434 354 493 324 q 306 411 375 385 q 177 470 236 438 q 78 548 118 503 q 39 663 39 593 q 63 756 39 717 q 124 819 86 794 q 208 855 161 843 q 300 867 254 867 z "},"T":{"ha":883,"x_min":28,"x_max":856,"o":"m 835 846 l 856 776 l 849 776 q 813 810 833 796 q 760 825 792 825 l 497 825 l 497 96 q 513 47 497 71 q 547 7 528 22 l 547 0 l 336 0 l 336 7 q 371 47 356 22 q 386 96 386 71 l 386 825 l 124 825 q 71 810 92 825 q 35 776 50 796 l 28 776 l 49 846 l 835 846 z "},"U":{"ha":804,"x_min":28,"x_max":776,"o":"m 726 281 q 704 166 726 218 q 641 77 682 114 q 542 20 600 40 q 415 0 485 0 q 277 20 339 0 q 171 77 215 40 q 102 166 126 114 q 78 282 78 218 l 78 750 q 63 799 78 775 q 28 839 47 824 l 28 846 l 239 846 l 239 839 q 204 799 219 824 q 189 750 189 775 l 189 281 q 208 177 189 224 q 260 98 226 131 q 343 47 294 65 q 450 29 392 29 q 553 47 507 29 q 633 98 600 65 q 685 177 667 131 q 706 281 704 224 l 706 750 q 690 799 706 775 q 656 839 675 824 l 656 846 l 776 846 l 776 839 q 742 799 757 824 q 726 750 726 775 l 726 281 z "},"V":{"ha":988,"x_min":28,"x_max":960,"o":"m 222 779 l 544 146 l 867 779 q 871 813 874 794 q 844 839 868 832 l 844 846 l 960 846 l 960 840 q 919 819 936 835 q 890 779 901 803 l 493 0 l 97 779 q 69 819 86 803 q 28 840 51 835 l 28 846 l 244 846 l 244 839 q 218 813 221 832 q 222 779 215 794 z "},"W":{"ha":1418,"x_min":28,"x_max":1390,"o":"m 222 779 l 544 146 l 697 446 l 528 779 q 499 819 517 803 q 458 840 482 835 l 458 846 l 675 846 l 675 839 q 649 813 651 832 q 653 779 646 794 l 760 569 l 867 779 q 871 813 874 794 q 844 839 868 832 l 844 846 l 960 846 l 960 840 q 919 819 936 835 q 890 779 901 803 l 771 546 l 975 146 l 1297 779 q 1301 813 1304 794 q 1275 839 1299 832 l 1275 846 l 1390 846 l 1390 840 q 1349 819 1367 835 q 1321 779 1332 803 l 924 0 l 708 424 l 493 0 l 97 779 q 69 819 86 803 q 28 840 51 835 l 28 846 l 244 846 l 244 839 q 218 813 221 832 q 222 779 215 794 z "},"X":{"ha":897,"x_min":28,"x_max":869,"o":"m 239 846 l 239 839 q 235 810 232 826 q 250 779 239 793 l 479 475 l 710 779 q 724 810 721 793 q 718 839 726 826 l 718 846 l 818 846 l 818 840 q 773 817 794 835 q 736 779 751 800 l 493 457 l 788 67 q 824 28 803 46 q 869 6 846 11 l 869 0 l 658 0 l 658 7 q 663 36 667 19 q 649 67 660 53 l 424 365 l 197 67 q 183 36 186 53 q 188 7 181 19 l 188 0 l 88 0 l 88 6 l 89 6 q 134 28 113 11 q 171 67 156 46 l 410 382 l 110 779 q 73 817 94 800 q 28 840 51 835 l 28 846 l 239 846 z "},"Y":{"ha":913,"x_min":28,"x_max":885,"o":"m 513 396 l 513 96 q 528 47 513 71 q 563 7 543 22 l 563 0 l 351 0 l 351 7 q 386 47 371 22 q 401 96 401 71 l 401 396 l 110 779 q 73 817 94 800 q 28 840 51 835 l 28 846 l 239 846 l 239 839 q 235 810 232 826 q 250 779 239 793 l 517 426 l 782 779 q 797 810 793 793 q 793 839 800 826 l 793 846 l 885 846 l 885 840 q 840 817 861 835 q 803 779 818 800 l 513 396 z "},"Z":{"ha":793,"x_min":28,"x_max":765,"o":"m 42 0 q 36 11 28 0 l 614 825 l 124 825 q 71 810 92 825 q 35 776 50 796 l 28 776 l 49 846 l 751 846 q 757 835 765 846 l 179 21 l 669 21 q 722 35 701 21 q 758 69 743 50 l 765 69 l 744 0 l 42 0 z "},"[":{"ha":299,"x_min":28,"x_max":271,"o":"m 139 63 q 150 32 139 43 q 181 21 161 21 l 271 21 l 271 0 l 28 0 l 28 846 l 271 846 l 271 825 l 181 825 q 150 814 161 825 q 139 783 139 803 l 139 63 z "},"\\":{"ha":546,"x_min":28,"x_max":518,"o":"m 397 0 l 28 846 l 149 846 l 518 0 l 397 0 z "},"]":{"ha":299,"x_min":28,"x_max":271,"o":"m 160 783 q 149 814 160 803 q 118 825 138 825 l 28 825 l 28 846 l 271 846 l 271 0 l 28 0 l 28 21 l 118 21 q 149 32 138 21 q 160 63 160 43 l 160 783 z "},"^":{"ha":489,"x_min":28,"x_max":461,"o":"m 172 846 l 317 846 l 461 626 l 440 626 l 244 786 l 49 626 l 28 626 l 172 846 z "},"_":{"ha":472,"x_min":28,"x_max":444,"o":"m 444 -136 l 28 -136 l 28 -81 l 444 -81 l 444 -136 z "},"`":{"ha":207,"x_min":28,"x_max":179,"o":"m 28 783 l 121 846 l 179 692 l 161 681 l 28 783 z "},"a":{"ha":601,"x_min":21,"x_max":574,"o":"m 493 96 q 512 35 493 51 q 551 18 531 18 q 563 19 558 18 q 574 24 568 21 l 574 17 q 532 -4 558 4 q 478 -12 506 -12 q 412 5 442 -12 q 382 63 382 22 q 301 6 349 24 q 204 -12 253 -12 q 136 -3 169 -12 q 77 24 103 6 q 36 67 51 42 q 21 126 21 93 q 57 219 21 188 q 144 265 93 251 q 212 281 176 274 q 279 298 247 288 q 338 325 311 308 q 382 371 365 342 l 382 401 q 340 501 382 464 q 242 538 299 538 q 138 499 189 538 q 58 374 86 461 l 58 485 q 176 545 117 522 q 307 568 235 568 q 380 557 346 568 q 439 524 414 546 q 478 467 464 501 q 493 389 493 433 l 493 96 m 382 336 q 316 290 354 304 q 240 260 278 275 q 164 211 196 243 q 132 126 132 179 q 167 50 132 78 q 249 21 201 22 q 321 39 285 21 q 382 97 357 57 l 382 336 z "},"b":{"ha":689,"x_min":28,"x_max":668,"o":"m 189 56 q 174 15 189 31 q 133 0 158 0 l 28 0 l 28 7 q 63 47 47 22 q 78 96 78 71 l 78 750 q 63 799 78 775 q 28 839 47 824 l 28 846 l 189 867 l 189 492 q 281 549 229 531 q 385 568 332 568 q 501 548 449 568 q 590 490 553 528 q 648 400 628 453 q 668 282 668 347 q 648 161 668 217 q 590 65 628 106 q 501 2 553 25 q 385 -21 449 -21 q 281 -2 332 -21 q 189 56 229 17 m 189 88 q 269 26 225 47 q 358 6 314 6 q 440 26 403 6 q 503 83 476 47 q 543 170 529 119 q 557 279 557 221 q 544 384 557 336 q 505 467 531 432 q 442 522 479 501 q 358 542 406 542 q 269 521 314 542 q 189 460 225 500 l 189 88 z "},"c":{"ha":563,"x_min":21,"x_max":542,"o":"m 131 272 q 148 153 131 204 q 194 67 165 101 q 261 17 224 33 q 338 0 299 0 q 401 10 369 0 q 460 42 433 21 q 508 96 488 64 q 542 169 529 128 l 542 58 q 452 1 510 22 q 331 -21 394 -21 q 219 -4 275 -21 q 120 48 164 13 q 49 139 76 83 q 21 272 21 194 q 49 406 21 350 q 121 497 76 461 q 220 551 165 533 q 329 568 275 568 q 451 547 393 568 q 540 489 508 525 l 540 378 q 458 504 517 461 q 335 547 400 547 q 259 531 296 547 q 194 480 222 514 q 148 394 165 446 q 131 272 131 343 z "},"d":{"ha":689,"x_min":21,"x_max":661,"o":"m 21 282 q 41 400 21 347 q 99 490 61 453 q 188 548 136 528 q 304 568 240 568 q 408 549 357 568 q 500 492 460 531 l 500 750 q 485 799 500 775 q 450 839 469 824 l 450 846 l 611 867 l 611 96 q 626 47 611 71 q 661 7 642 22 l 661 0 l 556 0 q 515 15 531 0 q 500 56 500 31 q 408 -2 460 17 q 304 -21 357 -21 q 188 2 240 -21 q 99 65 136 25 q 41 161 61 106 q 21 282 21 217 m 500 460 q 419 521 464 500 q 331 542 375 542 q 247 522 283 542 q 184 467 210 501 q 145 384 158 432 q 132 279 132 336 q 147 170 132 221 q 187 83 161 119 q 249 26 213 47 q 331 6 286 6 q 419 26 375 6 q 500 88 464 47 l 500 460 z "},"e":{"ha":563,"x_min":21,"x_max":542,"o":"m 338 0 q 401 10 369 0 q 460 42 433 21 q 508 96 488 64 q 542 169 529 128 l 542 58 q 452 1 510 22 q 331 -21 394 -21 q 204 0 261 -21 q 106 60 147 21 q 43 152 65 99 q 21 272 21 206 q 41 394 21 339 q 99 487 61 449 q 189 547 136 525 q 306 568 242 568 q 477 510 413 568 q 542 339 542 451 l 136 339 q 132 307 133 324 q 131 272 131 290 q 146 161 131 211 q 188 75 161 111 q 253 19 215 39 q 338 0 292 0 m 514 400 q 449 504 499 467 q 338 542 399 542 q 211 492 265 542 q 139 360 157 443 l 478 360 q 508 371 497 360 q 514 400 518 382 z "},"f":{"ha":422,"x_min":28,"x_max":394,"o":"m 217 526 l 217 96 q 232 47 217 71 q 267 7 247 22 l 267 0 l 56 0 l 56 7 q 90 47 75 22 q 106 96 106 71 l 106 526 l 28 526 l 28 547 l 106 547 l 106 658 q 121 752 106 713 q 160 817 136 792 q 216 854 185 842 q 279 867 247 867 q 341 856 311 867 q 394 826 371 846 l 394 715 q 340 813 363 779 q 282 846 317 846 q 234 823 251 846 q 217 758 217 800 l 217 547 l 382 547 l 382 526 l 217 526 z "},"g":{"ha":619,"x_min":22,"x_max":599,"o":"m 599 -214 q 573 -324 599 -278 q 506 -399 547 -369 q 411 -444 464 -429 q 304 -458 358 -458 q 202 -446 253 -458 q 112 -410 151 -433 q 48 -352 72 -386 q 22 -275 24 -318 q 28 -232 22 -253 q 44 -194 33 -211 q 69 -168 54 -178 q 101 -158 83 -158 q 113 -168 117 -158 q 100 -244 100 -210 q 119 -327 100 -292 q 172 -387 139 -362 q 244 -423 204 -411 q 326 -435 285 -435 q 408 -424 368 -435 q 480 -390 449 -412 q 530 -333 511 -367 q 549 -254 549 -300 q 524 -176 549 -206 q 436 -136 499 -147 q 361 -128 404 -131 q 272 -122 318 -125 q 183 -110 226 -118 q 104 -87 139 -103 q 49 -44 69 -71 q 28 25 28 -17 q 41 72 28 51 q 75 107 54 92 q 121 133 96 122 q 171 151 146 144 q 66 226 104 175 q 28 350 28 278 q 46 439 28 399 q 97 508 64 479 q 174 552 129 536 q 274 568 219 568 q 428 606 365 568 q 517 725 492 644 l 517 614 q 452 578 490 594 q 364 554 414 563 q 476 478 435 532 q 517 350 517 425 q 499 262 517 301 q 449 194 481 222 q 372 150 417 165 q 274 135 328 135 q 241 136 257 135 q 210 140 225 138 q 153 118 179 133 q 128 63 128 103 q 161 10 128 26 q 244 -11 194 -6 q 351 -17 294 -17 q 456 -26 408 -18 q 561 -88 524 -37 q 599 -214 599 -139 m 274 156 q 372 207 339 156 q 406 350 406 258 q 372 494 406 442 q 274 547 339 547 q 173 494 207 547 q 139 350 139 442 q 173 207 139 258 q 274 156 207 156 z "},"h":{"ha":654,"x_min":28,"x_max":626,"o":"m 28 7 q 63 47 47 22 q 78 96 78 71 l 78 750 q 63 799 78 775 q 28 839 47 824 l 28 846 l 189 867 l 189 489 q 271 549 225 531 q 364 568 317 568 q 444 555 406 568 q 513 517 483 542 q 559 460 542 493 q 576 389 576 428 l 576 96 q 592 47 576 71 q 626 7 607 22 l 626 0 l 415 0 l 415 7 q 450 47 435 22 q 465 96 465 71 l 465 401 q 454 459 465 433 q 424 503 443 485 q 381 530 406 521 q 329 539 356 539 q 255 517 293 539 q 189 456 217 496 l 189 96 q 204 47 189 71 q 239 7 219 22 l 239 0 l 28 0 l 28 7 z "},"i":{"ha":267,"x_min":28,"x_max":239,"o":"m 78 706 q 93 746 78 731 q 133 761 108 761 q 174 746 158 761 q 189 706 189 731 q 174 665 189 681 q 133 650 158 650 q 93 665 108 650 q 78 706 78 681 m 189 568 l 189 96 q 204 47 189 71 q 239 7 219 22 l 239 0 l 28 0 l 28 7 q 63 47 47 22 q 78 96 78 71 l 78 451 q 63 501 78 476 q 28 540 47 525 l 28 547 l 189 568 z "},"j":{"ha":217,"x_min":-101,"x_max":189,"o":"m 78 706 q 93 746 78 731 q 133 761 108 761 q 174 746 158 761 q 189 706 189 731 q 174 665 189 681 q 133 650 158 650 q 93 665 108 650 q 78 706 78 681 m 188 -90 q 172 -184 188 -144 q 133 -249 157 -224 q 77 -286 108 -274 q 14 -299 46 -299 q -48 -288 -18 -299 q -101 -258 -78 -278 l -101 -147 q -47 -244 -69 -211 q 11 -278 -24 -278 q 59 -255 42 -278 q 76 -190 76 -232 l 78 451 q 63 501 78 476 q 28 540 47 525 l 28 547 l 189 568 l 188 -90 z "},"k":{"ha":622,"x_min":28,"x_max":594,"o":"m 189 867 l 189 96 q 204 47 189 71 q 239 7 219 22 l 239 0 l 28 0 l 28 7 q 63 47 47 22 q 78 96 78 71 l 78 750 q 63 799 78 775 q 28 839 47 824 l 28 846 l 189 867 m 204 263 q 204 285 196 274 l 382 481 q 396 511 393 494 q 390 540 399 528 l 390 547 l 492 547 l 492 542 q 449 520 471 540 q 410 481 428 500 l 297 357 q 286 331 286 346 q 297 304 286 315 l 513 67 q 550 29 529 47 q 594 6 571 11 l 594 0 l 392 0 l 392 7 q 382 67 408 32 l 204 263 z "},"l":{"ha":267,"x_min":28,"x_max":239,"o":"m 189 867 l 189 96 q 204 47 189 71 q 239 7 219 22 l 239 0 l 28 0 l 28 7 q 63 47 47 22 q 78 96 78 71 l 78 750 q 63 799 78 775 q 28 839 47 824 l 28 846 l 189 867 z "},"m":{"ha":1042,"x_min":28,"x_max":1014,"o":"m 626 0 l 415 0 l 415 7 q 450 47 435 22 q 465 96 465 71 l 465 401 q 454 459 465 433 q 424 503 443 485 q 381 530 406 521 q 329 539 356 539 q 255 517 293 539 q 189 456 217 496 l 189 96 q 204 47 189 71 q 239 7 219 22 l 239 0 l 28 0 l 28 7 q 63 47 47 22 q 78 96 78 71 l 78 451 q 63 501 78 476 q 28 540 47 525 l 28 547 l 189 568 l 189 489 q 271 549 225 531 q 364 568 317 568 q 479 540 426 568 q 558 464 532 513 q 647 544 594 519 q 751 568 699 568 q 832 555 793 568 q 900 517 871 542 q 947 460 929 493 q 964 389 964 428 l 964 96 q 979 47 964 71 q 1014 7 994 22 l 1014 0 l 803 0 l 803 7 q 838 47 822 22 q 853 96 853 71 l 853 401 q 842 459 853 433 q 812 503 831 485 q 768 530 793 521 q 717 539 743 539 q 637 513 678 539 q 568 440 596 488 q 576 389 576 415 l 576 96 q 592 47 576 71 q 626 7 607 22 l 626 0 z "},"n":{"ha":654,"x_min":28,"x_max":626,"o":"m 415 7 q 450 47 435 22 q 465 96 465 71 l 465 401 q 454 459 465 433 q 424 503 443 485 q 381 530 406 521 q 329 539 356 539 q 255 517 293 539 q 189 456 217 496 l 189 96 q 204 47 189 71 q 239 7 219 22 l 239 0 l 28 0 l 28 7 q 63 47 47 22 q 78 96 78 71 l 78 451 q 63 501 78 476 q 28 540 47 525 l 28 547 l 189 568 l 189 489 q 271 549 225 531 q 364 568 317 568 q 444 555 406 568 q 513 517 483 542 q 559 460 542 493 q 576 389 576 428 l 576 96 q 592 47 576 71 q 626 7 607 22 l 626 0 l 415 0 l 415 7 z "},"o":{"ha":606,"x_min":21,"x_max":585,"o":"m 21 272 q 41 393 21 339 q 99 486 61 447 q 188 547 136 525 q 304 568 240 568 q 419 547 367 568 q 508 486 471 525 q 565 393 544 447 q 585 272 585 339 q 565 153 585 207 q 508 60 544 99 q 419 1 471 22 q 304 -21 367 -21 q 188 1 240 -21 q 99 60 136 22 q 41 153 61 99 q 21 272 21 207 m 132 272 q 144 160 132 211 q 178 74 156 110 q 233 19 201 39 q 304 0 265 0 q 428 74 382 0 q 474 272 474 149 q 462 385 474 335 q 428 472 450 436 q 374 528 406 508 q 304 547 343 547 q 233 528 265 547 q 178 472 201 508 q 144 385 156 436 q 132 272 132 335 z "},"p":{"ha":689,"x_min":28,"x_max":668,"o":"m 189 568 l 189 492 q 281 549 229 531 q 385 568 332 568 q 501 548 449 568 q 590 490 553 528 q 648 400 628 453 q 668 282 668 347 q 648 161 668 217 q 590 65 628 106 q 501 2 553 25 q 385 -21 449 -21 q 281 -2 332 -21 q 189 56 229 17 l 189 -203 q 204 -252 189 -228 q 239 -292 219 -276 l 239 -299 l 28 -299 l 28 -292 q 63 -252 47 -276 q 78 -203 78 -228 l 78 451 q 63 501 78 476 q 28 540 47 525 l 28 547 l 189 568 m 189 88 q 269 26 225 47 q 358 6 314 6 q 440 25 403 6 q 503 80 476 44 q 543 165 529 115 q 557 275 557 215 q 543 385 557 336 q 503 469 529 433 q 440 523 476 504 q 358 542 403 542 q 269 521 314 542 q 189 460 225 500 l 189 88 z "},"q":{"ha":689,"x_min":21,"x_max":661,"o":"m 21 275 q 40 387 21 333 q 97 481 60 440 q 186 544 133 521 q 304 568 239 568 q 408 549 357 568 q 500 492 460 531 q 515 532 500 517 q 556 547 531 547 l 661 547 l 661 540 q 626 501 642 525 q 611 451 611 476 l 611 -203 q 626 -252 611 -228 q 661 -292 642 -276 l 661 -299 l 450 -299 l 450 -292 q 485 -252 469 -276 q 500 -203 500 -228 l 500 56 q 408 -2 460 17 q 304 -21 357 -21 q 188 1 240 -21 q 99 62 136 22 q 41 156 61 101 q 21 275 21 210 m 500 460 q 419 521 464 500 q 331 542 375 542 q 249 523 286 542 q 187 469 213 504 q 147 385 161 433 q 132 275 132 336 q 147 165 132 215 q 187 80 161 115 q 249 25 213 44 q 331 6 286 6 q 419 26 375 6 q 500 88 464 47 l 500 460 z "},"r":{"ha":503,"x_min":28,"x_max":482,"o":"m 28 7 q 63 47 47 22 q 78 96 78 71 l 78 451 q 63 501 78 476 q 28 540 47 525 l 28 547 l 189 568 l 189 485 q 267 550 228 532 q 350 568 306 568 q 403 562 378 568 q 457 547 429 556 l 482 439 q 411 506 442 482 q 336 531 381 531 q 256 508 290 531 q 189 450 221 486 l 189 96 q 204 47 189 71 q 239 7 219 22 l 239 0 l 28 0 l 28 7 z "},"s":{"ha":493,"x_min":21,"x_max":474,"o":"m 471 150 q 410 26 474 72 q 238 -21 346 -21 q 126 -3 185 -21 q 21 44 67 15 l 21 156 q 138 42 76 85 q 247 0 200 0 q 334 28 301 0 q 367 104 367 57 q 341 164 367 140 q 277 206 315 188 q 194 240 239 224 q 110 278 149 257 q 47 331 72 300 q 21 406 21 361 q 81 524 21 479 q 240 568 140 568 q 344 556 293 568 q 428 522 396 543 l 428 411 q 342 510 394 474 q 239 547 290 547 q 157 520 188 547 q 126 449 126 493 q 151 393 126 415 q 214 353 176 371 q 296 320 251 336 q 378 282 340 304 q 443 228 417 260 q 471 150 469 197 z "},"t":{"ha":390,"x_min":21,"x_max":363,"o":"m 181 721 l 201 721 l 201 547 l 340 547 l 340 526 l 201 526 l 201 74 q 217 28 201 46 q 257 10 233 10 q 313 38 283 10 q 363 136 342 65 l 363 25 q 306 -3 336 6 q 243 -11 275 -11 q 186 -2 214 -11 q 137 25 158 7 q 103 69 115 43 q 90 131 90 96 l 90 526 l 21 526 l 21 547 q 100 554 69 547 q 148 580 131 561 q 172 633 165 599 q 181 721 179 667 z "},"u":{"ha":685,"x_min":28,"x_max":657,"o":"m 465 67 q 383 6 429 25 q 290 -12 338 -12 q 210 1 249 -12 q 142 38 171 14 q 95 95 113 63 q 78 167 78 128 l 78 451 q 63 501 78 476 q 28 540 47 525 l 28 547 l 189 568 l 189 154 q 200 97 189 122 q 230 53 211 71 q 274 26 249 36 q 325 17 299 17 q 399 38 361 17 q 465 100 438 60 l 465 451 q 452 499 465 475 q 415 540 439 524 l 415 547 l 576 568 l 576 96 q 595 35 576 51 q 635 18 614 18 q 647 19 642 18 q 657 24 651 21 l 657 17 q 615 -4 642 4 q 561 -12 589 -12 q 495 5 525 -12 q 465 63 465 22 l 465 67 z "},"v":{"ha":671,"x_min":21,"x_max":650,"o":"m 215 481 l 386 146 l 557 481 q 561 515 564 496 q 535 540 558 533 l 535 547 l 650 547 l 650 542 q 609 520 626 536 q 581 481 592 504 l 335 0 l 90 481 q 62 520 79 504 q 21 542 44 536 l 21 547 l 238 547 l 238 540 q 211 515 214 533 q 215 481 208 496 z "},"w":{"ha":950,"x_min":21,"x_max":929,"o":"m 215 481 l 386 146 l 463 297 l 369 481 q 341 520 358 504 q 300 542 324 536 l 300 547 l 517 547 l 517 540 q 490 515 493 533 q 494 481 488 496 l 525 419 l 557 481 q 561 515 564 496 q 535 540 558 533 l 535 547 l 650 547 l 650 542 q 609 520 626 536 q 581 481 592 504 l 538 396 l 665 146 l 836 481 q 840 515 843 496 q 814 540 838 533 l 814 547 l 929 547 l 929 542 q 888 520 906 536 q 860 481 871 504 l 614 0 l 475 274 l 335 0 l 90 481 q 62 520 79 504 q 21 542 44 536 l 21 547 l 238 547 l 238 540 q 211 515 214 533 q 215 481 208 496 z "},"x":{"ha":658,"x_min":21,"x_max":638,"o":"m 581 542 q 535 519 557 536 q 499 481 514 501 l 371 311 l 556 67 q 592 28 571 46 q 638 6 614 11 l 638 0 l 426 0 l 426 7 q 431 36 435 19 q 417 67 428 53 l 301 219 l 185 67 q 171 36 174 53 q 175 7 168 19 l 175 0 l 75 0 l 75 6 l 76 6 q 122 28 100 11 q 158 67 143 46 l 288 238 l 103 481 q 66 519 88 501 q 21 542 44 536 l 21 547 l 232 547 l 232 540 q 228 511 225 528 q 243 481 232 494 l 357 329 l 472 481 q 486 511 483 494 q 481 540 489 528 l 481 547 l 581 547 l 581 542 z "},"y":{"ha":638,"x_min":21,"x_max":617,"o":"m 242 547 l 242 540 q 217 513 218 532 q 225 479 217 493 l 371 183 l 524 481 q 528 515 531 496 q 501 540 525 533 l 501 547 l 617 547 l 617 542 q 576 520 593 536 q 547 481 558 504 l 236 -125 q 181 -187 214 -168 q 117 -207 149 -207 q 49 -184 78 -207 q 21 -121 21 -161 q 36 -81 21 -96 q 76 -65 51 -65 q 117 -81 101 -65 q 132 -121 132 -96 q 117 -161 132 -146 q 76 -176 101 -176 q 117 -186 94 -186 q 168 -172 142 -186 q 214 -121 194 -157 l 308 61 l 96 488 q 64 524 83 510 q 21 542 44 539 l 21 547 l 242 547 z "},"z":{"ha":581,"x_min":28,"x_max":553,"o":"m 49 547 l 553 547 l 179 21 l 457 21 q 510 35 489 21 q 546 69 531 50 l 553 69 l 532 0 l 28 0 l 401 526 l 124 526 q 71 512 92 526 q 35 478 50 497 l 28 478 l 49 547 z "},"{":{"ha":303,"x_min":28,"x_max":275,"o":"m 28 424 q 38 435 28 433 q 85 482 74 442 q 96 578 96 522 l 96 629 q 112 732 96 690 q 153 799 128 774 q 210 835 178 824 q 275 846 242 846 l 275 825 q 220 787 233 825 q 207 689 207 749 l 207 629 q 173 488 207 536 q 90 422 139 439 q 173 358 139 406 q 207 217 207 310 l 207 165 q 220 63 207 106 q 275 21 233 21 l 275 0 q 210 11 242 0 q 153 47 178 22 q 112 114 128 72 q 96 217 96 156 l 96 276 q 85 369 96 332 q 38 411 74 406 q 28 422 28 413 l 28 424 z "},"|":{"ha":167,"x_min":28,"x_max":139,"o":"m 28 846 l 139 846 l 139 0 l 28 0 l 28 846 z "},"}":{"ha":303,"x_min":28,"x_max":275,"o":"m 275 422 q 265 411 275 413 q 218 364 229 404 q 207 268 207 324 l 207 217 q 191 114 207 156 q 150 47 175 72 q 93 11 125 22 q 28 0 61 0 l 28 21 q 83 59 69 21 q 96 157 96 97 l 96 217 q 130 358 96 310 q 213 424 164 407 q 130 488 164 440 q 96 629 96 536 l 96 681 q 83 783 96 740 q 28 825 69 825 l 28 846 q 93 835 61 846 q 150 799 125 824 q 191 732 175 774 q 207 629 207 690 l 207 569 q 218 477 207 514 q 265 435 229 440 q 275 424 275 433 l 275 422 z "},"~":{"ha":583,"x_min":28,"x_max":556,"o":"m 28 196 q 95 302 54 275 q 186 329 136 329 q 244 324 214 329 q 306 313 274 318 q 378 298 343 306 q 444 290 414 290 q 499 303 476 290 q 535 349 522 315 l 556 349 q 488 239 529 267 q 396 211 446 211 q 342 216 369 211 q 286 226 314 221 q 208 241 246 233 q 139 249 171 249 q 83 238 107 249 q 49 196 60 226 l 28 196 z "}," ":{"ha":361,"x_min":0,"x_max":0,"o":""},"¡":{"ha":168,"x_min":28,"x_max":140,"o":"m 140 951 q 125 911 140 926 q 85 896 110 896 q 44 911 60 896 q 29 951 29 926 q 44 992 29 976 q 85 1007 60 1007 q 125 992 110 1007 q 140 951 140 976 m 139 1 l 28 1 l 74 847 l 94 847 l 139 1 z "},"¢":{"ha":563,"x_min":21,"x_max":542,"o":"m 308 671 l 329 671 l 329 568 q 451 547 393 568 q 540 489 508 525 l 540 378 q 464 500 519 453 q 329 547 408 547 l 329 0 q 465 46 411 0 q 542 169 519 92 l 542 58 q 452 1 510 22 q 331 -21 394 -21 l 329 -21 l 329 -115 l 308 -115 l 308 -21 q 204 1 256 -18 q 112 55 153 19 q 46 144 71 90 q 21 272 21 197 q 47 400 21 346 q 113 490 72 454 q 205 546 153 526 q 308 568 257 565 l 308 671 m 131 272 q 145 162 131 210 q 185 81 160 114 q 242 28 210 47 q 308 3 274 8 l 308 546 q 242 521 274 540 q 185 467 210 501 q 145 385 160 433 q 131 272 131 336 z "},"£":{"ha":629,"x_min":28,"x_max":601,"o":"m 167 111 l 506 111 q 558 126 538 111 q 594 160 579 140 l 601 160 l 551 0 l 56 0 l 56 111 q 85 263 85 185 q 75 425 85 340 l 28 425 l 28 446 l 74 446 q 63 549 68 496 q 56 657 57 601 q 75 744 54 706 q 129 810 96 782 q 206 852 163 838 q 294 867 250 867 q 413 835 357 865 q 497 736 468 804 l 497 625 q 415 794 469 742 q 306 846 361 846 q 252 833 278 846 q 206 795 226 819 q 174 736 186 771 q 163 657 163 701 q 167 547 163 600 q 178 446 172 494 l 294 446 l 294 425 l 181 425 q 188 342 185 382 q 192 263 192 301 q 186 186 192 224 q 167 111 181 149 z "},"¤":{"ha":636,"x_min":28,"x_max":608,"o":"m 61 421 q 75 508 61 468 q 114 581 89 549 l 28 682 l 113 753 l 203 646 q 319 668 253 668 q 435 646 382 668 l 524 753 l 608 682 l 522 581 q 576 421 576 515 q 522 261 576 326 l 608 160 l 524 89 l 432 197 q 319 176 382 176 q 204 197 254 176 l 113 89 l 28 160 l 115 263 q 61 421 61 328 m 163 421 q 205 255 163 317 q 319 193 247 193 q 433 255 390 193 q 475 421 475 317 q 433 588 475 525 q 319 650 390 650 q 205 588 247 650 q 163 421 163 525 z "},"¥":{"ha":913,"x_min":28,"x_max":885,"o":"m 654 371 l 513 371 l 513 276 l 654 276 l 654 221 l 513 221 l 513 96 q 528 47 513 71 q 563 7 543 22 l 563 0 l 351 0 l 351 7 q 386 47 371 22 q 401 96 401 71 l 401 221 l 260 221 l 260 276 l 401 276 l 401 371 l 260 371 l 260 426 l 378 426 l 110 779 q 73 817 94 800 q 28 840 51 835 l 28 846 l 239 846 l 239 839 q 235 810 232 826 q 250 779 239 793 l 517 426 l 782 779 q 797 810 793 793 q 793 839 800 826 l 793 846 l 885 846 l 885 840 q 840 817 861 835 q 803 779 818 800 l 536 426 l 654 426 l 654 371 z "},"¦":{"ha":111,"x_min":28,"x_max":83,"o":"m 83 846 l 83 547 l 28 547 l 28 846 l 83 846 m 83 299 l 83 0 l 28 0 l 28 299 l 83 299 z "},"§":{"ha":713,"x_min":28,"x_max":685,"o":"m 28 163 q 84 113 56 139 q 144 65 113 86 q 210 28 175 43 q 283 14 244 14 q 357 25 325 14 q 410 56 389 36 q 444 102 432 76 q 456 154 456 128 q 425 234 456 203 q 349 289 394 265 q 249 333 303 313 q 150 378 196 353 q 74 440 104 404 q 43 528 43 475 q 56 588 43 563 q 88 633 68 614 q 135 663 108 651 q 190 681 161 675 q 207 756 190 725 q 252 807 224 788 q 317 836 281 826 q 392 846 353 846 q 500 832 444 846 q 600 797 556 818 l 600 713 q 512 797 563 763 q 390 831 461 831 q 305 801 335 831 q 275 732 275 771 q 305 650 275 682 q 380 594 335 618 q 478 551 425 571 q 576 507 531 532 q 653 445 622 482 q 683 350 683 408 q 673 283 685 313 q 641 233 661 254 q 594 197 621 211 q 538 174 567 182 q 508 92 533 125 q 447 38 483 58 q 369 8 411 17 q 289 -1 326 -1 q 149 20 219 -1 q 28 78 79 42 l 28 163 m 538 201 q 585 251 569 221 q 601 314 601 282 q 574 391 601 360 q 503 445 546 422 q 410 488 460 468 q 314 530 360 507 q 235 584 268 553 q 193 661 201 615 q 144 625 161 650 q 128 572 128 600 q 157 491 128 522 q 231 437 186 460 q 326 394 275 414 q 424 350 378 375 q 501 290 469 325 q 538 201 533 256 z "},"¨":{"ha":329,"x_min":28,"x_max":301,"o":"m 190 790 q 206 831 190 815 q 246 846 221 846 q 286 831 271 846 q 301 790 301 815 q 286 750 301 765 q 246 735 271 735 q 206 750 221 735 q 190 790 190 765 m 28 790 q 43 831 28 815 q 83 846 58 846 q 124 831 108 846 q 139 790 139 815 q 124 750 139 765 q 83 735 108 735 q 43 750 58 735 q 28 790 28 765 z "},"©":{"ha":922,"x_min":21,"x_max":901,"o":"m 21 424 q 52 605 21 524 q 141 744 83 686 q 280 835 199 803 q 461 867 361 867 q 642 835 561 867 q 781 744 724 803 q 870 605 839 686 q 901 424 901 524 q 870 242 901 324 q 781 101 839 160 q 642 11 724 43 q 461 -21 561 -21 q 280 11 361 -21 q 141 101 199 43 q 52 242 83 160 q 21 424 21 324 m 132 424 q 156 250 132 328 q 222 117 179 172 q 326 31 265 61 q 461 0 386 0 q 597 31 536 0 q 701 117 658 61 q 767 250 743 172 q 790 424 790 328 q 767 596 790 518 q 701 729 743 674 q 597 815 658 785 q 461 846 536 846 q 326 815 386 846 q 222 729 265 785 q 156 596 179 674 q 132 424 132 518 m 500 186 q 403 203 447 186 q 329 252 360 221 q 282 327 299 283 q 265 425 265 371 q 329 597 265 532 q 500 663 393 663 q 590 647 549 663 q 654 618 631 631 l 654 558 q 633 590 649 574 q 597 621 618 607 q 551 643 576 635 q 500 651 526 651 q 372 589 421 651 q 324 425 324 526 q 336 332 324 374 q 372 260 349 290 q 428 214 396 231 q 500 197 461 197 q 551 206 526 197 q 597 228 576 215 q 633 258 618 242 q 654 290 649 275 l 654 231 q 590 203 632 219 q 500 186 549 186 z "},"ª":{"ha":214,"x_min":21,"x_max":193,"o":"m 168 699 q 177 677 168 681 q 193 676 186 674 l 193 675 q 163 665 183 665 q 142 671 151 665 q 133 689 133 676 q 78 665 113 665 q 38 676 56 665 q 21 708 21 688 q 32 737 21 728 q 60 751 43 746 q 101 762 79 757 q 133 785 122 767 l 133 794 q 120 825 133 814 q 89 836 107 836 q 57 824 74 836 q 32 786 40 813 l 32 821 q 69 839 51 832 q 110 846 88 846 q 151 832 133 846 q 168 790 168 818 l 168 699 m 133 774 q 113 760 125 764 q 89 750 100 756 q 65 735 75 744 q 56 708 56 725 q 66 685 56 693 q 92 676 76 676 q 133 700 118 676 l 133 774 z "},"«":{"ha":590,"x_min":28,"x_max":563,"o":"m 488 547 l 563 547 l 325 272 l 326 272 l 563 -3 l 489 -3 l 251 272 l 488 547 m 264 547 l 339 547 l 101 272 l 103 272 l 339 -3 l 265 -3 l 28 272 l 264 547 z "},"¬":{"ha":601,"x_min":28,"x_max":574,"o":"m 28 328 l 28 439 l 574 439 l 574 150 l 553 150 l 553 286 q 542 317 553 306 q 511 328 531 328 l 28 328 z "},"­":{"ha":556,"x_min":28,"x_max":528,"o":"m 28 301 l 528 301 l 528 246 l 28 246 l 28 301 z "},"®":{"ha":922,"x_min":21,"x_max":901,"o":"m 371 640 q 342 611 342 640 l 342 374 l 460 374 q 513 385 490 374 q 549 417 535 397 q 572 461 564 436 q 579 511 579 486 q 572 559 579 536 q 551 600 565 582 q 515 629 536 618 q 465 640 493 640 l 371 640 m 132 424 q 156 250 132 328 q 222 117 179 172 q 326 31 265 61 q 461 0 386 0 q 597 31 536 0 q 701 117 658 61 q 767 250 743 172 q 790 424 790 328 q 767 596 790 518 q 701 729 743 674 q 597 815 658 785 q 461 846 536 846 q 326 815 386 846 q 222 729 265 785 q 156 596 179 674 q 132 424 132 518 m 21 424 q 52 605 21 524 q 141 744 83 686 q 280 835 199 803 q 461 867 361 867 q 642 835 561 867 q 781 744 724 803 q 870 605 839 686 q 901 424 901 524 q 870 242 901 324 q 781 101 839 160 q 642 11 724 43 q 461 -21 561 -21 q 280 11 361 -21 q 141 101 199 43 q 52 242 83 160 q 21 424 21 324 m 474 363 l 432 363 q 475 329 456 350 q 513 288 494 308 q 551 251 532 267 q 596 236 571 236 q 640 251 622 236 q 658 288 658 267 q 665 268 665 285 q 638 215 665 235 q 576 196 611 196 q 508 222 531 196 q 469 280 485 249 q 437 337 453 311 q 389 363 421 363 l 342 363 l 342 257 q 349 231 342 243 q 368 210 357 218 l 368 207 l 257 207 l 257 210 q 276 231 268 218 q 283 257 283 243 l 283 601 q 276 627 283 614 q 257 647 268 640 l 257 651 l 479 651 q 549 640 519 651 q 599 608 579 628 q 628 564 618 589 q 639 511 639 539 q 628 457 639 483 q 598 410 618 431 q 547 376 578 389 q 474 363 515 363 z "},"¯":{"ha":472,"x_min":28,"x_max":444,"o":"m 444 597 l 28 597 l 28 654 l 444 654 l 444 597 z "},"°":{"ha":289,"x_min":28,"x_max":261,"o":"m 261 729 q 229 644 261 676 q 144 613 197 613 q 60 644 92 613 q 28 729 28 676 q 60 814 28 782 q 144 846 92 846 q 229 814 197 846 q 261 729 261 782 m 200 729 q 185 769 200 754 q 144 785 169 785 q 104 769 119 785 q 89 729 89 754 q 104 689 89 704 q 144 674 119 674 q 185 689 169 674 q 200 729 200 704 z "},"±":{"ha":514,"x_min":28,"x_max":486,"o":"m 285 544 l 285 343 l 486 343 l 486 288 l 285 288 l 285 86 l 229 86 l 229 288 l 28 288 l 28 343 l 229 343 l 229 544 l 285 544 m 486 0 l 28 0 l 28 56 l 486 56 l 486 0 z "},"²":{"ha":239,"x_min":28,"x_max":211,"o":"m 28 576 q 51 633 28 608 q 103 679 75 657 q 155 726 132 701 q 178 783 178 750 q 164 822 178 806 q 121 839 150 839 q 74 819 96 839 q 28 771 51 800 l 28 806 q 76 833 49 821 q 131 846 103 846 q 187 828 163 846 q 211 769 211 810 q 191 717 211 739 q 144 679 171 696 q 90 647 117 663 q 47 611 63 631 l 182 611 q 210 626 197 611 l 211 626 l 196 576 l 28 576 z "},"³":{"ha":236,"x_min":28,"x_max":215,"o":"m 90 713 q 144 735 126 713 q 161 782 163 757 q 147 822 161 804 q 108 839 133 839 q 65 825 86 839 q 38 781 44 811 l 38 815 q 70 838 50 831 q 111 846 90 846 q 169 829 143 846 q 196 781 194 813 q 181 740 196 760 q 135 711 167 721 q 195 688 175 707 q 215 642 215 669 q 183 590 215 610 q 111 569 151 569 q 65 578 88 569 q 28 604 43 586 l 28 638 q 67 592 47 607 q 111 576 88 576 q 160 594 139 576 q 181 642 181 613 q 165 688 181 669 q 115 706 150 706 l 88 706 l 88 713 l 90 713 z "},"´":{"ha":199,"x_min":28,"x_max":171,"o":"m 28 681 l 60 846 l 171 846 l 49 681 l 28 681 z "},"µ":{"ha":685,"x_min":28,"x_max":657,"o":"m 189 568 l 189 154 q 200 97 189 122 q 230 53 211 71 q 274 26 249 36 q 325 17 299 17 q 399 38 361 17 q 465 100 438 60 l 465 451 q 452 499 465 475 q 415 540 439 524 l 415 547 l 576 568 l 576 96 q 595 35 576 51 q 635 18 614 18 q 647 19 642 18 q 657 24 651 21 l 657 17 q 615 -4 642 4 q 561 -12 589 -12 q 495 5 525 -12 q 465 63 465 22 l 465 67 q 383 6 429 25 q 290 -12 338 -12 q 189 10 238 -12 l 189 -200 q 204 -249 189 -225 q 239 -289 219 -274 l 239 -296 l 28 -296 l 28 -289 q 63 -249 47 -274 q 78 -200 78 -225 l 78 451 q 63 501 78 476 q 28 540 47 525 l 28 547 l 189 568 z "},"¶":{"ha":647,"x_min":21,"x_max":619,"o":"m 619 839 q 585 799 600 824 q 569 750 569 775 l 569 96 q 585 47 569 71 q 619 7 600 22 l 619 0 l 378 0 l 378 7 q 413 47 397 22 q 428 96 428 71 l 428 297 l 336 297 q 198 322 257 297 q 99 385 139 346 q 40 476 60 425 q 22 578 21 526 q 42 678 24 631 q 99 764 61 726 q 193 824 136 801 q 325 846 250 846 l 619 846 l 619 839 m 353 825 q 258 804 299 825 q 190 749 217 783 q 149 669 163 714 q 135 578 135 625 q 149 483 135 529 q 191 399 163 436 q 262 340 219 363 q 361 318 304 318 l 428 318 l 428 769 q 413 810 428 794 q 372 825 397 825 l 353 825 m 499 21 q 535 41 522 21 q 549 96 549 61 l 549 750 q 535 805 549 785 q 499 825 522 825 q 462 805 475 825 q 449 750 449 785 l 449 96 q 463 42 449 63 q 499 21 476 21 z "},"·":{"ha":222,"x_min":28,"x_max":194,"o":"m 194 272 q 172 212 194 235 q 111 189 149 189 q 51 212 74 189 q 28 272 28 235 q 51 333 28 310 q 111 356 74 356 q 172 333 149 356 q 194 272 194 310 z "},"¸":{"ha":260,"x_min":28,"x_max":232,"o":"m 117 0 l 138 0 l 106 -128 q 152 -137 129 -131 q 193 -156 175 -143 q 222 -186 211 -168 q 232 -228 232 -204 q 200 -292 232 -268 q 124 -317 168 -317 q 28 -286 72 -317 l 28 -240 q 74 -283 47 -269 q 126 -296 101 -296 q 169 -284 151 -296 q 188 -250 188 -272 q 155 -200 188 -218 q 71 -182 122 -182 l 117 0 z "},"¹":{"ha":122,"x_min":28,"x_max":94,"o":"m 78 846 l 78 606 q 83 591 78 599 q 94 579 88 583 l 94 576 l 28 576 l 28 579 q 40 591 35 583 q 44 606 44 599 l 44 797 l 28 797 l 28 804 q 59 814 46 804 q 72 846 72 824 l 78 846 z "},"º":{"ha":253,"x_min":21,"x_max":232,"o":"m 21 708 q 51 808 21 771 q 126 846 81 846 q 202 808 172 846 q 232 708 232 771 q 202 608 232 646 q 126 569 172 569 q 51 608 81 569 q 21 708 21 646 m 56 708 q 74 613 56 649 q 126 576 92 576 q 179 613 161 576 q 197 708 197 649 q 179 803 197 767 q 126 839 161 839 q 74 803 92 839 q 56 708 56 767 z "},"»":{"ha":590,"x_min":28,"x_max":563,"o":"m 101 -3 l 28 -3 l 264 272 l 265 272 l 28 547 l 103 547 l 339 272 l 101 -3 m 325 -3 l 251 -3 l 488 272 l 489 272 l 251 547 l 326 547 l 563 272 l 325 -3 z "},"¼":{"ha":578,"x_min":28,"x_max":550,"o":"m 397 846 l 518 846 l 149 0 l 28 0 l 397 846 m 78 846 l 78 606 q 83 591 78 599 q 94 579 88 583 l 94 576 l 28 576 l 28 579 q 40 591 35 583 q 44 606 44 599 l 44 797 l 28 797 l 28 804 q 59 814 46 804 q 72 846 72 824 l 78 846 m 472 285 q 451 206 472 244 q 404 135 431 167 l 483 135 l 483 221 l 511 263 l 518 263 l 518 135 l 521 135 q 547 150 538 135 l 550 150 l 535 100 l 518 100 l 518 29 q 533 3 518 13 l 533 0 l 468 0 l 468 3 q 483 29 483 13 l 483 100 l 369 100 q 422 193 406 146 q 439 285 439 240 l 472 285 z "},"½":{"ha":624,"x_min":28,"x_max":596,"o":"m 397 846 l 518 846 l 149 0 l 28 0 l 397 846 m 78 846 l 78 606 q 83 591 78 599 q 94 579 88 583 l 94 576 l 28 576 l 28 579 q 40 591 35 583 q 44 606 44 599 l 44 797 l 28 797 l 28 804 q 59 814 46 804 q 72 846 72 824 l 78 846 m 413 0 q 436 56 413 32 q 488 103 460 81 q 540 149 517 125 q 563 207 563 174 q 549 246 563 229 q 506 263 535 263 q 458 243 481 263 q 413 194 436 224 l 413 229 q 460 257 433 244 q 515 269 488 269 q 572 251 547 269 q 596 193 596 233 q 576 141 596 163 q 528 103 556 119 q 474 70 501 86 q 432 35 447 54 l 567 35 q 594 50 582 35 l 596 50 l 581 0 l 413 0 z "},"¾":{"ha":629,"x_min":28,"x_max":601,"o":"m 90 713 q 144 735 126 713 q 161 782 163 757 q 147 822 161 804 q 108 839 133 839 q 65 825 86 839 q 38 781 44 811 l 38 815 q 70 838 50 831 q 111 846 90 846 q 169 829 143 846 q 196 781 194 813 q 181 740 196 760 q 135 711 167 721 q 195 688 175 707 q 215 642 215 669 q 183 590 215 610 q 111 569 151 569 q 65 578 88 569 q 28 604 43 586 l 28 638 q 67 592 47 607 q 111 576 88 576 q 160 594 139 576 q 181 642 181 613 q 165 688 181 669 q 115 706 150 706 l 88 706 l 88 713 l 90 713 m 449 846 l 569 846 l 200 0 l 79 0 l 449 846 m 524 285 q 503 206 524 244 q 456 135 482 167 l 535 135 l 535 221 l 563 263 l 569 263 l 569 135 l 572 135 q 599 150 589 135 l 601 150 l 586 100 l 569 100 l 569 29 q 585 3 569 13 l 585 0 l 519 0 l 519 3 q 535 29 535 13 l 535 100 l 421 100 q 474 193 457 146 q 490 285 490 240 l 524 285 z "},"¿":{"ha":617,"x_min":28,"x_max":589,"o":"m 506 951 q 490 911 506 926 q 450 896 475 896 q 410 911 425 896 q 394 951 394 926 q 410 992 394 976 q 450 1007 425 1007 q 490 992 475 1007 q 506 951 506 976 m 461 838 q 435 676 460 738 q 375 574 411 615 q 297 504 339 533 q 219 440 256 475 q 160 356 183 406 q 136 222 136 306 q 151 139 136 179 q 193 68 165 99 q 260 19 221 38 q 347 1 299 1 q 420 17 383 1 q 489 65 457 32 q 547 148 521 97 q 589 269 574 199 l 589 158 q 487 27 556 74 q 326 -19 418 -19 q 215 2 268 -19 q 121 61 161 24 q 56 150 81 99 q 29 263 31 201 q 56 402 28 347 q 130 497 85 457 q 228 569 175 538 q 328 636 282 600 q 407 719 375 672 q 440 838 439 767 q 451 847 440 847 q 461 838 461 847 z "},"À":{"ha":983,"x_min":28,"x_max":956,"o":"m 407 997 l 500 1060 l 558 906 l 540 894 l 407 997 m 761 67 l 653 282 l 231 282 l 121 67 q 117 33 114 51 q 143 7 119 14 l 143 0 l 28 0 l 28 6 q 69 27 51 11 q 97 67 86 43 l 493 846 l 886 67 q 915 27 897 43 q 956 6 932 11 l 956 0 l 739 0 l 739 7 q 765 33 763 14 q 761 67 768 51 m 240 303 l 642 303 l 442 699 l 240 303 z "},"Á":{"ha":983,"x_min":28,"x_max":956,"o":"m 460 904 l 492 1069 l 603 1069 l 481 904 l 460 904 m 761 67 l 653 282 l 231 282 l 121 67 q 117 33 114 51 q 143 7 119 14 l 143 0 l 28 0 l 28 6 q 69 27 51 11 q 97 67 86 43 l 493 846 l 886 67 q 915 27 897 43 q 956 6 932 11 l 956 0 l 739 0 l 739 7 q 765 33 763 14 q 761 67 768 51 m 240 303 l 642 303 l 442 699 l 240 303 z "},"Â":{"ha":983,"x_min":28,"x_max":956,"o":"m 419 1065 l 564 1065 l 708 846 l 688 846 l 492 1006 l 296 846 l 275 846 l 419 1065 m 761 67 l 653 282 l 231 282 l 121 67 q 117 33 114 51 q 143 7 119 14 l 143 0 l 28 0 l 28 6 q 69 27 51 11 q 97 67 86 43 l 493 846 l 886 67 q 915 27 897 43 q 956 6 932 11 l 956 0 l 739 0 l 739 7 q 765 33 763 14 q 761 67 768 51 m 240 303 l 642 303 l 442 699 l 240 303 z "},"Ã":{"ha":983,"x_min":28,"x_max":956,"o":"m 228 892 q 295 998 254 971 q 386 1025 336 1025 q 444 1019 414 1025 q 506 1008 474 1014 q 578 994 543 1001 q 644 986 614 986 q 699 999 676 986 q 735 1044 722 1011 l 756 1044 q 688 935 729 963 q 596 907 646 907 q 542 912 569 907 q 486 922 514 917 q 408 937 446 929 q 339 944 371 944 q 283 933 307 944 q 249 892 260 922 l 228 892 m 761 67 l 653 282 l 231 282 l 121 67 q 117 33 114 51 q 143 7 119 14 l 143 0 l 28 0 l 28 6 q 69 27 51 11 q 97 67 86 43 l 493 846 l 886 67 q 915 27 897 43 q 956 6 932 11 l 956 0 l 739 0 l 739 7 q 765 33 763 14 q 761 67 768 51 m 240 303 l 642 303 l 442 699 l 240 303 z "},"Ä":{"ha":983,"x_min":28,"x_max":956,"o":"m 518 921 q 533 961 518 946 q 574 976 549 976 q 614 961 599 976 q 629 921 629 946 q 614 881 629 896 q 574 865 599 865 q 533 881 549 865 q 518 921 518 896 m 356 921 q 371 961 356 946 q 411 976 386 976 q 451 961 436 976 q 467 921 467 946 q 451 881 467 896 q 411 865 436 865 q 371 881 386 865 q 356 921 356 896 m 761 67 l 653 282 l 231 282 l 121 67 q 117 33 114 51 q 143 7 119 14 l 143 0 l 28 0 l 28 6 q 69 27 51 11 q 97 67 86 43 l 493 846 l 886 67 q 915 27 897 43 q 956 6 932 11 l 956 0 l 739 0 l 739 7 q 765 33 763 14 q 761 67 768 51 m 240 303 l 642 303 l 442 699 l 240 303 z "},"Å":{"ha":983,"x_min":28,"x_max":956,"o":"m 608 993 q 576 908 608 940 q 492 876 544 876 q 407 908 439 876 q 375 993 375 940 q 407 1078 375 1046 q 492 1110 439 1110 q 576 1078 544 1110 q 608 993 608 1046 m 547 993 q 532 1033 547 1018 q 492 1049 517 1049 q 451 1033 467 1049 q 436 993 436 1018 q 451 953 436 968 q 492 938 467 938 q 532 953 517 938 q 547 993 547 968 m 761 67 l 653 282 l 231 282 l 121 67 q 117 33 114 51 q 143 7 119 14 l 143 0 l 28 0 l 28 6 q 69 27 51 11 q 97 67 86 43 l 493 846 l 886 67 q 915 27 897 43 q 956 6 932 11 l 956 0 l 739 0 l 739 7 q 765 33 763 14 q 761 67 768 51 m 240 303 l 642 303 l 442 699 l 240 303 z "},"Æ":{"ha":1204,"x_min":28,"x_max":1176,"o":"m 28 0 l 28 6 q 69 27 51 11 q 97 67 86 43 l 493 846 l 1156 846 l 1176 776 l 1169 776 q 1133 810 1154 796 q 1081 825 1113 825 l 771 825 q 731 810 746 825 q 715 769 715 794 l 715 435 l 953 435 q 1002 449 985 435 q 1035 483 1019 464 l 1042 483 l 1042 365 l 1035 365 q 1002 399 1019 385 q 953 414 985 414 l 715 414 l 715 76 q 731 36 715 51 q 771 21 746 21 l 1081 21 q 1133 35 1113 21 q 1169 69 1154 50 l 1176 69 l 1156 0 l 554 0 l 554 7 q 589 47 574 22 q 604 96 604 71 l 604 282 l 231 282 l 121 67 q 117 33 114 51 q 143 7 119 14 l 143 0 l 28 0 m 488 788 l 240 303 l 604 303 l 604 783 q 593 814 604 803 q 563 825 582 825 l 549 825 q 513 815 529 825 q 488 788 496 804 z "},"Ç":{"ha":783,"x_min":28,"x_max":756,"o":"m 468 -21 q 396 -17 432 -21 l 368 -128 q 415 -137 392 -131 q 456 -156 438 -143 q 484 -186 474 -168 q 494 -228 494 -204 q 463 -292 494 -268 q 386 -317 431 -317 q 290 -286 335 -317 l 290 -240 q 337 -283 310 -269 q 389 -296 364 -296 q 432 -284 414 -296 q 450 -250 450 -272 q 417 -200 450 -218 q 333 -182 385 -182 l 376 -14 q 231 37 296 0 q 122 131 167 74 q 52 262 76 188 q 28 424 28 336 q 59 605 28 524 q 148 744 90 686 q 287 835 206 803 q 468 867 368 867 q 555 858 513 867 q 635 838 597 850 q 703 810 672 825 q 756 783 735 796 l 756 672 q 715 733 743 701 q 648 789 686 764 q 563 830 610 814 q 468 846 517 846 q 333 815 393 846 q 229 729 272 785 q 163 596 186 674 q 139 424 139 518 q 163 250 139 328 q 229 117 186 172 q 333 31 272 61 q 468 0 393 0 q 563 16 517 0 q 648 57 610 32 q 715 113 686 82 q 756 174 743 144 l 756 63 q 703 37 735 51 q 635 10 672 22 q 555 -12 597 -3 q 468 -21 513 -21 z "},"È":{"ha":678,"x_min":28,"x_max":650,"o":"m 264 1001 l 357 1064 l 415 910 l 397 899 l 264 1001 m 189 435 l 426 435 q 476 449 458 435 q 508 483 493 464 l 515 483 l 515 365 l 508 365 q 476 399 493 385 q 426 414 458 414 l 189 414 l 189 76 q 204 36 189 51 q 244 21 219 21 l 554 21 q 607 35 586 21 q 643 69 628 50 l 650 69 l 629 0 l 28 0 l 28 7 q 63 47 47 22 q 78 96 78 71 l 78 750 q 63 799 78 775 q 28 839 47 824 l 28 846 l 629 846 l 650 776 l 643 776 q 607 810 628 796 q 554 825 586 825 l 244 825 q 204 810 219 825 q 189 769 189 794 l 189 435 z "},"É":{"ha":678,"x_min":28,"x_max":650,"o":"m 340 899 l 372 1064 l 483 1064 l 361 899 l 340 899 m 189 435 l 426 435 q 476 449 458 435 q 508 483 493 464 l 515 483 l 515 365 l 508 365 q 476 399 493 385 q 426 414 458 414 l 189 414 l 189 76 q 204 36 189 51 q 244 21 219 21 l 554 21 q 607 35 586 21 q 643 69 628 50 l 650 69 l 629 0 l 28 0 l 28 7 q 63 47 47 22 q 78 96 78 71 l 78 750 q 63 799 78 775 q 28 839 47 824 l 28 846 l 629 846 l 650 776 l 643 776 q 607 810 628 796 q 554 825 586 825 l 244 825 q 204 810 219 825 q 189 769 189 794 l 189 435 z "},"Ê":{"ha":678,"x_min":28,"x_max":650,"o":"m 267 1118 l 411 1118 l 556 899 l 535 899 l 339 1058 l 143 899 l 122 899 l 267 1118 m 189 435 l 426 435 q 476 449 458 435 q 508 483 493 464 l 515 483 l 515 365 l 508 365 q 476 399 493 385 q 426 414 458 414 l 189 414 l 189 76 q 204 36 189 51 q 244 21 219 21 l 554 21 q 607 35 586 21 q 643 69 628 50 l 650 69 l 629 0 l 28 0 l 28 7 q 63 47 47 22 q 78 96 78 71 l 78 750 q 63 799 78 775 q 28 839 47 824 l 28 846 l 629 846 l 650 776 l 643 776 q 607 810 628 796 q 554 825 586 825 l 244 825 q 204 810 219 825 q 189 769 189 794 l 189 435 z "},"Ë":{"ha":678,"x_min":28,"x_max":650,"o":"m 365 954 q 381 994 365 979 q 421 1010 396 1010 q 461 994 446 1010 q 476 954 476 979 q 461 914 476 929 q 421 899 446 899 q 381 914 396 899 q 365 954 365 929 m 203 954 q 218 994 203 979 q 258 1010 233 1010 q 299 994 283 1010 q 314 954 314 979 q 299 914 314 929 q 258 899 283 899 q 218 914 233 899 q 203 954 203 929 m 189 435 l 426 435 q 476 449 458 435 q 508 483 493 464 l 515 483 l 515 365 l 508 365 q 476 399 493 385 q 426 414 458 414 l 189 414 l 189 76 q 204 36 189 51 q 244 21 219 21 l 554 21 q 607 35 586 21 q 643 69 628 50 l 650 69 l 629 0 l 28 0 l 28 7 q 63 47 47 22 q 78 96 78 71 l 78 750 q 63 799 78 775 q 28 839 47 824 l 28 846 l 629 846 l 650 776 l 643 776 q 607 810 628 796 q 554 825 586 825 l 244 825 q 204 810 219 825 q 189 769 189 794 l 189 435 z "},"Ì":{"ha":267,"x_min":28,"x_max":239,"o":"m 58 1001 l 151 1064 l 210 910 l 192 899 l 58 1001 m 239 846 l 239 839 q 204 799 219 824 q 189 750 189 775 l 189 96 q 204 47 189 71 q 239 7 219 22 l 239 0 l 28 0 l 28 7 q 63 47 47 22 q 78 96 78 71 l 78 750 q 63 799 78 775 q 28 839 47 824 l 28 846 l 239 846 z "},"Í":{"ha":267,"x_min":28,"x_max":239,"o":"m 63 899 l 94 1064 l 206 1064 l 83 899 l 63 899 m 239 846 l 239 839 q 204 799 219 824 q 189 750 189 775 l 189 96 q 204 47 189 71 q 239 7 219 22 l 239 0 l 28 0 l 28 7 q 63 47 47 22 q 78 96 78 71 l 78 750 q 63 799 78 775 q 28 839 47 824 l 28 846 l 239 846 z "},"Î":{"ha":267,"x_min":28,"x_max":239,"o":"m 153 953 q 132 961 144 961 q 111 953 122 961 l 49 899 l 28 899 l 94 1000 l 172 1000 l 239 899 l 218 899 l 153 953 m 239 846 l 239 839 q 204 799 219 824 q 189 750 189 775 l 189 96 q 204 47 189 71 q 239 7 219 22 l 239 0 l 28 0 l 28 7 q 63 47 47 22 q 78 96 78 71 l 78 750 q 63 799 78 775 q 28 839 47 824 l 28 846 l 239 846 z "},"Ï":{"ha":267,"x_min":28,"x_max":239,"o":"m 28 954 q 43 994 28 979 q 83 1010 58 1010 q 133 981 119 1010 q 183 1010 147 1010 q 224 994 208 1010 q 239 954 239 979 q 224 914 239 929 q 183 899 208 899 q 133 928 147 899 q 83 899 119 899 q 43 914 58 899 q 28 954 28 929 m 239 846 l 239 839 q 204 799 219 824 q 189 750 189 775 l 189 96 q 204 47 189 71 q 239 7 219 22 l 239 0 l 28 0 l 28 7 q 63 47 47 22 q 78 96 78 71 l 78 750 q 63 799 78 775 q 28 839 47 824 l 28 846 l 239 846 z "},"Ð":{"ha":872,"x_min":28,"x_max":851,"o":"m 232 0 l 71 0 l 71 7 q 106 47 90 22 q 121 96 121 71 l 121 396 l 28 396 l 28 451 l 121 451 l 121 750 q 106 799 121 775 q 71 839 90 824 l 71 846 l 443 846 q 618 810 542 846 q 747 714 694 774 q 825 577 799 654 q 851 419 851 500 q 825 263 851 339 q 747 129 799 188 q 619 36 694 71 q 444 1 543 1 q 336 1 386 1 q 232 0 286 0 m 288 825 q 247 810 263 825 q 232 769 232 794 l 232 451 l 324 451 l 324 396 l 232 396 l 232 76 q 247 36 232 51 q 288 21 263 21 q 362 22 328 21 q 429 22 396 22 q 570 59 511 22 q 667 154 629 96 q 722 285 704 213 q 740 431 740 358 q 722 574 740 503 q 667 701 704 644 q 570 792 629 757 q 428 826 511 826 q 374 826 396 826 q 336 826 351 826 q 310 825 321 825 q 288 825 299 825 z "},"Ñ":{"ha":932,"x_min":28,"x_max":904,"o":"m 203 896 q 270 1002 229 975 q 361 1029 311 1029 q 419 1024 389 1029 q 481 1013 449 1018 q 553 998 518 1006 q 619 990 589 990 q 674 1003 651 990 q 710 1049 697 1015 l 731 1049 q 663 939 704 967 q 571 911 621 911 q 517 916 544 911 q 461 926 489 921 q 383 941 421 933 q 314 949 346 949 q 258 938 282 949 q 224 896 235 926 l 203 896 m 833 0 l 158 726 l 158 96 q 174 47 158 71 q 208 7 189 22 l 208 0 l 88 0 l 88 7 q 122 47 107 22 q 138 96 138 71 l 138 749 l 110 779 q 67 822 86 804 q 28 840 47 839 l 28 846 l 200 846 l 833 163 l 833 750 q 818 799 833 775 q 783 839 803 824 l 783 846 l 904 846 l 904 839 q 869 799 885 824 q 854 750 854 775 l 854 0 l 833 0 z "},"Ò":{"ha":922,"x_min":21,"x_max":901,"o":"m 386 1001 l 479 1064 l 538 910 l 519 899 l 386 1001 m 21 424 q 52 605 21 524 q 141 744 83 686 q 280 835 199 803 q 461 867 361 867 q 642 835 561 867 q 781 744 724 803 q 870 605 839 686 q 901 424 901 524 q 870 242 901 324 q 781 101 839 160 q 642 11 724 43 q 461 -21 561 -21 q 280 11 361 -21 q 141 101 199 43 q 52 242 83 160 q 21 424 21 324 m 132 424 q 156 250 132 328 q 222 117 179 172 q 326 31 265 61 q 461 0 386 0 q 597 31 536 0 q 701 117 658 61 q 767 250 743 172 q 790 424 790 328 q 767 596 790 518 q 701 729 743 674 q 597 815 658 785 q 461 846 536 846 q 326 815 386 846 q 222 729 265 785 q 156 596 179 674 q 132 424 132 518 z "},"Ó":{"ha":922,"x_min":21,"x_max":901,"o":"m 390 899 l 422 1064 l 533 1064 l 411 899 l 390 899 m 21 424 q 52 605 21 524 q 141 744 83 686 q 280 835 199 803 q 461 867 361 867 q 642 835 561 867 q 781 744 724 803 q 870 605 839 686 q 901 424 901 524 q 870 242 901 324 q 781 101 839 160 q 642 11 724 43 q 461 -21 561 -21 q 280 11 361 -21 q 141 101 199 43 q 52 242 83 160 q 21 424 21 324 m 132 424 q 156 250 132 328 q 222 117 179 172 q 326 31 265 61 q 461 0 386 0 q 597 31 536 0 q 701 117 658 61 q 767 250 743 172 q 790 424 790 328 q 767 596 790 518 q 701 729 743 674 q 597 815 658 785 q 461 846 536 846 q 326 815 386 846 q 222 729 265 785 q 156 596 179 674 q 132 424 132 518 z "},"Ô":{"ha":922,"x_min":21,"x_max":901,"o":"m 389 1118 l 533 1118 l 678 899 l 657 899 l 461 1058 l 265 899 l 244 899 l 389 1118 m 21 424 q 52 605 21 524 q 141 744 83 686 q 280 835 199 803 q 461 867 361 867 q 642 835 561 867 q 781 744 724 803 q 870 605 839 686 q 901 424 901 524 q 870 242 901 324 q 781 101 839 160 q 642 11 724 43 q 461 -21 561 -21 q 280 11 361 -21 q 141 101 199 43 q 52 242 83 160 q 21 424 21 324 m 132 424 q 156 250 132 328 q 222 117 179 172 q 326 31 265 61 q 461 0 386 0 q 597 31 536 0 q 701 117 658 61 q 767 250 743 172 q 790 424 790 328 q 767 596 790 518 q 701 729 743 674 q 597 815 658 785 q 461 846 536 846 q 326 815 386 846 q 222 729 265 785 q 156 596 179 674 q 132 424 132 518 z "},"Õ":{"ha":922,"x_min":21,"x_max":901,"o":"m 197 899 q 265 1005 224 978 q 356 1032 306 1032 q 413 1026 383 1032 q 475 1015 443 1021 q 548 1001 513 1008 q 614 993 583 993 q 669 1006 646 993 q 704 1051 692 1018 l 725 1051 q 657 942 699 969 q 565 914 615 914 q 511 919 539 914 q 456 929 483 924 q 378 944 415 936 q 308 951 340 951 q 253 940 276 951 q 218 899 229 929 l 197 899 m 21 424 q 52 605 21 524 q 141 744 83 686 q 280 835 199 803 q 461 867 361 867 q 642 835 561 867 q 781 744 724 803 q 870 605 839 686 q 901 424 901 524 q 870 242 901 324 q 781 101 839 160 q 642 11 724 43 q 461 -21 561 -21 q 280 11 361 -21 q 141 101 199 43 q 52 242 83 160 q 21 424 21 324 m 132 424 q 156 250 132 328 q 222 117 179 172 q 326 31 265 61 q 461 0 386 0 q 597 31 536 0 q 701 117 658 61 q 767 250 743 172 q 790 424 790 328 q 767 596 790 518 q 701 729 743 674 q 597 815 658 785 q 461 846 536 846 q 326 815 386 846 q 222 729 265 785 q 156 596 179 674 q 132 424 132 518 z "},"Ö":{"ha":922,"x_min":21,"x_max":901,"o":"m 488 954 q 503 994 488 979 q 543 1010 518 1010 q 583 994 568 1010 q 599 954 599 979 q 583 914 599 929 q 543 899 568 899 q 503 914 518 899 q 488 954 488 929 m 325 954 q 340 994 325 979 q 381 1010 356 1010 q 421 994 406 1010 q 436 954 436 979 q 421 914 436 929 q 381 899 406 899 q 340 914 356 899 q 325 954 325 929 m 21 424 q 52 605 21 524 q 141 744 83 686 q 280 835 199 803 q 461 867 361 867 q 642 835 561 867 q 781 744 724 803 q 870 605 839 686 q 901 424 901 524 q 870 242 901 324 q 781 101 839 160 q 642 11 724 43 q 461 -21 561 -21 q 280 11 361 -21 q 141 101 199 43 q 52 242 83 160 q 21 424 21 324 m 132 424 q 156 250 132 328 q 222 117 179 172 q 326 31 265 61 q 461 0 386 0 q 597 31 536 0 q 701 117 658 61 q 767 250 743 172 q 790 424 790 328 q 767 596 790 518 q 701 729 743 674 q 597 815 658 785 q 461 846 536 846 q 326 815 386 846 q 222 729 265 785 q 156 596 179 674 q 132 424 132 518 z "},"×":{"ha":422,"x_min":28,"x_max":394,"o":"m 67 454 l 211 314 l 351 458 l 390 419 l 250 275 l 394 135 l 356 96 l 211 236 l 71 92 l 32 131 l 172 275 l 28 415 l 67 454 z "},"Ø":{"ha":922,"x_min":21,"x_max":901,"o":"m 21 424 q 52 605 21 524 q 141 744 83 686 q 280 835 199 803 q 461 867 361 867 q 547 860 506 867 q 626 840 589 853 l 656 908 l 679 908 l 647 833 q 834 678 767 785 q 901 424 901 572 q 870 242 901 324 q 781 101 839 160 q 642 11 724 43 q 461 -21 561 -21 q 289 7 368 -21 l 258 -64 l 235 -64 l 269 15 q 86 170 151 64 q 21 424 21 276 m 132 424 q 172 202 132 297 q 286 54 213 107 l 613 807 q 461 846 543 846 q 326 815 386 846 q 222 729 265 785 q 156 596 179 674 q 132 424 132 518 m 304 42 q 461 0 374 0 q 597 31 536 0 q 701 117 658 61 q 767 250 743 172 q 790 424 790 328 q 748 649 790 553 q 631 796 706 744 l 304 42 z "},"Ù":{"ha":804,"x_min":28,"x_max":776,"o":"m 326 1001 l 419 1064 l 478 910 l 460 899 l 326 1001 m 726 281 q 704 166 726 218 q 641 77 682 114 q 542 20 600 40 q 415 0 485 0 q 277 20 339 0 q 171 77 215 40 q 102 166 126 114 q 78 282 78 218 l 78 750 q 63 799 78 775 q 28 839 47 824 l 28 846 l 239 846 l 239 839 q 204 799 219 824 q 189 750 189 775 l 189 281 q 208 177 189 224 q 260 98 226 131 q 343 47 294 65 q 450 29 392 29 q 553 47 507 29 q 633 98 600 65 q 685 177 667 131 q 706 281 704 224 l 706 750 q 690 799 706 775 q 656 839 675 824 l 656 846 l 776 846 l 776 839 q 742 799 757 824 q 726 750 726 775 l 726 281 z "},"Ú":{"ha":804,"x_min":28,"x_max":776,"o":"m 432 899 l 464 1064 l 575 1064 l 453 899 l 432 899 m 726 281 q 704 166 726 218 q 641 77 682 114 q 542 20 600 40 q 415 0 485 0 q 277 20 339 0 q 171 77 215 40 q 102 166 126 114 q 78 282 78 218 l 78 750 q 63 799 78 775 q 28 839 47 824 l 28 846 l 239 846 l 239 839 q 204 799 219 824 q 189 750 189 775 l 189 281 q 208 177 189 224 q 260 98 226 131 q 343 47 294 65 q 450 29 392 29 q 553 47 507 29 q 633 98 600 65 q 685 177 667 131 q 706 281 704 224 l 706 750 q 690 799 706 775 q 656 839 675 824 l 656 846 l 776 846 l 776 839 q 742 799 757 824 q 726 750 726 775 l 726 281 z "},"Û":{"ha":804,"x_min":28,"x_max":776,"o":"m 376 1117 l 521 1117 l 665 897 l 644 897 l 449 1057 l 253 897 l 232 897 l 376 1117 m 726 281 q 704 166 726 218 q 641 77 682 114 q 542 20 600 40 q 415 0 485 0 q 277 20 339 0 q 171 77 215 40 q 102 166 126 114 q 78 282 78 218 l 78 750 q 63 799 78 775 q 28 839 47 824 l 28 846 l 239 846 l 239 839 q 204 799 219 824 q 189 750 189 775 l 189 281 q 208 177 189 224 q 260 98 226 131 q 343 47 294 65 q 450 29 392 29 q 553 47 507 29 q 633 98 600 65 q 685 177 667 131 q 706 281 704 224 l 706 750 q 690 799 706 775 q 656 839 675 824 l 656 846 l 776 846 l 776 839 q 742 799 757 824 q 726 750 726 775 l 726 281 z "},"Ü":{"ha":804,"x_min":28,"x_max":776,"o":"m 474 954 q 489 994 474 979 q 529 1010 504 1010 q 569 994 554 1010 q 585 954 585 979 q 569 914 585 929 q 529 899 554 899 q 489 914 504 899 q 474 954 474 929 m 311 954 q 326 994 311 979 q 367 1010 342 1010 q 407 994 392 1010 q 422 954 422 979 q 407 914 422 929 q 367 899 392 899 q 326 914 342 899 q 311 954 311 929 m 726 281 q 704 166 726 218 q 641 77 682 114 q 542 20 600 40 q 415 0 485 0 q 277 20 339 0 q 171 77 215 40 q 102 166 126 114 q 78 282 78 218 l 78 750 q 63 799 78 775 q 28 839 47 824 l 28 846 l 239 846 l 239 839 q 204 799 219 824 q 189 750 189 775 l 189 281 q 208 177 189 224 q 260 98 226 131 q 343 47 294 65 q 450 29 392 29 q 553 47 507 29 q 633 98 600 65 q 685 177 667 131 q 706 281 704 224 l 706 750 q 690 799 706 775 q 656 839 675 824 l 656 846 l 776 846 l 776 839 q 742 799 757 824 q 726 750 726 775 l 726 281 z "},"Ý":{"ha":913,"x_min":28,"x_max":885,"o":"m 483 899 l 515 1064 l 626 1064 l 504 899 l 483 899 m 513 396 l 513 96 q 528 47 513 71 q 563 7 543 22 l 563 0 l 351 0 l 351 7 q 386 47 371 22 q 401 96 401 71 l 401 396 l 110 779 q 73 817 94 800 q 28 840 51 835 l 28 846 l 239 846 l 239 839 q 235 810 232 826 q 250 779 239 793 l 517 426 l 782 779 q 797 810 793 793 q 793 839 800 826 l 793 846 l 885 846 l 885 840 q 840 817 861 835 q 803 779 818 800 l 513 396 z "},"Þ":{"ha":632,"x_min":28,"x_max":611,"o":"m 189 867 l 189 690 l 372 690 q 504 659 451 690 q 583 581 557 628 q 610 481 610 535 q 586 380 611 426 q 510 302 561 333 q 385 271 460 271 l 189 271 l 189 96 q 204 47 189 71 q 239 7 219 22 l 239 0 l 28 0 l 28 7 q 63 47 47 22 q 78 96 78 71 l 78 750 q 63 799 78 775 q 28 839 47 824 l 28 846 l 189 867 m 189 292 l 338 292 q 427 319 392 292 q 481 390 463 347 q 499 481 499 432 q 481 572 499 529 q 427 642 463 614 q 338 669 392 669 l 189 669 l 189 292 z "},"ß":{"ha":690,"x_min":28,"x_max":669,"o":"m 338 426 q 358 449 338 446 q 420 470 394 453 q 464 514 446 488 q 490 572 482 540 q 499 638 499 604 q 485 729 499 690 q 449 794 471 768 q 398 833 426 819 q 340 846 369 846 q 284 833 311 846 q 236 797 257 821 q 202 736 215 772 q 189 651 189 700 l 189 96 q 204 47 189 71 q 239 7 219 22 l 239 0 l 28 0 l 28 7 q 63 47 47 22 q 78 96 78 71 l 78 651 q 100 746 78 706 q 159 813 122 786 q 243 853 196 840 q 340 867 290 867 q 438 852 390 867 q 524 809 486 838 q 586 738 563 781 q 610 638 610 694 q 597 560 610 599 q 555 492 583 522 q 484 444 526 463 q 385 426 442 426 q 512 406 458 426 q 600 353 565 386 q 652 279 635 321 q 669 196 669 238 q 607 53 669 107 q 440 0 544 0 q 363 10 401 0 q 289 40 325 19 l 289 151 q 358 54 319 88 q 436 21 396 21 q 492 33 469 21 q 531 67 515 46 q 553 117 546 89 q 560 175 560 144 q 547 252 560 213 q 510 324 535 292 q 447 378 485 356 q 358 404 408 400 q 338 426 338 407 z "},"à":{"ha":601,"x_min":21,"x_max":574,"o":"m 225 783 l 318 846 l 376 692 l 358 681 l 225 783 m 493 96 q 512 35 493 51 q 551 18 531 18 q 563 19 558 18 q 574 24 568 21 l 574 17 q 532 -4 558 4 q 478 -12 506 -12 q 412 5 442 -12 q 382 63 382 22 q 301 6 349 24 q 204 -12 253 -12 q 136 -3 169 -12 q 77 24 103 6 q 36 67 51 42 q 21 126 21 93 q 57 219 21 188 q 144 265 93 251 q 212 281 176 274 q 279 298 247 288 q 338 325 311 308 q 382 371 365 342 l 382 401 q 340 501 382 464 q 242 538 299 538 q 138 499 189 538 q 58 374 86 461 l 58 485 q 176 545 117 522 q 307 568 235 568 q 380 557 346 568 q 439 524 414 546 q 478 467 464 501 q 493 389 493 433 l 493 96 m 382 336 q 316 290 354 304 q 240 260 278 275 q 164 211 196 243 q 132 126 132 179 q 167 50 132 78 q 249 21 201 22 q 321 39 285 21 q 382 97 357 57 l 382 336 z "},"á":{"ha":601,"x_min":21,"x_max":574,"o":"m 229 681 l 261 846 l 372 846 l 250 681 l 229 681 m 493 96 q 512 35 493 51 q 551 18 531 18 q 563 19 558 18 q 574 24 568 21 l 574 17 q 532 -4 558 4 q 478 -12 506 -12 q 412 5 442 -12 q 382 63 382 22 q 301 6 349 24 q 204 -12 253 -12 q 136 -3 169 -12 q 77 24 103 6 q 36 67 51 42 q 21 126 21 93 q 57 219 21 188 q 144 265 93 251 q 212 281 176 274 q 279 298 247 288 q 338 325 311 308 q 382 371 365 342 l 382 401 q 340 501 382 464 q 242 538 299 538 q 138 499 189 538 q 58 374 86 461 l 58 485 q 176 545 117 522 q 307 568 235 568 q 380 557 346 568 q 439 524 414 546 q 478 467 464 501 q 493 389 493 433 l 493 96 m 382 336 q 316 290 354 304 q 240 260 278 275 q 164 211 196 243 q 132 126 132 179 q 167 50 132 78 q 249 21 201 22 q 321 39 285 21 q 382 97 357 57 l 382 336 z "},"â":{"ha":601,"x_min":21,"x_max":574,"o":"m 210 846 l 354 846 l 499 626 l 478 626 l 282 786 l 86 626 l 65 626 l 210 846 m 493 96 q 512 35 493 51 q 551 18 531 18 q 563 19 558 18 q 574 24 568 21 l 574 17 q 532 -4 558 4 q 478 -12 506 -12 q 412 5 442 -12 q 382 63 382 22 q 301 6 349 24 q 204 -12 253 -12 q 136 -3 169 -12 q 77 24 103 6 q 36 67 51 42 q 21 126 21 93 q 57 219 21 188 q 144 265 93 251 q 212 281 176 274 q 279 298 247 288 q 338 325 311 308 q 382 371 365 342 l 382 401 q 340 501 382 464 q 242 538 299 538 q 138 499 189 538 q 58 374 86 461 l 58 485 q 176 545 117 522 q 307 568 235 568 q 380 557 346 568 q 439 524 414 546 q 478 467 464 501 q 493 389 493 433 l 493 96 m 382 336 q 316 290 354 304 q 240 260 278 275 q 164 211 196 243 q 132 126 132 179 q 167 50 132 78 q 249 21 201 22 q 321 39 285 21 q 382 97 357 57 l 382 336 z "},"ã":{"ha":601,"x_min":21,"x_max":574,"o":"m 38 693 q 105 799 64 772 q 196 826 146 826 q 253 821 224 826 q 315 810 283 815 q 388 795 353 803 q 454 788 424 788 q 509 800 486 788 q 544 846 532 813 l 565 846 q 497 736 539 764 q 406 708 456 708 q 351 713 379 708 q 296 724 324 718 q 218 738 256 731 q 149 746 181 746 q 93 735 117 746 q 58 693 69 724 l 38 693 m 493 96 q 512 35 493 51 q 551 18 531 18 q 563 19 558 18 q 574 24 568 21 l 574 17 q 532 -4 558 4 q 478 -12 506 -12 q 412 5 442 -12 q 382 63 382 22 q 301 6 349 24 q 204 -12 253 -12 q 136 -3 169 -12 q 77 24 103 6 q 36 67 51 42 q 21 126 21 93 q 57 219 21 188 q 144 265 93 251 q 212 281 176 274 q 279 298 247 288 q 338 325 311 308 q 382 371 365 342 l 382 401 q 340 501 382 464 q 242 538 299 538 q 138 499 189 538 q 58 374 86 461 l 58 485 q 176 545 117 522 q 307 568 235 568 q 380 557 346 568 q 439 524 414 546 q 478 467 464 501 q 493 389 493 433 l 493 96 m 382 336 q 316 290 354 304 q 240 260 278 275 q 164 211 196 243 q 132 126 132 179 q 167 50 132 78 q 249 21 201 22 q 321 39 285 21 q 382 97 357 57 l 382 336 z "},"ä":{"ha":601,"x_min":21,"x_max":574,"o":"m 326 790 q 342 831 326 815 q 382 846 357 846 q 422 831 407 846 q 438 790 438 815 q 422 750 438 765 q 382 735 407 735 q 342 750 357 735 q 326 790 326 765 m 164 790 q 179 831 164 815 q 219 846 194 846 q 260 831 244 846 q 275 790 275 815 q 260 750 275 765 q 219 735 244 735 q 179 750 194 735 q 164 790 164 765 m 493 96 q 512 35 493 51 q 551 18 531 18 q 563 19 558 18 q 574 24 568 21 l 574 17 q 532 -4 558 4 q 478 -12 506 -12 q 412 5 442 -12 q 382 63 382 22 q 301 6 349 24 q 204 -12 253 -12 q 136 -3 169 -12 q 77 24 103 6 q 36 67 51 42 q 21 126 21 93 q 57 219 21 188 q 144 265 93 251 q 212 281 176 274 q 279 298 247 288 q 338 325 311 308 q 382 371 365 342 l 382 401 q 340 501 382 464 q 242 538 299 538 q 138 499 189 538 q 58 374 86 461 l 58 485 q 176 545 117 522 q 307 568 235 568 q 380 557 346 568 q 439 524 414 546 q 478 467 464 501 q 493 389 493 433 l 493 96 m 382 336 q 316 290 354 304 q 240 260 278 275 q 164 211 196 243 q 132 126 132 179 q 167 50 132 78 q 249 21 201 22 q 321 39 285 21 q 382 97 357 57 l 382 336 z "},"å":{"ha":601,"x_min":21,"x_max":574,"o":"m 418 729 q 386 644 418 676 q 301 613 354 613 q 217 644 249 613 q 185 729 185 676 q 217 814 185 782 q 301 846 249 846 q 386 814 354 846 q 418 729 418 782 m 357 729 q 342 769 357 754 q 301 785 326 785 q 261 769 276 785 q 246 729 246 754 q 261 689 246 704 q 301 674 276 674 q 342 689 326 674 q 357 729 357 704 m 493 96 q 512 35 493 51 q 551 18 531 18 q 563 19 558 18 q 574 24 568 21 l 574 17 q 532 -4 558 4 q 478 -12 506 -12 q 412 5 442 -12 q 382 63 382 22 q 301 6 349 24 q 204 -12 253 -12 q 136 -3 169 -12 q 77 24 103 6 q 36 67 51 42 q 21 126 21 93 q 57 219 21 188 q 144 265 93 251 q 212 281 176 274 q 279 298 247 288 q 338 325 311 308 q 382 371 365 342 l 382 401 q 340 501 382 464 q 242 538 299 538 q 138 499 189 538 q 58 374 86 461 l 58 485 q 176 545 117 522 q 307 568 235 568 q 380 557 346 568 q 439 524 414 546 q 478 467 464 501 q 493 389 493 433 l 493 96 m 382 336 q 316 290 354 304 q 240 260 278 275 q 164 211 196 243 q 132 126 132 179 q 167 50 132 78 q 249 21 201 22 q 321 39 285 21 q 382 97 357 57 l 382 336 z "},"æ":{"ha":925,"x_min":21,"x_max":904,"o":"m 58 485 q 176 545 117 522 q 307 568 235 568 q 401 549 358 568 q 467 489 443 529 q 560 549 507 529 q 668 568 614 568 q 840 510 775 568 q 904 339 904 451 l 499 339 q 494 307 496 324 q 493 272 493 290 q 510 153 493 204 q 557 67 528 101 q 624 17 586 33 q 700 0 661 0 q 764 10 732 0 q 823 42 796 21 q 871 96 850 64 q 904 169 892 128 l 904 58 q 815 1 872 22 q 693 -21 757 -21 q 556 15 624 -21 q 435 97 488 51 q 396 58 419 78 q 342 23 372 39 q 278 -3 313 7 q 204 -12 243 -12 q 136 -3 169 -12 q 77 24 103 6 q 36 67 51 42 q 21 126 21 93 q 57 219 21 188 q 144 265 93 251 q 212 281 176 274 q 279 298 247 288 q 338 325 311 308 q 382 371 365 342 l 382 401 q 340 501 382 464 q 242 538 299 538 q 138 499 189 538 q 58 374 86 461 l 58 485 m 876 400 q 811 504 861 467 q 700 542 761 542 q 637 531 668 542 q 579 499 606 521 q 533 442 553 476 q 501 360 513 407 l 840 360 q 870 371 860 360 q 876 400 881 382 m 382 336 q 316 290 354 304 q 240 260 278 275 q 164 211 196 243 q 132 126 132 179 q 167 50 132 78 q 249 21 201 22 q 321 39 285 21 q 382 97 357 57 l 382 336 z "},"ç":{"ha":563,"x_min":21,"x_max":542,"o":"m 131 272 q 148 153 131 204 q 194 67 165 101 q 261 17 224 33 q 338 0 299 0 q 401 10 369 0 q 460 42 433 21 q 508 96 488 64 q 542 169 529 128 l 542 58 q 452 1 510 22 q 331 -21 394 -21 q 308 -20 319 -21 q 285 -18 296 -19 l 257 -128 q 303 -137 281 -131 q 344 -156 326 -143 q 373 -186 363 -168 q 383 -228 383 -204 q 351 -292 383 -268 q 275 -317 319 -317 q 179 -286 224 -317 l 179 -240 q 226 -283 199 -269 q 278 -296 253 -296 q 321 -284 303 -296 q 339 -250 339 -272 q 306 -200 339 -218 q 222 -182 274 -182 l 264 -15 q 173 14 217 -7 q 95 70 129 35 q 41 156 61 106 q 21 272 21 206 q 49 406 21 350 q 121 497 76 461 q 220 551 165 533 q 329 568 275 568 q 451 547 393 568 q 540 489 508 525 l 540 378 q 458 504 517 461 q 335 547 400 547 q 259 531 296 547 q 194 480 222 514 q 148 394 165 446 q 131 272 131 343 z "},"è":{"ha":563,"x_min":21,"x_max":542,"o":"m 206 783 l 299 846 l 357 692 l 339 681 l 206 783 m 338 0 q 401 10 369 0 q 460 42 433 21 q 508 96 488 64 q 542 169 529 128 l 542 58 q 452 1 510 22 q 331 -21 394 -21 q 219 -4 275 -21 q 120 48 164 13 q 49 139 76 83 q 21 272 21 194 q 46 403 21 347 q 112 496 71 460 q 203 550 153 532 q 306 568 254 568 q 477 510 413 568 q 542 339 542 451 l 136 339 q 132 307 133 324 q 131 272 131 290 q 148 153 131 204 q 194 67 165 101 q 261 17 224 33 q 338 0 299 0 m 514 400 q 449 504 499 467 q 338 542 399 542 q 274 531 306 542 q 217 499 243 521 q 170 442 190 476 q 139 360 150 407 l 478 360 q 508 371 497 360 q 514 400 518 382 z "},"é":{"ha":563,"x_min":21,"x_max":542,"o":"m 210 681 l 242 846 l 353 846 l 231 681 l 210 681 m 338 0 q 401 10 369 0 q 460 42 433 21 q 508 96 488 64 q 542 169 529 128 l 542 58 q 452 1 510 22 q 331 -21 394 -21 q 219 -4 275 -21 q 120 48 164 13 q 49 139 76 83 q 21 272 21 194 q 46 403 21 347 q 112 496 71 460 q 203 550 153 532 q 306 568 254 568 q 477 510 413 568 q 542 339 542 451 l 136 339 q 132 307 133 324 q 131 272 131 290 q 148 153 131 204 q 194 67 165 101 q 261 17 224 33 q 338 0 299 0 m 514 400 q 449 504 499 467 q 338 542 399 542 q 274 531 306 542 q 217 499 243 521 q 170 442 190 476 q 139 360 150 407 l 478 360 q 508 371 497 360 q 514 400 518 382 z "},"ê":{"ha":563,"x_min":21,"x_max":542,"o":"m 210 846 l 354 846 l 499 626 l 478 626 l 282 786 l 86 626 l 65 626 l 210 846 m 338 0 q 401 10 369 0 q 460 42 433 21 q 508 96 488 64 q 542 169 529 128 l 542 58 q 452 1 510 22 q 331 -21 394 -21 q 219 -4 275 -21 q 120 48 164 13 q 49 139 76 83 q 21 272 21 194 q 46 403 21 347 q 112 496 71 460 q 203 550 153 532 q 306 568 254 568 q 477 510 413 568 q 542 339 542 451 l 136 339 q 132 307 133 324 q 131 272 131 290 q 148 153 131 204 q 194 67 165 101 q 261 17 224 33 q 338 0 299 0 m 514 400 q 449 504 499 467 q 338 542 399 542 q 274 531 306 542 q 217 499 243 521 q 170 442 190 476 q 139 360 150 407 l 478 360 q 508 371 497 360 q 514 400 518 382 z "},"ë":{"ha":563,"x_min":21,"x_max":542,"o":"m 307 790 q 322 831 307 815 q 363 846 338 846 q 403 831 388 846 q 418 790 418 815 q 403 750 418 765 q 363 735 388 735 q 322 750 338 735 q 307 790 307 765 m 144 790 q 160 831 144 815 q 200 846 175 846 q 240 831 225 846 q 256 790 256 815 q 240 750 256 765 q 200 735 225 735 q 160 750 175 735 q 144 790 144 765 m 338 0 q 401 10 369 0 q 460 42 433 21 q 508 96 488 64 q 542 169 529 128 l 542 58 q 452 1 510 22 q 331 -21 394 -21 q 219 -4 275 -21 q 120 48 164 13 q 49 139 76 83 q 21 272 21 194 q 46 403 21 347 q 112 496 71 460 q 203 550 153 532 q 306 568 254 568 q 477 510 413 568 q 542 339 542 451 l 136 339 q 132 307 133 324 q 131 272 131 290 q 148 153 131 204 q 194 67 165 101 q 261 17 224 33 q 338 0 299 0 m 514 400 q 449 504 499 467 q 338 542 399 542 q 274 531 306 542 q 217 499 243 521 q 170 442 190 476 q 139 360 150 407 l 478 360 q 508 371 497 360 q 514 400 518 382 z "},"ì":{"ha":267,"x_min":28,"x_max":239,"o":"m 58 783 l 151 846 l 210 692 l 192 681 l 58 783 m 189 568 l 189 96 q 204 47 189 71 q 239 7 219 22 l 239 0 l 28 0 l 28 7 q 63 47 47 22 q 78 96 78 71 l 78 451 q 63 501 78 476 q 28 540 47 525 l 28 547 l 189 568 z "},"í":{"ha":267,"x_min":28,"x_max":239,"o":"m 63 681 l 94 846 l 206 846 l 83 681 l 63 681 m 189 568 l 189 96 q 204 47 189 71 q 239 7 219 22 l 239 0 l 28 0 l 28 7 q 63 47 47 22 q 78 96 78 71 l 78 451 q 63 501 78 476 q 28 540 47 525 l 28 547 l 189 568 z "},"î":{"ha":267,"x_min":28,"x_max":239,"o":"m 153 799 q 132 807 144 807 q 111 799 122 807 l 49 744 l 28 744 l 94 846 l 172 846 l 239 744 l 218 744 l 153 799 m 189 568 l 189 96 q 204 47 189 71 q 239 7 219 22 l 239 0 l 28 0 l 28 7 q 63 47 47 22 q 78 96 78 71 l 78 451 q 63 501 78 476 q 28 540 47 525 l 28 547 l 189 568 z "},"ï":{"ha":329,"x_min":28,"x_max":301,"o":"m 190 790 q 206 831 190 815 q 246 846 221 846 q 286 831 271 846 q 301 790 301 815 q 286 750 301 765 q 246 735 271 735 q 206 750 221 735 q 190 790 190 765 m 28 790 q 43 831 28 815 q 83 846 58 846 q 124 831 108 846 q 139 790 139 815 q 124 750 139 765 q 83 735 108 735 q 43 750 58 735 q 28 790 28 765 m 221 568 l 221 96 q 236 47 221 71 q 271 7 251 22 l 271 0 l 60 0 l 60 7 q 94 47 79 22 q 110 96 110 71 l 110 451 q 94 501 110 476 q 60 540 79 525 l 60 547 l 221 568 z "},"ð":{"ha":606,"x_min":21,"x_max":585,"o":"m 332 747 q 429 647 383 700 q 510 535 475 594 q 565 410 544 475 q 585 272 585 344 q 565 153 585 207 q 508 60 544 99 q 419 1 471 22 q 304 -21 367 -21 q 188 1 240 -21 q 99 60 136 22 q 41 153 61 99 q 21 272 21 207 q 41 393 21 339 q 99 486 61 447 q 188 547 136 525 q 304 568 240 568 q 394 556 353 568 q 348 637 372 597 q 296 711 324 676 l 211 624 l 188 647 l 275 738 q 228 787 251 765 q 185 822 206 808 q 194 838 192 829 q 204 847 197 847 q 222 836 207 847 q 253 812 236 825 q 287 786 271 799 q 307 769 303 774 l 383 849 l 407 825 l 332 747 m 132 272 q 144 160 132 211 q 178 74 156 110 q 233 19 201 39 q 304 0 265 0 q 428 74 382 0 q 474 272 474 149 q 466 360 474 313 q 440 450 458 408 q 388 519 421 492 q 304 547 354 547 q 233 528 265 547 q 178 472 201 508 q 144 385 156 436 q 132 272 132 335 z "},"ñ":{"ha":654,"x_min":28,"x_max":626,"o":"m 64 693 q 131 799 90 772 q 222 826 172 826 q 280 821 250 826 q 342 810 310 815 q 415 795 379 803 q 481 788 450 788 q 535 800 513 788 q 571 846 558 813 l 592 846 q 524 736 565 764 q 432 708 482 708 q 378 713 406 708 q 322 724 350 718 q 244 738 282 731 q 175 746 207 746 q 119 735 143 746 q 85 693 96 724 l 64 693 m 415 7 q 450 47 435 22 q 465 96 465 71 l 465 401 q 454 459 465 433 q 424 503 443 485 q 381 530 406 521 q 329 539 356 539 q 255 517 293 539 q 189 456 217 496 l 189 96 q 204 47 189 71 q 239 7 219 22 l 239 0 l 28 0 l 28 7 q 63 47 47 22 q 78 96 78 71 l 78 451 q 63 501 78 476 q 28 540 47 525 l 28 547 l 189 568 l 189 489 q 271 549 225 531 q 364 568 317 568 q 444 555 406 568 q 513 517 483 542 q 559 460 542 493 q 576 389 576 428 l 576 96 q 592 47 576 71 q 626 7 607 22 l 626 0 l 415 0 l 415 7 z "},"ò":{"ha":606,"x_min":21,"x_max":585,"o":"m 228 783 l 321 846 l 379 692 l 361 681 l 228 783 m 21 272 q 41 393 21 339 q 99 486 61 447 q 188 547 136 525 q 304 568 240 568 q 419 547 367 568 q 508 486 471 525 q 565 393 544 447 q 585 272 585 339 q 565 153 585 207 q 508 60 544 99 q 419 1 471 22 q 304 -21 367 -21 q 188 1 240 -21 q 99 60 136 22 q 41 153 61 99 q 21 272 21 207 m 132 272 q 144 160 132 211 q 178 74 156 110 q 233 19 201 39 q 304 0 265 0 q 428 74 382 0 q 474 272 474 149 q 462 385 474 335 q 428 472 450 436 q 374 528 406 508 q 304 547 343 547 q 233 528 265 547 q 178 472 201 508 q 144 385 156 436 q 132 272 132 335 z "},"ó":{"ha":606,"x_min":21,"x_max":585,"o":"m 232 681 l 264 846 l 375 846 l 253 681 l 232 681 m 21 272 q 41 393 21 339 q 99 486 61 447 q 188 547 136 525 q 304 568 240 568 q 419 547 367 568 q 508 486 471 525 q 565 393 544 447 q 585 272 585 339 q 565 153 585 207 q 508 60 544 99 q 419 1 471 22 q 304 -21 367 -21 q 188 1 240 -21 q 99 60 136 22 q 41 153 61 99 q 21 272 21 207 m 132 272 q 144 160 132 211 q 178 74 156 110 q 233 19 201 39 q 304 0 265 0 q 428 74 382 0 q 474 272 474 149 q 462 385 474 335 q 428 472 450 436 q 374 528 406 508 q 304 547 343 547 q 233 528 265 547 q 178 472 201 508 q 144 385 156 436 q 132 272 132 335 z "},"ô":{"ha":606,"x_min":21,"x_max":585,"o":"m 231 846 l 375 846 l 519 626 l 499 626 l 303 786 l 107 626 l 86 626 l 231 846 m 21 272 q 41 393 21 339 q 99 486 61 447 q 188 547 136 525 q 304 568 240 568 q 419 547 367 568 q 508 486 471 525 q 565 393 544 447 q 585 272 585 339 q 565 153 585 207 q 508 60 544 99 q 419 1 471 22 q 304 -21 367 -21 q 188 1 240 -21 q 99 60 136 22 q 41 153 61 99 q 21 272 21 207 m 132 272 q 144 160 132 211 q 178 74 156 110 q 233 19 201 39 q 304 0 265 0 q 428 74 382 0 q 474 272 474 149 q 462 385 474 335 q 428 472 450 436 q 374 528 406 508 q 304 547 343 547 q 233 528 265 547 q 178 472 201 508 q 144 385 156 436 q 132 272 132 335 z "},"õ":{"ha":606,"x_min":21,"x_max":585,"o":"m 39 693 q 106 799 65 772 q 197 826 147 826 q 255 821 225 826 q 317 810 285 815 q 390 795 354 803 q 456 788 425 788 q 510 800 488 788 q 546 846 533 813 l 567 846 q 499 736 540 764 q 407 708 457 708 q 353 713 381 708 q 297 724 325 718 q 219 738 257 731 q 150 746 182 746 q 94 735 118 746 q 60 693 71 724 l 39 693 m 21 272 q 41 393 21 339 q 99 486 61 447 q 188 547 136 525 q 304 568 240 568 q 419 547 367 568 q 508 486 471 525 q 565 393 544 447 q 585 272 585 339 q 565 153 585 207 q 508 60 544 99 q 419 1 471 22 q 304 -21 367 -21 q 188 1 240 -21 q 99 60 136 22 q 41 153 61 99 q 21 272 21 207 m 132 272 q 144 160 132 211 q 178 74 156 110 q 233 19 201 39 q 304 0 265 0 q 428 74 382 0 q 474 272 474 149 q 462 385 474 335 q 428 472 450 436 q 374 528 406 508 q 304 547 343 547 q 233 528 265 547 q 178 472 201 508 q 144 385 156 436 q 132 272 132 335 z "},"ö":{"ha":606,"x_min":21,"x_max":585,"o":"m 329 790 q 344 831 329 815 q 385 846 360 846 q 425 831 410 846 q 440 790 440 815 q 425 750 440 765 q 385 735 410 735 q 344 750 360 735 q 329 790 329 765 m 167 790 q 182 831 167 815 q 222 846 197 846 q 263 831 247 846 q 278 790 278 815 q 263 750 278 765 q 222 735 247 735 q 182 750 197 735 q 167 790 167 765 m 21 272 q 41 393 21 339 q 99 486 61 447 q 188 547 136 525 q 304 568 240 568 q 419 547 367 568 q 508 486 471 525 q 565 393 544 447 q 585 272 585 339 q 565 153 585 207 q 508 60 544 99 q 419 1 471 22 q 304 -21 367 -21 q 188 1 240 -21 q 99 60 136 22 q 41 153 61 99 q 21 272 21 207 m 132 272 q 144 160 132 211 q 178 74 156 110 q 233 19 201 39 q 304 0 265 0 q 428 74 382 0 q 474 272 474 149 q 462 385 474 335 q 428 472 450 436 q 374 528 406 508 q 304 547 343 547 q 233 528 265 547 q 178 472 201 508 q 144 385 156 436 q 132 272 132 335 z "},"÷":{"ha":556,"x_min":28,"x_max":528,"o":"m 222 492 q 238 532 222 517 q 278 547 253 547 q 318 532 303 547 q 333 492 333 517 q 318 451 333 467 q 278 436 303 436 q 238 451 253 436 q 222 492 222 467 m 28 301 l 528 301 l 528 246 l 28 246 l 28 301 m 222 56 q 238 96 222 81 q 278 111 253 111 q 318 96 303 111 q 333 56 333 81 q 318 15 333 31 q 278 0 303 0 q 238 15 253 0 q 222 56 222 31 z "},"ø":{"ha":606,"x_min":21,"x_max":585,"o":"m 21 272 q 41 393 21 339 q 99 486 61 447 q 188 547 136 525 q 304 568 240 568 q 399 554 357 568 l 460 694 l 482 694 l 418 547 q 540 444 496 515 q 585 272 585 372 q 565 153 585 207 q 508 60 544 99 q 419 1 471 22 q 304 -21 367 -21 q 181 4 235 -21 l 113 -151 l 90 -151 l 163 13 q 58 115 96 49 q 21 272 21 182 m 132 272 q 146 153 132 206 q 185 65 160 101 l 383 521 q 347 540 365 533 q 304 547 328 547 q 233 528 265 547 q 178 472 201 508 q 144 385 156 436 q 132 272 132 335 m 199 47 q 304 0 242 0 q 428 74 382 0 q 474 272 474 149 q 454 412 474 351 q 400 507 435 472 l 199 47 z "},"ù":{"ha":685,"x_min":28,"x_max":657,"o":"m 267 783 l 360 846 l 418 692 l 400 681 l 267 783 m 465 67 q 383 6 429 25 q 290 -12 338 -12 q 210 1 249 -12 q 142 38 171 14 q 95 95 113 63 q 78 167 78 128 l 78 451 q 63 501 78 476 q 28 540 47 525 l 28 547 l 189 568 l 189 154 q 200 97 189 122 q 230 53 211 71 q 274 26 249 36 q 325 17 299 17 q 399 38 361 17 q 465 100 438 60 l 465 451 q 452 499 465 475 q 415 540 439 524 l 415 547 l 576 568 l 576 96 q 595 35 576 51 q 635 18 614 18 q 647 19 642 18 q 657 24 651 21 l 657 17 q 615 -4 642 4 q 561 -12 589 -12 q 495 5 525 -12 q 465 63 465 22 l 465 67 z "},"ú":{"ha":685,"x_min":28,"x_max":657,"o":"m 271 681 l 303 846 l 414 846 l 292 681 l 271 681 m 465 67 q 383 6 429 25 q 290 -12 338 -12 q 210 1 249 -12 q 142 38 171 14 q 95 95 113 63 q 78 167 78 128 l 78 451 q 63 501 78 476 q 28 540 47 525 l 28 547 l 189 568 l 189 154 q 200 97 189 122 q 230 53 211 71 q 274 26 249 36 q 325 17 299 17 q 399 38 361 17 q 465 100 438 60 l 465 451 q 452 499 465 475 q 415 540 439 524 l 415 547 l 576 568 l 576 96 q 595 35 576 51 q 635 18 614 18 q 647 19 642 18 q 657 24 651 21 l 657 17 q 615 -4 642 4 q 561 -12 589 -12 q 495 5 525 -12 q 465 63 465 22 l 465 67 z "},"û":{"ha":685,"x_min":28,"x_max":657,"o":"m 271 846 l 415 846 l 560 626 l 539 626 l 343 786 l 147 626 l 126 626 l 271 846 m 465 67 q 383 6 429 25 q 290 -12 338 -12 q 210 1 249 -12 q 142 38 171 14 q 95 95 113 63 q 78 167 78 128 l 78 451 q 63 501 78 476 q 28 540 47 525 l 28 547 l 189 568 l 189 154 q 200 97 189 122 q 230 53 211 71 q 274 26 249 36 q 325 17 299 17 q 399 38 361 17 q 465 100 438 60 l 465 451 q 452 499 465 475 q 415 540 439 524 l 415 547 l 576 568 l 576 96 q 595 35 576 51 q 635 18 614 18 q 647 19 642 18 q 657 24 651 21 l 657 17 q 615 -4 642 4 q 561 -12 589 -12 q 495 5 525 -12 q 465 63 465 22 l 465 67 z "},"ü":{"ha":685,"x_min":28,"x_max":657,"o":"m 368 790 q 383 831 368 815 q 424 846 399 846 q 464 831 449 846 q 479 790 479 815 q 464 750 479 765 q 424 735 449 735 q 383 750 399 735 q 368 790 368 765 m 206 790 q 221 831 206 815 q 261 846 236 846 q 301 831 286 846 q 317 790 317 815 q 301 750 317 765 q 261 735 286 735 q 221 750 236 735 q 206 790 206 765 m 465 67 q 383 6 429 25 q 290 -12 338 -12 q 210 1 249 -12 q 142 38 171 14 q 95 95 113 63 q 78 167 78 128 l 78 451 q 63 501 78 476 q 28 540 47 525 l 28 547 l 189 568 l 189 154 q 200 97 189 122 q 230 53 211 71 q 274 26 249 36 q 325 17 299 17 q 399 38 361 17 q 465 100 438 60 l 465 451 q 452 499 465 475 q 415 540 439 524 l 415 547 l 576 568 l 576 96 q 595 35 576 51 q 635 18 614 18 q 647 19 642 18 q 657 24 651 21 l 657 17 q 615 -4 642 4 q 561 -12 589 -12 q 495 5 525 -12 q 465 63 465 22 l 465 67 z "},"ý":{"ha":638,"x_min":21,"x_max":617,"o":"m 326 681 l 358 846 l 469 846 l 347 681 l 326 681 m 242 547 l 242 540 q 217 513 218 532 q 225 479 217 493 l 371 183 l 524 481 q 528 515 531 496 q 501 540 525 533 l 501 547 l 617 547 l 617 542 q 576 520 593 536 q 547 481 558 504 l 236 -125 q 181 -187 214 -168 q 117 -207 149 -207 q 49 -184 78 -207 q 21 -121 21 -161 q 36 -81 21 -96 q 76 -65 51 -65 q 117 -81 101 -65 q 132 -121 132 -96 q 117 -161 132 -146 q 76 -176 101 -176 q 117 -186 92 -186 q 168 -172 142 -186 q 214 -121 194 -157 l 308 61 l 96 488 q 64 524 83 510 q 21 542 44 539 l 21 547 l 242 547 z "},"þ":{"ha":629,"x_min":28,"x_max":608,"o":"m 189 867 l 189 649 q 349 697 254 697 q 455 678 407 697 q 537 622 503 658 q 590 535 571 586 q 608 424 608 485 q 590 314 608 364 q 537 228 571 264 q 455 172 503 192 q 349 153 407 153 q 261 165 301 153 q 189 201 221 178 l 189 96 q 204 47 189 71 q 239 7 219 22 l 239 0 l 28 0 l 28 7 q 63 47 47 22 q 78 96 78 71 l 78 750 q 63 799 78 775 q 28 839 47 824 l 28 846 l 189 867 m 189 424 q 232 241 189 310 q 349 172 275 172 q 463 241 419 172 q 506 424 506 310 q 494 528 506 481 q 463 608 483 575 q 413 660 442 642 q 349 678 385 678 q 232 608 275 678 q 189 424 189 539 z "},"ÿ":{"ha":638,"x_min":21,"x_max":617,"o":"m 382 790 q 397 831 382 815 q 438 846 413 846 q 478 831 463 846 q 493 790 493 815 q 478 750 493 765 q 438 735 463 735 q 397 750 413 735 q 382 790 382 765 m 219 790 q 235 831 219 815 q 275 846 250 846 q 315 831 300 846 q 331 790 331 815 q 315 750 331 765 q 275 735 300 735 q 235 750 250 735 q 219 790 219 765 m 242 547 l 242 540 q 217 513 218 532 q 225 479 217 493 l 371 183 l 524 481 q 528 515 531 496 q 501 540 525 533 l 501 547 l 617 547 l 617 542 q 576 520 593 536 q 547 481 558 504 l 236 -125 q 181 -187 214 -168 q 117 -207 149 -207 q 49 -184 78 -207 q 21 -121 21 -161 q 36 -81 21 -96 q 76 -65 51 -65 q 117 -81 101 -65 q 132 -121 132 -96 q 117 -161 132 -146 q 76 -176 101 -176 q 117 -186 92 -186 q 168 -172 142 -186 q 214 -121 194 -157 l 308 61 l 96 488 q 64 524 83 510 q 21 542 44 539 l 21 547 l 242 547 z "},"Ā":{"ha":983,"x_min":28,"x_max":956,"o":"m 700 899 l 283 899 l 283 954 l 700 954 l 700 899 m 761 67 l 653 282 l 231 282 l 121 67 q 117 33 114 51 q 143 7 119 14 l 143 0 l 28 0 l 28 6 q 69 27 51 11 q 97 67 86 43 l 493 846 l 886 67 q 915 27 897 43 q 956 6 932 11 l 956 0 l 739 0 l 739 7 q 765 33 763 14 q 761 67 768 51 m 240 303 l 642 303 l 442 699 l 240 303 z "},"ā":{"ha":601,"x_min":21,"x_max":574,"o":"m 510 790 l 93 790 l 93 846 l 510 846 l 510 790 m 493 96 q 512 35 493 51 q 551 18 531 18 q 563 19 558 18 q 574 24 568 21 l 574 17 q 532 -4 558 4 q 478 -12 506 -12 q 412 5 442 -12 q 382 63 382 22 q 301 6 349 24 q 204 -12 253 -12 q 136 -3 169 -12 q 77 24 103 6 q 36 67 51 42 q 21 126 21 93 q 57 219 21 188 q 144 265 93 251 q 212 281 176 274 q 279 298 247 288 q 338 325 311 308 q 382 371 365 342 l 382 401 q 340 501 382 464 q 242 538 299 538 q 138 499 189 538 q 58 374 86 461 l 58 485 q 176 545 117 522 q 307 568 235 568 q 380 557 346 568 q 439 524 414 546 q 478 467 464 501 q 493 389 493 433 l 493 96 m 382 336 q 316 290 354 304 q 240 260 278 275 q 164 211 196 243 q 132 126 132 179 q 167 50 132 78 q 249 21 201 22 q 321 39 285 21 q 382 97 357 57 l 382 336 z "},"Ă":{"ha":983,"x_min":28,"x_max":956,"o":"m 688 1040 l 708 1040 l 604 938 q 560 909 586 919 q 508 899 533 899 l 475 899 q 424 909 450 899 q 379 938 397 919 l 275 1040 l 296 1040 l 406 982 q 492 961 446 961 q 578 982 540 961 l 688 1040 m 761 67 l 653 282 l 231 282 l 121 67 q 117 33 114 51 q 143 7 119 14 l 143 0 l 28 0 l 28 6 q 69 27 51 11 q 97 67 86 43 l 493 846 l 886 67 q 915 27 897 43 q 956 6 932 11 l 956 0 l 739 0 l 739 7 q 765 33 763 14 q 761 67 768 51 m 240 303 l 642 303 l 442 699 l 240 303 z "},"ă":{"ha":601,"x_min":21,"x_max":574,"o":"m 497 846 l 518 846 l 414 743 q 369 715 396 725 q 318 704 343 704 l 285 704 q 233 715 260 704 q 189 743 207 725 l 85 846 l 106 846 l 215 788 q 301 767 256 767 q 388 788 350 767 l 497 846 m 493 96 q 512 35 493 51 q 551 18 531 18 q 563 19 558 18 q 574 24 568 21 l 574 17 q 532 -4 558 4 q 478 -12 506 -12 q 412 5 442 -12 q 382 63 382 22 q 301 6 349 24 q 204 -12 253 -12 q 136 -3 169 -12 q 77 24 103 6 q 36 67 51 42 q 21 126 21 93 q 57 219 21 188 q 144 265 93 251 q 212 281 176 274 q 279 298 247 288 q 338 325 311 308 q 382 371 365 342 l 382 401 q 340 501 382 464 q 242 538 299 538 q 138 499 189 538 q 58 374 86 461 l 58 485 q 176 545 117 522 q 307 568 235 568 q 380 557 346 568 q 439 524 414 546 q 478 467 464 501 q 493 389 493 433 l 493 96 m 382 336 q 316 290 354 304 q 240 260 278 275 q 164 211 196 243 q 132 126 132 179 q 167 50 132 78 q 249 21 201 22 q 321 39 285 21 q 382 97 357 57 l 382 336 z "},"Ą":{"ha":983,"x_min":28,"x_max":956,"o":"m 761 67 l 653 282 l 231 282 l 121 67 q 117 33 114 51 q 143 7 119 14 l 143 0 l 28 0 l 28 6 q 69 27 51 11 q 97 67 86 43 l 493 846 l 886 67 q 915 27 897 43 q 956 6 932 11 l 956 0 l 739 0 q 749 -115 739 -75 q 804 -154 760 -154 q 862 -121 839 -154 q 917 -24 885 -87 l 917 -135 q 863 -165 893 -154 q 801 -175 833 -175 q 738 -167 769 -175 q 683 -138 707 -158 q 643 -83 658 -118 q 628 7 628 -47 l 739 7 q 758 14 751 7 q 766 30 764 21 q 767 49 768 39 q 761 67 765 60 m 240 303 l 642 303 l 442 699 l 240 303 z "},"ą":{"ha":699,"x_min":21,"x_max":671,"o":"m 493 0 q 503 -120 493 -79 q 558 -161 514 -161 q 616 -128 593 -161 q 671 -31 639 -94 l 671 -142 q 617 -172 647 -161 q 556 -182 588 -182 q 422 -131 461 -182 q 382 11 382 -79 l 382 63 q 301 6 349 24 q 204 -12 253 -12 q 136 -3 169 -12 q 77 24 103 6 q 36 67 51 42 q 21 126 21 93 q 57 219 21 188 q 144 265 93 251 q 212 281 176 274 q 279 298 247 288 q 338 325 311 308 q 382 371 365 342 l 382 401 q 340 501 382 464 q 242 538 299 538 q 138 499 189 538 q 58 374 86 461 l 58 485 q 176 545 117 522 q 307 568 235 568 q 380 557 346 568 q 439 524 414 546 q 478 467 464 501 q 493 389 493 433 l 493 0 m 382 97 l 382 336 q 316 290 354 304 q 240 260 278 275 q 164 211 196 243 q 132 126 132 179 q 167 50 132 78 q 249 21 201 22 q 321 39 285 21 q 382 97 357 57 z "},"Ć":{"ha":783,"x_min":28,"x_max":756,"o":"m 401 899 l 433 1064 l 544 1064 l 422 899 l 401 899 m 468 -21 q 287 11 368 -21 q 148 101 206 43 q 59 242 90 160 q 28 424 28 324 q 59 605 28 524 q 148 744 90 686 q 287 835 206 803 q 468 867 368 867 q 555 858 513 867 q 635 838 597 850 q 703 810 672 825 q 756 783 735 796 l 756 672 q 715 733 743 701 q 648 789 686 764 q 563 830 610 814 q 468 846 517 846 q 333 815 393 846 q 229 729 272 785 q 163 596 186 674 q 139 424 139 518 q 163 250 139 328 q 229 117 186 172 q 333 31 272 61 q 468 0 393 0 q 563 16 517 0 q 648 57 610 32 q 715 113 686 82 q 756 174 743 144 l 756 63 q 703 37 735 51 q 635 10 672 22 q 555 -12 597 -3 q 468 -21 513 -21 z "},"ć":{"ha":563,"x_min":21,"x_max":542,"o":"m 210 681 l 242 846 l 353 846 l 231 681 l 210 681 m 131 272 q 148 153 131 204 q 194 67 165 101 q 261 17 224 33 q 338 0 299 0 q 401 10 369 0 q 460 42 433 21 q 508 96 488 64 q 542 169 529 128 l 542 58 q 452 1 510 22 q 331 -21 394 -21 q 219 -4 275 -21 q 120 48 164 13 q 49 139 76 83 q 21 272 21 194 q 49 406 21 350 q 121 497 76 461 q 220 551 165 533 q 329 568 275 568 q 451 547 393 568 q 540 489 508 525 l 540 378 q 458 504 517 461 q 335 547 400 547 q 259 531 296 547 q 194 480 222 514 q 148 394 165 446 q 131 272 131 343 z "},"Ĉ":{"ha":783,"x_min":28,"x_max":756,"o":"m 367 1118 l 511 1118 l 656 899 l 635 899 l 439 1058 l 243 899 l 222 899 l 367 1118 m 468 -21 q 287 11 368 -21 q 148 101 206 43 q 59 242 90 160 q 28 424 28 324 q 59 605 28 524 q 148 744 90 686 q 287 835 206 803 q 468 867 368 867 q 555 858 513 867 q 635 838 597 850 q 703 810 672 825 q 756 783 735 796 l 756 672 q 715 733 743 701 q 648 789 686 764 q 563 830 610 814 q 468 846 517 846 q 333 815 393 846 q 229 729 272 785 q 163 596 186 674 q 139 424 139 518 q 163 250 139 328 q 229 117 186 172 q 333 31 272 61 q 468 0 393 0 q 563 16 517 0 q 648 57 610 32 q 715 113 686 82 q 756 174 743 144 l 756 63 q 703 37 735 51 q 635 10 672 22 q 555 -12 597 -3 q 468 -21 513 -21 z "},"ĉ":{"ha":563,"x_min":21,"x_max":542,"o":"m 210 846 l 354 846 l 499 626 l 478 626 l 282 786 l 86 626 l 65 626 l 210 846 m 131 272 q 148 153 131 204 q 194 67 165 101 q 261 17 224 33 q 338 0 299 0 q 401 10 369 0 q 460 42 433 21 q 508 96 488 64 q 542 169 529 128 l 542 58 q 452 1 510 22 q 331 -21 394 -21 q 219 -4 275 -21 q 120 48 164 13 q 49 139 76 83 q 21 272 21 194 q 49 406 21 350 q 121 497 76 461 q 220 551 165 533 q 329 568 275 568 q 451 547 393 568 q 540 489 508 525 l 540 378 q 458 504 517 461 q 335 547 400 547 q 259 531 296 547 q 194 480 222 514 q 148 394 165 446 q 131 272 131 343 z "},"Ċ":{"ha":783,"x_min":28,"x_max":756,"o":"m 414 954 q 429 994 414 979 q 469 1010 444 1010 q 510 994 494 1010 q 525 954 525 979 q 510 914 525 929 q 469 899 494 899 q 429 914 444 899 q 414 954 414 929 m 468 -21 q 287 11 368 -21 q 148 101 206 43 q 59 242 90 160 q 28 424 28 324 q 59 605 28 524 q 148 744 90 686 q 287 835 206 803 q 468 867 368 867 q 555 858 513 867 q 635 838 597 850 q 703 810 672 825 q 756 783 735 796 l 756 672 q 715 733 743 701 q 648 789 686 764 q 563 830 610 814 q 468 846 517 846 q 333 815 393 846 q 229 729 272 785 q 163 596 186 674 q 139 424 139 518 q 163 250 139 328 q 229 117 186 172 q 333 31 272 61 q 468 0 393 0 q 563 16 517 0 q 648 57 610 32 q 715 113 686 82 q 756 174 743 144 l 756 63 q 703 37 735 51 q 635 10 672 22 q 555 -12 597 -3 q 468 -21 513 -21 z "},"ċ":{"ha":563,"x_min":21,"x_max":542,"o":"m 226 790 q 242 831 226 815 q 282 846 257 846 q 322 831 307 846 q 338 790 338 815 q 322 750 338 765 q 282 735 307 735 q 242 750 257 735 q 226 790 226 765 m 131 272 q 148 153 131 204 q 194 67 165 101 q 261 17 224 33 q 338 0 299 0 q 401 10 369 0 q 460 42 433 21 q 508 96 488 64 q 542 169 529 128 l 542 58 q 452 1 510 22 q 331 -21 394 -21 q 219 -4 275 -21 q 120 48 164 13 q 49 139 76 83 q 21 272 21 194 q 49 406 21 350 q 121 497 76 461 q 220 551 165 533 q 329 568 275 568 q 451 547 393 568 q 540 489 508 525 l 540 378 q 458 504 517 461 q 335 547 400 547 q 259 531 296 547 q 194 480 222 514 q 148 394 165 446 q 131 272 131 343 z "},"Č":{"ha":783,"x_min":28,"x_max":756,"o":"m 535 899 l 390 899 l 246 1118 l 267 1118 l 463 958 l 658 1118 l 679 1118 l 535 899 m 468 -21 q 287 11 368 -21 q 148 101 206 43 q 59 242 90 160 q 28 424 28 324 q 59 605 28 524 q 148 744 90 686 q 287 835 206 803 q 468 867 368 867 q 555 858 513 867 q 635 838 597 850 q 703 810 672 825 q 756 783 735 796 l 756 672 q 715 733 743 701 q 648 789 686 764 q 563 830 610 814 q 468 846 517 846 q 333 815 393 846 q 229 729 272 785 q 163 596 186 674 q 139 424 139 518 q 163 250 139 328 q 229 117 186 172 q 333 31 272 61 q 468 0 393 0 q 563 16 517 0 q 648 57 610 32 q 715 113 686 82 q 756 174 743 144 l 756 63 q 703 37 735 51 q 635 10 672 22 q 555 -12 597 -3 q 468 -21 513 -21 z "},"č":{"ha":563,"x_min":21,"x_max":542,"o":"m 354 626 l 210 626 l 65 846 l 86 846 l 282 686 l 478 846 l 499 846 l 354 626 m 131 272 q 148 153 131 204 q 194 67 165 101 q 261 17 224 33 q 338 0 299 0 q 401 10 369 0 q 460 42 433 21 q 508 96 488 64 q 542 169 529 128 l 542 58 q 452 1 510 22 q 331 -21 394 -21 q 219 -4 275 -21 q 120 48 164 13 q 49 139 76 83 q 21 272 21 194 q 49 406 21 350 q 121 497 76 461 q 220 551 165 533 q 329 568 275 568 q 451 547 393 568 q 540 489 508 525 l 540 378 q 458 504 517 461 q 335 547 400 547 q 259 531 296 547 q 194 480 222 514 q 148 394 165 446 q 131 272 131 343 z "},"Ď":{"ha":829,"x_min":28,"x_max":808,"o":"m 369 899 l 225 899 l 81 1118 l 101 1118 l 297 958 l 493 1118 l 514 1118 l 369 899 m 189 0 l 28 0 l 28 7 q 63 47 47 22 q 78 96 78 71 l 78 750 q 63 799 78 775 q 28 839 47 824 l 28 846 l 400 846 q 575 810 499 846 q 703 714 651 774 q 782 577 756 654 q 808 419 808 500 q 782 263 808 339 q 703 129 756 188 q 576 36 651 71 q 401 1 500 1 q 293 1 343 1 q 189 0 243 0 m 244 825 q 204 810 219 825 q 189 769 189 794 l 189 76 q 204 36 189 51 q 244 21 219 21 q 319 22 285 21 q 386 22 353 22 q 527 59 468 22 q 624 154 586 96 q 679 285 661 213 q 697 431 697 358 q 679 574 697 503 q 624 701 661 644 q 527 792 586 757 q 385 826 468 826 q 331 826 353 826 q 293 826 308 826 q 267 825 278 825 q 244 825 256 825 z "},"ď":{"ha":896,"x_min":21,"x_max":661,"o":"m 21 282 q 41 400 21 347 q 99 490 61 453 q 188 548 136 528 q 304 568 240 568 q 408 549 357 568 q 500 492 460 531 l 500 750 q 485 799 500 775 q 450 839 469 824 l 450 846 l 611 867 l 611 96 q 626 47 611 71 q 661 7 642 22 l 661 0 l 556 0 q 515 15 531 0 q 500 56 500 31 q 408 -2 460 17 q 304 -21 357 -21 q 188 2 240 -21 q 99 65 136 25 q 41 161 61 106 q 21 282 21 217 m 235 692 l 293 846 l 386 783 l 253 681 l 235 692 m 500 460 q 419 521 464 500 q 331 542 375 542 q 247 522 283 542 q 184 467 210 501 q 145 384 158 432 q 132 279 132 336 q 147 170 132 221 q 187 83 161 119 q 249 26 213 47 q 331 6 286 6 q 419 26 375 6 q 500 88 464 47 l 500 460 z "},"Đ":{"ha":872,"x_min":28,"x_max":851,"o":"m 232 0 l 71 0 l 71 7 q 106 47 90 22 q 121 96 121 71 l 121 396 l 28 396 l 28 451 l 121 451 l 121 750 q 106 799 121 775 q 71 839 90 824 l 71 846 l 443 846 q 618 810 542 846 q 747 714 694 774 q 825 577 799 654 q 851 419 851 500 q 825 263 851 339 q 747 129 799 188 q 619 36 694 71 q 444 1 543 1 q 336 1 386 1 q 232 0 286 0 m 288 825 q 247 810 263 825 q 232 769 232 794 l 232 451 l 324 451 l 324 396 l 232 396 l 232 76 q 247 36 232 51 q 288 21 263 21 q 362 22 328 21 q 429 22 396 22 q 570 59 511 22 q 667 154 629 96 q 722 285 704 213 q 740 431 740 358 q 722 574 740 503 q 667 701 704 644 q 570 792 629 757 q 428 826 511 826 q 374 826 396 826 q 336 826 351 826 q 310 825 321 825 q 288 825 299 825 z "},"đ":{"ha":689,"x_min":21,"x_max":661,"o":"m 610 899 l 193 899 l 193 954 l 610 954 l 610 899 m 21 282 q 41 400 21 347 q 99 490 61 453 q 188 548 136 528 q 304 568 240 568 q 408 549 357 568 q 500 492 460 531 l 500 750 q 485 799 500 775 q 450 839 469 824 l 450 846 l 611 867 l 611 96 q 626 47 611 71 q 661 7 642 22 l 661 0 l 556 0 q 515 15 531 0 q 500 56 500 31 q 408 -2 460 17 q 304 -21 357 -21 q 188 2 240 -21 q 99 65 136 25 q 41 161 61 106 q 21 282 21 217 m 500 460 q 419 521 464 500 q 331 542 375 542 q 247 522 283 542 q 184 467 210 501 q 145 384 158 432 q 132 279 132 336 q 147 170 132 221 q 187 83 161 119 q 249 26 213 47 q 331 6 286 6 q 419 26 375 6 q 500 88 464 47 l 500 460 z "},"Ē":{"ha":678,"x_min":28,"x_max":650,"o":"m 547 899 l 131 899 l 131 954 l 547 954 l 547 899 m 189 435 l 426 435 q 476 449 458 435 q 508 483 493 464 l 515 483 l 515 365 l 508 365 q 476 399 493 385 q 426 414 458 414 l 189 414 l 189 76 q 204 36 189 51 q 244 21 219 21 l 554 21 q 607 35 586 21 q 643 69 628 50 l 650 69 l 629 0 l 28 0 l 28 7 q 63 47 47 22 q 78 96 78 71 l 78 750 q 63 799 78 775 q 28 839 47 824 l 28 846 l 629 846 l 650 776 l 643 776 q 607 810 628 796 q 554 825 586 825 l 244 825 q 204 810 219 825 q 189 769 189 794 l 189 435 z "},"ē":{"ha":563,"x_min":21,"x_max":542,"o":"m 490 789 l 74 789 l 74 844 l 490 844 l 490 789 m 338 0 q 401 10 369 0 q 460 42 433 21 q 508 96 488 64 q 542 169 529 128 l 542 58 q 452 1 510 22 q 331 -21 394 -21 q 219 -4 275 -21 q 120 48 164 13 q 49 139 76 83 q 21 272 21 194 q 46 403 21 347 q 112 496 71 460 q 203 550 153 532 q 306 568 254 568 q 477 510 413 568 q 542 339 542 451 l 136 339 q 132 307 133 324 q 131 272 131 290 q 148 153 131 204 q 194 67 165 101 q 261 17 224 33 q 338 0 299 0 m 514 400 q 449 504 499 467 q 338 542 399 542 q 274 531 306 542 q 217 499 243 521 q 170 442 190 476 q 139 360 150 407 l 478 360 q 508 371 497 360 q 514 400 518 382 z "},"Ĕ":{"ha":678,"x_min":28,"x_max":650,"o":"m 535 1040 l 556 1040 l 451 938 q 407 909 433 919 q 356 899 381 899 l 322 899 q 271 909 297 899 q 226 938 244 919 l 122 1040 l 143 1040 l 253 982 q 339 961 293 961 q 425 982 388 961 l 535 1040 m 189 435 l 426 435 q 476 449 458 435 q 508 483 493 464 l 515 483 l 515 365 l 508 365 q 476 399 493 385 q 426 414 458 414 l 189 414 l 189 76 q 204 36 189 51 q 244 21 219 21 l 554 21 q 607 35 586 21 q 643 69 628 50 l 650 69 l 629 0 l 28 0 l 28 7 q 63 47 47 22 q 78 96 78 71 l 78 750 q 63 799 78 775 q 28 839 47 824 l 28 846 l 629 846 l 650 776 l 643 776 q 607 810 628 796 q 554 825 586 825 l 244 825 q 204 810 219 825 q 189 769 189 794 l 189 435 z "},"ĕ":{"ha":563,"x_min":21,"x_max":542,"o":"m 478 846 l 499 846 l 394 743 q 350 715 376 725 q 299 704 324 704 l 265 704 q 214 715 240 704 q 169 743 188 725 l 65 846 l 86 846 l 196 788 q 282 767 236 767 q 368 788 331 767 l 478 846 m 338 0 q 401 10 369 0 q 460 42 433 21 q 508 96 488 64 q 542 169 529 128 l 542 58 q 452 1 510 22 q 331 -21 394 -21 q 219 -4 275 -21 q 120 48 164 13 q 49 139 76 83 q 21 272 21 194 q 46 403 21 347 q 112 496 71 460 q 203 550 153 532 q 306 568 254 568 q 477 510 413 568 q 542 339 542 451 l 136 339 q 132 307 133 324 q 131 272 131 290 q 148 153 131 204 q 194 67 165 101 q 261 17 224 33 q 338 0 299 0 m 514 400 q 449 504 499 467 q 338 542 399 542 q 274 531 306 542 q 217 499 243 521 q 170 442 190 476 q 139 360 150 407 l 478 360 q 508 371 497 360 q 514 400 518 382 z "},"Ė":{"ha":678,"x_min":28,"x_max":650,"o":"m 283 954 q 299 994 283 979 q 339 1010 314 1010 q 379 994 364 1010 q 394 954 394 979 q 379 914 394 929 q 339 899 364 899 q 299 914 314 899 q 283 954 283 929 m 189 435 l 426 435 q 476 449 458 435 q 508 483 493 464 l 515 483 l 515 365 l 508 365 q 476 399 493 385 q 426 414 458 414 l 189 414 l 189 76 q 204 36 189 51 q 244 21 219 21 l 554 21 q 607 35 586 21 q 643 69 628 50 l 650 69 l 629 0 l 28 0 l 28 7 q 63 47 47 22 q 78 96 78 71 l 78 750 q 63 799 78 775 q 28 839 47 824 l 28 846 l 629 846 l 650 776 l 643 776 q 607 810 628 796 q 554 825 586 825 l 244 825 q 204 810 219 825 q 189 769 189 794 l 189 435 z "},"ė":{"ha":563,"x_min":21,"x_max":542,"o":"m 226 790 q 242 831 226 815 q 282 846 257 846 q 322 831 307 846 q 338 790 338 815 q 322 750 338 765 q 282 735 307 735 q 242 750 257 735 q 226 790 226 765 m 338 0 q 401 10 369 0 q 460 42 433 21 q 508 96 488 64 q 542 169 529 128 l 542 58 q 452 1 510 22 q 331 -21 394 -21 q 219 -4 275 -21 q 120 48 164 13 q 49 139 76 83 q 21 272 21 194 q 46 403 21 347 q 112 496 71 460 q 203 550 153 532 q 306 568 254 568 q 477 510 413 568 q 542 339 542 451 l 136 339 q 132 307 133 324 q 131 272 131 290 q 148 153 131 204 q 194 67 165 101 q 261 17 224 33 q 338 0 299 0 m 514 400 q 449 504 499 467 q 338 542 399 542 q 274 531 306 542 q 217 499 243 521 q 170 442 190 476 q 139 360 150 407 l 478 360 q 508 371 497 360 q 514 400 518 382 z "},"Ę":{"ha":678,"x_min":28,"x_max":650,"o":"m 189 435 l 426 435 q 476 449 458 435 q 508 483 493 464 l 515 483 l 515 365 l 508 365 q 476 399 493 385 q 426 414 458 414 l 189 414 l 189 76 q 204 36 189 51 q 244 21 219 21 l 554 21 q 607 35 586 21 q 643 69 628 50 l 650 69 l 629 0 l 28 0 l 28 7 q 63 47 47 22 q 78 96 78 71 l 78 750 q 63 799 78 775 q 28 839 47 824 l 28 846 l 629 846 l 650 776 l 643 776 q 607 810 628 796 q 554 825 586 825 l 244 825 q 204 810 219 825 q 189 769 189 794 l 189 435 z "},"ę":{"ha":747,"x_min":21,"x_max":719,"o":"m 338 0 q 401 10 369 0 q 460 42 433 21 q 508 96 488 64 q 542 169 529 128 l 542 58 q 552 -62 542 -21 q 607 -103 563 -103 q 665 -69 642 -103 q 719 28 688 -36 l 719 -83 q 666 -113 696 -103 q 604 -124 636 -124 q 545 -119 574 -124 q 494 -101 517 -114 q 455 -65 471 -87 q 435 -6 439 -42 q 331 -21 385 -21 q 219 -4 275 -21 q 120 48 164 13 q 49 139 76 83 q 21 272 21 194 q 46 403 21 347 q 112 496 71 460 q 203 550 153 532 q 306 568 254 568 q 477 510 413 568 q 542 339 542 451 l 136 339 q 132 307 133 324 q 131 272 131 290 q 148 153 131 204 q 194 67 165 101 q 261 17 224 33 q 338 0 299 0 m 514 400 q 449 504 499 467 q 338 542 399 542 q 274 531 306 542 q 217 499 243 521 q 170 442 190 476 q 139 360 150 407 l 478 360 q 508 371 497 360 q 514 400 518 382 z "},"Ě":{"ha":678,"x_min":28,"x_max":650,"o":"m 411 899 l 267 899 l 122 1118 l 143 1118 l 339 958 l 535 1118 l 556 1118 l 411 899 m 189 435 l 426 435 q 476 449 458 435 q 508 483 493 464 l 515 483 l 515 365 l 508 365 q 476 399 493 385 q 426 414 458 414 l 189 414 l 189 76 q 204 36 189 51 q 244 21 219 21 l 554 21 q 607 35 586 21 q 643 69 628 50 l 650 69 l 629 0 l 28 0 l 28 7 q 63 47 47 22 q 78 96 78 71 l 78 750 q 63 799 78 775 q 28 839 47 824 l 28 846 l 629 846 l 650 776 l 643 776 q 607 810 628 796 q 554 825 586 825 l 244 825 q 204 810 219 825 q 189 769 189 794 l 189 435 z "},"ě":{"ha":563,"x_min":21,"x_max":542,"o":"m 354 626 l 210 626 l 65 846 l 86 846 l 282 686 l 478 846 l 499 846 l 354 626 m 338 0 q 401 10 369 0 q 460 42 433 21 q 508 96 488 64 q 542 169 529 128 l 542 58 q 452 1 510 22 q 331 -21 394 -21 q 219 -4 275 -21 q 120 48 164 13 q 49 139 76 83 q 21 272 21 194 q 46 403 21 347 q 112 496 71 460 q 203 550 153 532 q 306 568 254 568 q 477 510 413 568 q 542 339 542 451 l 136 339 q 132 307 133 324 q 131 272 131 290 q 148 153 131 204 q 194 67 165 101 q 261 17 224 33 q 338 0 299 0 m 514 400 q 449 504 499 467 q 338 542 399 542 q 274 531 306 542 q 217 499 243 521 q 170 442 190 476 q 139 360 150 407 l 478 360 q 508 371 497 360 q 514 400 518 382 z "},"Ĝ":{"ha":869,"x_min":21,"x_max":842,"o":"m 363 1118 l 507 1118 l 651 899 l 631 899 l 435 1058 l 239 899 l 218 899 l 363 1118 m 461 -21 q 280 11 361 -21 q 141 101 199 43 q 52 242 83 160 q 21 424 21 324 q 52 605 21 524 q 141 744 83 686 q 280 835 199 803 q 461 867 361 867 q 544 858 506 867 q 614 836 583 849 q 667 809 644 824 q 700 783 689 794 l 700 672 q 667 733 688 701 q 617 789 646 764 q 549 830 588 814 q 461 846 510 846 q 326 815 386 846 q 222 729 265 785 q 156 596 179 674 q 132 424 132 518 q 156 250 132 328 q 222 117 179 172 q 326 31 265 61 q 461 0 386 0 q 535 12 501 0 q 597 42 569 24 q 644 85 624 61 q 681 135 665 110 l 681 328 q 665 377 681 353 q 631 417 650 401 l 631 424 l 842 424 l 842 417 q 807 377 822 401 q 792 328 792 353 l 792 0 l 681 57 q 643 32 665 46 q 593 6 621 18 q 532 -13 565 -6 q 461 -21 499 -21 z "},"ĝ":{"ha":619,"x_min":22,"x_max":599,"o":"m 599 -214 q 573 -324 599 -278 q 506 -399 547 -369 q 411 -444 464 -429 q 304 -458 358 -458 q 202 -446 253 -458 q 112 -410 151 -433 q 48 -352 72 -386 q 22 -275 24 -318 q 28 -232 22 -253 q 44 -194 33 -211 q 69 -168 54 -178 q 101 -158 83 -158 q 113 -168 117 -158 q 100 -244 100 -210 q 119 -327 100 -292 q 172 -387 139 -362 q 244 -423 204 -411 q 326 -435 285 -435 q 408 -424 368 -435 q 480 -390 449 -412 q 530 -333 511 -367 q 549 -254 549 -300 q 524 -176 549 -206 q 436 -136 499 -147 q 361 -128 404 -131 q 272 -122 318 -125 q 183 -110 226 -118 q 104 -87 139 -103 q 49 -44 69 -71 q 28 25 28 -17 q 41 72 28 51 q 75 107 54 92 q 121 133 96 122 q 171 151 146 144 q 67 226 106 175 q 28 350 28 278 q 46 439 28 399 q 97 508 64 479 q 174 552 129 536 q 274 568 219 568 q 410 596 353 568 q 500 683 468 624 l 310 839 l 114 679 l 93 679 l 238 899 l 382 899 l 510 706 q 513 715 513 711 q 517 725 514 719 l 517 694 l 526 679 l 517 679 l 517 614 q 452 579 490 594 q 364 554 414 564 q 476 478 435 532 q 517 350 517 425 q 499 262 517 301 q 449 194 481 222 q 372 150 417 165 q 274 135 328 135 q 241 136 257 135 q 210 140 225 138 q 153 118 179 133 q 128 63 128 103 q 161 10 128 26 q 244 -11 194 -6 q 351 -17 294 -17 q 456 -26 408 -18 q 561 -88 524 -37 q 599 -214 599 -139 m 274 156 q 372 207 339 156 q 406 350 406 258 q 372 494 406 442 q 274 547 339 547 q 173 494 207 547 q 139 350 139 442 q 173 207 139 258 q 274 156 207 156 z "},"Ğ":{"ha":869,"x_min":21,"x_max":842,"o":"m 631 1040 l 651 1040 l 547 938 q 503 909 529 919 q 451 899 476 899 l 418 899 q 367 909 393 899 q 322 938 340 919 l 218 1040 l 239 1040 l 349 982 q 435 961 389 961 q 521 982 483 961 l 631 1040 m 461 -21 q 280 11 361 -21 q 141 101 199 43 q 52 242 83 160 q 21 424 21 324 q 52 605 21 524 q 141 744 83 686 q 280 835 199 803 q 461 867 361 867 q 544 858 506 867 q 614 836 583 849 q 667 809 644 824 q 700 783 689 794 l 700 672 q 667 733 688 701 q 617 789 646 764 q 549 830 588 814 q 461 846 510 846 q 326 815 386 846 q 222 729 265 785 q 156 596 179 674 q 132 424 132 518 q 156 250 132 328 q 222 117 179 172 q 326 31 265 61 q 461 0 386 0 q 535 12 501 0 q 597 42 569 24 q 644 85 624 61 q 681 135 665 110 l 681 328 q 665 377 681 353 q 631 417 650 401 l 631 424 l 842 424 l 842 417 q 807 377 822 401 q 792 328 792 353 l 792 0 l 681 57 q 643 32 665 46 q 593 6 621 18 q 532 -13 565 -6 q 461 -21 499 -21 z "},"ğ":{"ha":619,"x_min":22,"x_max":599,"o":"m 506 846 l 526 846 l 422 743 q 378 715 404 725 q 326 704 351 704 l 293 704 q 242 715 268 704 q 197 743 215 725 l 93 846 l 114 846 l 224 788 q 310 767 264 767 q 396 788 358 767 l 506 846 m 599 -214 q 573 -324 599 -278 q 506 -399 547 -369 q 411 -444 464 -429 q 304 -458 358 -458 q 202 -446 253 -458 q 112 -410 151 -433 q 48 -352 72 -386 q 22 -275 24 -318 q 28 -232 22 -253 q 44 -194 33 -211 q 69 -168 54 -178 q 101 -158 83 -158 q 113 -168 117 -158 q 100 -244 100 -210 q 119 -327 100 -292 q 172 -387 139 -362 q 244 -423 204 -411 q 326 -435 285 -435 q 408 -424 368 -435 q 480 -390 449 -412 q 530 -333 511 -367 q 549 -254 549 -300 q 524 -176 549 -206 q 436 -136 499 -147 q 361 -128 404 -131 q 272 -122 318 -125 q 183 -110 226 -118 q 104 -87 139 -103 q 49 -44 69 -71 q 28 25 28 -17 q 41 72 28 51 q 75 107 54 92 q 121 133 96 122 q 171 151 146 144 q 67 226 106 175 q 28 350 28 278 q 46 439 28 399 q 97 508 64 479 q 174 552 129 536 q 274 568 219 568 q 428 606 365 568 q 517 725 492 644 l 517 614 q 452 579 490 594 q 364 554 414 564 q 476 478 435 532 q 517 350 517 425 q 499 262 517 301 q 449 194 481 222 q 372 150 417 165 q 274 135 328 135 q 241 136 257 135 q 210 140 225 138 q 153 118 179 133 q 128 63 128 103 q 161 10 128 26 q 244 -11 194 -6 q 351 -17 294 -17 q 456 -26 408 -18 q 561 -88 524 -37 q 599 -214 599 -139 m 274 156 q 372 207 339 156 q 406 350 406 258 q 372 494 406 442 q 274 547 339 547 q 173 494 207 547 q 139 350 139 442 q 173 207 139 258 q 274 156 207 156 z "},"Ġ":{"ha":869,"x_min":21,"x_max":842,"o":"m 406 954 q 421 994 406 979 q 461 1010 436 1010 q 501 994 486 1010 q 517 954 517 979 q 501 914 517 929 q 461 899 486 899 q 421 914 436 899 q 406 954 406 929 m 461 -21 q 280 11 361 -21 q 141 101 199 43 q 52 242 83 160 q 21 424 21 324 q 52 605 21 524 q 141 744 83 686 q 280 835 199 803 q 461 867 361 867 q 544 858 506 867 q 614 836 583 849 q 667 809 644 824 q 700 783 689 794 l 700 672 q 667 733 688 701 q 617 789 646 764 q 549 830 588 814 q 461 846 510 846 q 326 815 386 846 q 222 729 265 785 q 156 596 179 674 q 132 424 132 518 q 156 250 132 328 q 222 117 179 172 q 326 31 265 61 q 461 0 386 0 q 535 12 501 0 q 597 42 569 24 q 644 85 624 61 q 681 135 665 110 l 681 328 q 665 377 681 353 q 631 417 650 401 l 631 424 l 842 424 l 842 417 q 807 377 822 401 q 792 328 792 353 l 792 0 l 681 57 q 643 32 665 46 q 593 6 621 18 q 532 -13 565 -6 q 461 -21 499 -21 z "},"ġ":{"ha":619,"x_min":22,"x_max":599,"o":"m 254 790 q 269 831 254 815 q 310 846 285 846 q 350 831 335 846 q 365 790 365 815 q 350 750 365 765 q 310 735 335 735 q 269 750 285 735 q 254 790 254 765 m 599 -214 q 573 -324 599 -278 q 506 -399 547 -369 q 411 -444 464 -429 q 304 -458 358 -458 q 202 -446 253 -458 q 112 -410 151 -433 q 48 -352 72 -386 q 22 -275 24 -318 q 28 -232 22 -253 q 44 -194 33 -211 q 69 -168 54 -178 q 101 -158 83 -158 q 113 -168 117 -158 q 100 -244 100 -210 q 119 -327 100 -292 q 172 -387 139 -362 q 244 -423 204 -411 q 326 -435 285 -435 q 408 -424 368 -435 q 480 -390 449 -412 q 530 -333 511 -367 q 549 -254 549 -300 q 524 -176 549 -206 q 436 -136 499 -147 q 361 -128 404 -131 q 272 -122 318 -125 q 183 -110 226 -118 q 104 -87 139 -103 q 49 -44 69 -71 q 28 25 28 -17 q 41 72 28 51 q 75 107 54 92 q 121 133 96 122 q 171 151 146 144 q 67 226 106 175 q 28 350 28 278 q 46 439 28 399 q 97 508 64 479 q 174 552 129 536 q 274 568 219 568 q 428 606 365 568 q 517 725 492 644 l 517 614 q 452 579 490 594 q 364 554 414 564 q 476 478 435 532 q 517 350 517 425 q 499 262 517 301 q 449 194 481 222 q 372 150 417 165 q 274 135 328 135 q 241 136 257 135 q 210 140 225 138 q 153 118 179 133 q 128 63 128 103 q 161 10 128 26 q 244 -11 194 -6 q 351 -17 294 -17 q 456 -26 408 -18 q 561 -88 524 -37 q 599 -214 599 -139 m 274 156 q 372 207 339 156 q 406 350 406 258 q 372 494 406 442 q 274 547 339 547 q 173 494 207 547 q 139 350 139 442 q 173 207 139 258 q 274 156 207 156 z "},"Ģ":{"ha":869,"x_min":21,"x_max":842,"o":"m 461 -21 q 280 11 361 -21 q 141 101 199 43 q 52 242 83 160 q 21 424 21 324 q 52 605 21 524 q 141 744 83 686 q 280 835 199 803 q 461 867 361 867 q 544 858 506 867 q 614 836 583 849 q 667 809 644 824 q 700 783 689 794 l 700 672 q 667 733 688 701 q 617 789 646 764 q 549 830 588 814 q 461 846 510 846 q 326 815 386 846 q 222 729 265 785 q 156 596 179 674 q 132 424 132 518 q 156 250 132 328 q 222 117 179 172 q 326 31 265 61 q 461 0 386 0 q 535 12 501 0 q 597 42 569 24 q 644 85 624 61 q 681 135 665 110 l 681 328 q 665 377 681 353 q 631 417 650 401 l 631 424 l 842 424 l 842 417 q 807 377 822 401 q 792 328 792 353 l 792 0 l 681 57 q 643 32 665 46 q 593 6 621 18 q 532 -13 565 -6 q 461 -21 499 -21 m 422 -254 l 404 -243 l 463 -89 l 556 -151 l 422 -254 z "},"ģ":{"ha":619,"x_min":22,"x_max":599,"o":"m 235 692 l 293 846 l 386 783 l 253 681 l 235 692 m 599 -214 q 573 -324 599 -278 q 506 -399 547 -369 q 411 -444 464 -429 q 304 -458 358 -458 q 202 -446 253 -458 q 112 -410 151 -433 q 48 -352 72 -386 q 22 -275 24 -318 q 28 -232 22 -253 q 44 -194 33 -211 q 69 -168 54 -178 q 101 -158 83 -158 q 113 -168 117 -158 q 100 -244 100 -210 q 119 -327 100 -292 q 172 -387 139 -362 q 244 -423 204 -411 q 326 -435 285 -435 q 408 -424 368 -435 q 480 -390 449 -412 q 530 -333 511 -367 q 549 -254 549 -300 q 524 -176 549 -206 q 436 -136 499 -147 q 361 -128 404 -131 q 272 -122 318 -125 q 183 -110 226 -118 q 104 -87 139 -103 q 49 -44 69 -71 q 28 25 28 -17 q 41 72 28 51 q 75 107 54 92 q 121 133 96 122 q 171 151 146 144 q 67 226 106 175 q 28 350 28 278 q 46 439 28 399 q 97 508 64 479 q 174 552 129 536 q 274 568 219 568 q 428 606 365 568 q 517 725 492 644 l 517 614 q 452 579 490 594 q 364 554 414 564 q 476 478 435 532 q 517 350 517 425 q 499 262 517 301 q 449 194 481 222 q 372 150 417 165 q 274 135 328 135 q 241 136 257 135 q 210 140 225 138 q 153 118 179 133 q 128 63 128 103 q 161 10 128 26 q 244 -11 194 -6 q 351 -17 294 -17 q 456 -26 408 -18 q 561 -88 524 -37 q 599 -214 599 -139 m 274 156 q 372 207 339 156 q 406 350 406 258 q 372 494 406 442 q 274 547 339 547 q 173 494 207 547 q 139 350 139 442 q 173 207 139 258 q 274 156 207 156 z "},"Ĥ":{"ha":824,"x_min":28,"x_max":796,"o":"m 340 1118 l 485 1118 l 629 899 l 608 899 l 413 1058 l 217 899 l 196 899 l 340 1118 m 239 846 l 239 839 q 204 799 219 824 q 189 750 189 775 l 189 436 l 635 436 l 635 750 q 619 799 635 775 q 585 839 604 824 l 585 846 l 796 846 l 796 839 q 761 799 776 824 q 746 750 746 775 l 746 96 q 761 47 746 71 q 796 7 776 22 l 796 0 l 585 0 l 585 7 q 619 47 604 22 q 635 96 635 71 l 635 415 l 189 415 l 189 96 q 204 47 189 71 q 239 7 219 22 l 239 0 l 28 0 l 28 7 q 63 47 47 22 q 78 96 78 71 l 78 750 q 63 799 78 775 q 28 839 47 824 l 28 846 l 239 846 z "},"ĥ":{"ha":654,"x_min":28,"x_max":626,"o":"m 28 7 q 63 47 47 22 q 78 96 78 71 l 78 750 q 63 799 78 775 q 28 839 47 824 l 28 846 l 189 867 l 189 489 q 271 549 225 531 q 364 568 317 568 q 444 555 406 568 q 513 517 483 542 q 559 460 542 493 q 576 389 576 428 l 576 96 q 592 47 576 71 q 626 7 607 22 l 626 0 l 415 0 l 415 7 q 450 47 435 22 q 465 96 465 71 l 465 401 q 454 459 465 433 q 424 503 443 485 q 381 530 406 521 q 329 539 356 539 q 255 517 293 539 q 189 456 217 496 l 189 96 q 204 47 189 71 q 239 7 219 22 l 239 0 l 28 0 l 28 7 m 349 799 q 328 807 340 807 q 307 799 318 807 l 244 744 l 224 744 l 290 846 l 368 846 l 435 744 l 414 744 l 349 799 z "},"Ħ":{"ha":824,"x_min":28,"x_max":796,"o":"m 621 899 l 204 899 l 204 954 l 621 954 l 621 899 m 239 846 l 239 839 q 204 799 219 824 q 189 750 189 775 l 189 436 l 635 436 l 635 750 q 619 799 635 775 q 585 839 604 824 l 585 846 l 796 846 l 796 839 q 761 799 776 824 q 746 750 746 775 l 746 96 q 761 47 746 71 q 796 7 776 22 l 796 0 l 585 0 l 585 7 q 619 47 604 22 q 635 96 635 71 l 635 415 l 189 415 l 189 96 q 204 47 189 71 q 239 7 219 22 l 239 0 l 28 0 l 28 7 q 63 47 47 22 q 78 96 78 71 l 78 750 q 63 799 78 775 q 28 839 47 824 l 28 846 l 239 846 z "},"ħ":{"ha":654,"x_min":28,"x_max":626,"o":"m 536 899 l 119 899 l 119 954 l 536 954 l 536 899 m 28 7 q 63 47 47 22 q 78 96 78 71 l 78 750 q 63 799 78 775 q 28 839 47 824 l 28 846 l 189 867 l 189 489 q 271 549 225 531 q 364 568 317 568 q 444 555 406 568 q 513 517 483 542 q 559 460 542 493 q 576 389 576 428 l 576 96 q 592 47 576 71 q 626 7 607 22 l 626 0 l 415 0 l 415 7 q 450 47 435 22 q 465 96 465 71 l 465 401 q 454 459 465 433 q 424 503 443 485 q 381 530 406 521 q 329 539 356 539 q 255 517 293 539 q 189 456 217 496 l 189 96 q 204 47 189 71 q 239 7 219 22 l 239 0 l 28 0 l 28 7 z "},"Ĩ":{"ha":322,"x_min":28,"x_max":294,"o":"m 28 899 q 62 952 42 939 q 107 965 82 965 q 138 963 122 965 q 168 957 153 960 q 204 950 188 954 q 236 946 221 946 q 265 952 253 946 q 283 976 276 958 l 294 976 q 260 921 281 935 q 213 907 239 907 q 158 914 189 907 q 120 922 139 918 q 85 925 101 925 q 56 919 68 925 q 39 899 44 914 l 28 899 m 265 846 l 265 839 q 231 799 246 824 q 215 750 215 775 l 215 96 q 231 47 215 71 q 265 7 246 22 l 265 0 l 54 0 l 54 7 q 89 47 74 22 q 104 96 104 71 l 104 750 q 89 799 104 775 q 54 839 74 824 l 54 846 l 265 846 z "},"ĩ":{"ha":322,"x_min":28,"x_max":294,"o":"m 28 768 q 62 822 42 808 q 107 835 82 835 q 138 832 122 835 q 168 826 153 829 q 204 819 188 824 q 236 815 221 815 q 265 822 253 815 q 283 846 276 828 l 294 846 q 260 790 281 804 q 213 776 239 776 q 158 783 189 776 q 120 791 139 788 q 85 794 101 794 q 56 789 68 794 q 39 768 44 783 l 28 768 m 215 568 l 215 96 q 231 47 215 71 q 265 7 246 22 l 265 0 l 54 0 l 54 7 q 89 47 74 22 q 104 96 104 71 l 104 451 q 89 501 104 476 q 54 540 74 525 l 54 547 l 215 568 z "},"Ī":{"ha":267,"x_min":28,"x_max":239,"o":"m 239 899 l 28 899 l 28 954 l 239 954 l 239 899 m 239 846 l 239 839 q 204 799 219 824 q 189 750 189 775 l 189 96 q 204 47 189 71 q 239 7 219 22 l 239 0 l 28 0 l 28 7 q 63 47 47 22 q 78 96 78 71 l 78 750 q 63 799 78 775 q 28 839 47 824 l 28 846 l 239 846 z "},"ī":{"ha":267,"x_min":28,"x_max":239,"o":"m 189 790 l 28 790 l 28 846 l 189 846 l 189 790 m 189 568 l 189 96 q 204 47 189 71 q 239 7 219 22 l 239 0 l 28 0 l 28 7 q 63 47 47 22 q 78 96 78 71 l 78 451 q 63 501 78 476 q 28 540 47 525 l 28 547 l 189 568 z "},"Į":{"ha":344,"x_min":28,"x_max":317,"o":"m 239 846 l 239 839 q 204 799 219 824 q 189 750 189 775 l 189 96 q 204 47 189 71 q 239 7 219 22 l 239 0 l 139 0 q 149 -120 139 -79 q 204 -161 160 -161 q 262 -128 239 -161 q 317 -31 285 -94 l 317 -142 q 263 -172 293 -161 q 201 -182 233 -182 q 138 -174 169 -182 q 83 -145 107 -165 q 43 -90 58 -125 q 28 0 28 -54 l 28 7 q 63 47 47 22 q 78 96 78 71 l 78 750 q 63 799 78 775 q 28 839 47 824 l 28 846 l 239 846 z "},"į":{"ha":344,"x_min":28,"x_max":317,"o":"m 78 706 q 93 746 78 731 q 133 761 108 761 q 174 746 158 761 q 189 706 189 731 q 174 665 189 681 q 133 650 158 650 q 93 665 108 650 q 78 706 78 681 m 189 568 l 189 96 q 204 47 189 71 q 239 7 219 22 l 239 0 l 139 0 q 149 -120 139 -79 q 204 -161 160 -161 q 262 -128 239 -161 q 317 -31 285 -94 l 317 -142 q 263 -172 293 -161 q 201 -182 233 -182 q 138 -174 169 -182 q 83 -145 107 -165 q 43 -90 58 -125 q 28 0 28 -54 l 28 7 q 63 47 47 22 q 78 96 78 71 l 78 451 q 63 501 78 476 q 28 540 47 525 l 28 547 l 189 568 z "},"İ":{"ha":267,"x_min":28,"x_max":239,"o":"m 78 954 q 93 994 78 979 q 133 1010 108 1010 q 174 994 158 1010 q 189 954 189 979 q 174 914 189 929 q 133 899 158 899 q 93 914 108 899 q 78 954 78 929 m 239 846 l 239 839 q 204 799 219 824 q 189 750 189 775 l 189 96 q 204 47 189 71 q 239 7 219 22 l 239 0 l 28 0 l 28 7 q 63 47 47 22 q 78 96 78 71 l 78 750 q 63 799 78 775 q 28 839 47 824 l 28 846 l 239 846 z "},"ı":{"ha":267,"x_min":28,"x_max":239,"o":"m 78 706 q 93 746 78 731 q 133 761 108 761 q 174 746 158 761 q 189 706 189 731 q 174 665 189 681 q 133 650 158 650 q 93 665 108 650 q 78 706 78 681 m 189 568 l 189 96 q 204 47 189 71 q 239 7 219 22 l 239 0 l 28 0 l 28 7 q 63 47 47 22 q 78 96 78 71 l 78 451 q 63 501 78 476 q 28 540 47 525 l 28 547 l 189 568 z "},"Ĳ":{"ha":533,"x_min":28,"x_max":506,"o":"m 267 839 q 210 810 232 839 q 189 750 189 782 l 189 96 q 204 47 189 71 q 239 7 219 22 l 239 0 l 28 0 l 28 7 q 63 47 47 22 q 78 96 78 71 l 78 750 q 63 799 78 775 q 28 839 47 824 l 28 846 l 506 846 l 506 839 q 471 799 486 824 q 456 750 456 775 l 456 144 q 439 27 456 74 q 395 -47 422 -19 q 335 -85 368 -74 q 268 -96 301 -96 q 220 -90 243 -96 q 178 -78 197 -85 l 178 -57 q 238 -72 208 -72 q 313 -40 281 -72 q 344 56 344 -8 l 344 750 q 324 810 344 782 q 268 839 303 839 l 267 839 z "},"ĳ":{"ha":451,"x_min":28,"x_max":424,"o":"m 78 706 q 93 746 78 731 q 133 761 108 761 q 174 746 158 761 q 189 706 189 731 q 174 665 189 681 q 133 650 158 650 q 93 665 108 650 q 78 706 78 681 m 313 706 q 328 746 313 731 q 368 761 343 761 q 408 746 393 761 q 424 706 424 731 q 408 665 424 681 q 368 650 393 650 q 328 665 343 650 q 313 706 313 681 m 189 568 l 189 96 q 204 47 189 71 q 239 7 219 22 l 239 0 l 28 0 l 28 7 q 63 47 47 22 q 78 96 78 71 l 78 451 q 63 501 78 476 q 28 540 47 525 l 28 547 l 189 568 m 422 -90 q 407 -184 422 -144 q 367 -249 392 -224 q 312 -286 343 -274 q 249 -299 281 -299 q 187 -288 217 -299 q 133 -258 157 -278 l 133 -147 q 188 -244 165 -211 q 246 -278 211 -278 q 294 -255 276 -278 q 311 -190 311 -232 l 313 451 q 297 501 313 476 q 263 540 282 525 l 263 547 l 424 568 l 422 -90 z "},"Ĵ":{"ha":267,"x_min":-89,"x_max":239,"o":"m 153 949 q 132 957 144 957 q 111 949 122 957 l 49 894 l 28 894 l 94 996 l 172 996 l 239 894 l 218 894 l 153 949 m 78 750 q 63 799 78 775 q 28 839 47 824 l 28 846 l 239 846 l 239 839 q 204 799 219 824 q 189 750 189 775 l 189 144 q 172 27 189 74 q 128 -47 156 -19 q 68 -85 101 -74 q 1 -96 35 -96 q -47 -90 -24 -96 q -89 -78 -69 -85 l -89 -57 q -29 -72 -58 -72 q 46 -40 14 -72 q 78 56 78 -8 l 78 750 z "},"ĵ":{"ha":217,"x_min":-101,"x_max":211,"o":"m 125 799 q 104 807 117 807 q 83 799 94 807 l 21 744 l 0 744 l 67 846 l 144 846 l 211 744 l 190 744 l 125 799 m 188 -90 q 172 -184 188 -144 q 133 -249 157 -224 q 77 -286 108 -274 q 14 -299 46 -299 q -48 -288 -18 -299 q -101 -258 -78 -278 l -101 -147 q -47 -244 -69 -211 q 11 -278 -24 -278 q 59 -255 42 -278 q 76 -190 76 -232 l 78 451 q 63 501 78 476 q 28 540 47 525 l 28 547 l 189 568 l 188 -90 z "},"Ķ":{"ha":781,"x_min":28,"x_max":753,"o":"m 239 846 l 239 839 q 204 799 219 824 q 189 750 189 775 l 189 96 q 204 47 189 71 q 239 7 219 22 l 239 0 l 28 0 l 28 7 q 63 47 47 22 q 78 96 78 71 l 78 750 q 63 799 78 775 q 28 839 47 824 l 28 846 l 239 846 m 207 413 q 207 435 199 424 l 519 779 q 533 810 531 793 q 528 839 536 826 l 528 846 l 629 846 l 629 840 q 587 819 608 839 q 547 779 565 799 l 311 519 q 298 493 300 508 q 307 467 296 478 l 671 67 q 708 29 688 47 q 753 6 729 11 l 753 0 l 531 0 l 531 7 q 521 67 547 32 l 207 413 m 315 -239 l 374 -85 l 467 -147 l 333 -250 l 315 -239 z "},"ķ":{"ha":622,"x_min":28,"x_max":594,"o":"m 189 867 l 189 96 q 204 47 189 71 q 239 7 219 22 l 239 0 l 28 0 l 28 7 q 63 47 47 22 q 78 96 78 71 l 78 750 q 63 799 78 775 q 28 839 47 824 l 28 846 l 189 867 m 204 263 q 204 285 196 274 l 382 481 q 396 511 393 494 q 390 540 399 528 l 390 547 l 492 547 l 492 542 q 449 520 471 540 q 410 481 428 500 l 297 357 q 286 331 286 346 q 297 304 286 315 l 513 67 q 550 29 529 47 q 594 6 571 11 l 594 0 l 392 0 l 392 7 q 382 67 408 32 l 204 263 m 236 -239 l 294 -85 l 388 -147 l 254 -250 l 236 -239 z "},"ĸ":{"ha":622,"x_min":28,"x_max":594,"o":"m 189 867 l 189 96 q 204 47 189 71 q 239 7 219 22 l 239 0 l 28 0 l 28 7 q 63 47 47 22 q 78 96 78 71 l 78 750 q 63 799 78 775 q 28 839 47 824 l 28 846 l 189 867 m 204 263 q 204 285 196 274 l 382 481 q 396 511 393 494 q 390 540 399 528 l 390 547 l 492 547 l 492 542 q 449 520 471 540 q 410 481 428 500 l 297 357 q 286 331 286 346 q 297 304 286 315 l 513 67 q 550 29 529 47 q 594 6 571 11 l 594 0 l 392 0 l 392 7 q 382 67 408 32 l 204 263 z "},"Ĺ":{"ha":707,"x_min":28,"x_max":679,"o":"m 350 894 l 382 1060 l 493 1060 l 371 894 l 350 894 m 189 76 q 204 36 189 51 q 244 21 219 21 l 583 21 q 636 35 615 21 q 672 69 657 50 l 679 69 l 658 0 l 28 0 l 28 7 q 63 47 47 22 q 78 96 78 71 l 78 750 q 63 799 78 775 q 28 839 47 824 l 28 846 l 239 846 l 239 839 q 204 799 219 824 q 189 750 189 775 l 189 76 z "},"ĺ":{"ha":267,"x_min":28,"x_max":239,"o":"m 63 894 l 94 1060 l 206 1060 l 83 894 l 63 894 m 189 867 l 189 96 q 204 47 189 71 q 239 7 219 22 l 239 0 l 28 0 l 28 7 q 63 47 47 22 q 78 96 78 71 l 78 750 q 63 799 78 775 q 28 839 47 824 l 28 846 l 189 867 z "},"Ļ":{"ha":707,"x_min":28,"x_max":679,"o":"m 189 76 q 204 36 189 51 q 244 21 219 21 l 583 21 q 636 35 615 21 q 672 69 657 50 l 679 69 l 658 0 l 28 0 l 28 7 q 63 47 47 22 q 78 96 78 71 l 78 750 q 63 799 78 775 q 28 839 47 824 l 28 846 l 239 846 l 239 839 q 204 799 219 824 q 189 750 189 775 l 189 76 m 278 -239 l 336 -85 l 429 -147 l 296 -250 l 278 -239 z "},"ļ":{"ha":267,"x_min":28,"x_max":239,"o":"m 189 867 l 189 96 q 204 47 189 71 q 239 7 219 22 l 239 0 l 28 0 l 28 7 q 63 47 47 22 q 78 96 78 71 l 78 750 q 63 799 78 775 q 28 839 47 824 l 28 846 l 189 867 m 58 -239 l 117 -85 l 210 -147 l 76 -250 l 58 -239 z "},"Ľ":{"ha":707,"x_min":28,"x_max":679,"o":"m 343 904 l 401 1058 l 494 996 l 361 893 l 343 904 m 189 76 q 204 36 189 51 q 244 21 219 21 l 583 21 q 636 35 615 21 q 672 69 657 50 l 679 69 l 658 0 l 28 0 l 28 7 q 63 47 47 22 q 78 96 78 71 l 78 750 q 63 799 78 775 q 28 839 47 824 l 28 846 l 239 846 l 239 839 q 204 799 219 824 q 189 750 189 775 l 189 76 z "},"ľ":{"ha":267,"x_min":28,"x_max":239,"o":"m 60 906 l 118 1060 l 211 997 l 78 894 l 60 906 m 189 867 l 189 96 q 204 47 189 71 q 239 7 219 22 l 239 0 l 28 0 l 28 7 q 63 47 47 22 q 78 96 78 71 l 78 750 q 63 799 78 775 q 28 839 47 824 l 28 846 l 189 867 z "},"Ŀ":{"ha":707,"x_min":28,"x_max":679,"o":"m 189 76 q 204 36 189 51 q 244 21 219 21 l 583 21 q 636 35 615 21 q 672 69 657 50 l 679 69 l 658 0 l 28 0 l 28 7 q 63 47 47 22 q 78 96 78 71 l 78 750 q 63 799 78 775 q 28 839 47 824 l 28 846 l 239 846 l 239 839 q 204 799 219 824 q 189 750 189 775 l 189 76 m 438 464 q 415 403 438 426 q 354 381 392 381 q 294 403 317 381 q 271 464 271 426 q 294 524 271 501 q 354 547 317 547 q 415 524 392 547 q 438 464 438 501 z "},"ŀ":{"ha":419,"x_min":28,"x_max":392,"o":"m 189 867 l 189 96 q 204 47 189 71 q 239 7 219 22 l 239 0 l 28 0 l 28 7 q 63 47 47 22 q 78 96 78 71 l 78 750 q 63 799 78 775 q 28 839 47 824 l 28 846 l 189 867 m 392 464 q 369 403 392 426 q 308 381 346 381 q 248 403 271 381 q 225 464 225 426 q 248 524 225 501 q 308 547 271 547 q 369 524 346 547 q 392 464 392 501 z "},"Ł":{"ha":729,"x_min":28,"x_max":701,"o":"m 211 76 q 226 36 211 51 q 267 21 242 21 l 606 21 q 658 35 638 21 q 694 69 679 50 l 701 69 l 681 0 l 50 0 l 50 7 q 85 47 69 22 q 100 96 100 71 l 100 365 l 50 343 l 28 394 l 100 426 l 100 750 q 85 799 100 775 q 50 839 69 824 l 50 846 l 261 846 l 261 839 q 226 799 242 824 q 211 750 211 775 l 211 476 l 310 521 l 332 469 l 211 415 l 211 76 z "},"ł":{"ha":365,"x_min":28,"x_max":338,"o":"m 239 867 l 239 433 l 338 433 l 338 378 l 239 378 l 239 96 q 254 47 239 71 q 289 7 269 22 l 289 0 l 78 0 l 78 7 q 113 47 97 22 q 128 96 128 71 l 128 378 l 28 378 l 28 433 l 128 433 l 128 750 q 113 799 128 775 q 78 839 97 824 l 78 846 l 239 867 z "},"Ń":{"ha":932,"x_min":28,"x_max":904,"o":"m 476 894 l 508 1060 l 619 1060 l 497 894 l 476 894 m 833 0 l 158 726 l 158 96 q 174 47 158 71 q 208 7 189 22 l 208 0 l 88 0 l 88 7 q 122 47 107 22 q 138 96 138 71 l 138 749 l 110 779 q 67 822 86 804 q 28 840 47 839 l 28 846 l 200 846 l 833 163 l 833 750 q 818 799 833 775 q 783 839 803 824 l 783 846 l 904 846 l 904 839 q 869 799 885 824 q 854 750 854 775 l 854 0 l 833 0 z "},"ń":{"ha":654,"x_min":28,"x_max":626,"o":"m 293 681 l 325 846 l 436 846 l 314 681 l 293 681 m 415 7 q 450 47 435 22 q 465 96 465 71 l 465 401 q 454 459 465 433 q 424 503 443 485 q 381 530 406 521 q 329 539 356 539 q 255 517 293 539 q 189 456 217 496 l 189 96 q 204 47 189 71 q 239 7 219 22 l 239 0 l 28 0 l 28 7 q 63 47 47 22 q 78 96 78 71 l 78 451 q 63 501 78 476 q 28 540 47 525 l 28 547 l 189 568 l 189 489 q 271 549 225 531 q 364 568 317 568 q 444 555 406 568 q 513 517 483 542 q 559 460 542 493 q 576 389 576 428 l 576 96 q 592 47 576 71 q 626 7 607 22 l 626 0 l 415 0 l 415 7 z "},"Ņ":{"ha":932,"x_min":28,"x_max":904,"o":"m 833 0 l 158 726 l 158 96 q 174 47 158 71 q 208 7 189 22 l 208 0 l 88 0 l 88 7 q 122 47 107 22 q 138 96 138 71 l 138 749 l 110 779 q 67 822 86 804 q 28 840 47 839 l 28 846 l 200 846 l 833 163 l 833 750 q 818 799 833 775 q 783 839 803 824 l 783 846 l 904 846 l 904 839 q 869 799 885 824 q 854 750 854 775 l 854 0 l 833 0 m 390 -239 l 449 -85 l 542 -147 l 408 -250 l 390 -239 z "},"ņ":{"ha":654,"x_min":28,"x_max":626,"o":"m 415 7 q 450 47 435 22 q 465 96 465 71 l 465 401 q 454 459 465 433 q 424 503 443 485 q 381 530 406 521 q 329 539 356 539 q 255 517 293 539 q 189 456 217 496 l 189 96 q 204 47 189 71 q 239 7 219 22 l 239 0 l 28 0 l 28 7 q 63 47 47 22 q 78 96 78 71 l 78 451 q 63 501 78 476 q 28 540 47 525 l 28 547 l 189 568 l 189 489 q 271 549 225 531 q 364 568 317 568 q 444 555 406 568 q 513 517 483 542 q 559 460 542 493 q 576 389 576 428 l 576 96 q 592 47 576 71 q 626 7 607 22 l 626 0 l 415 0 l 415 7 m 251 -239 l 310 -85 l 403 -147 l 269 -250 l 251 -239 z "},"Ň":{"ha":932,"x_min":28,"x_max":904,"o":"m 539 894 l 394 894 l 250 1114 l 271 1114 l 467 954 l 663 1114 l 683 1114 l 539 894 m 833 0 l 158 726 l 158 96 q 174 47 158 71 q 208 7 189 22 l 208 0 l 88 0 l 88 7 q 122 47 107 22 q 138 96 138 71 l 138 749 l 110 779 q 67 822 86 804 q 28 840 47 839 l 28 846 l 200 846 l 833 163 l 833 750 q 818 799 833 775 q 783 839 803 824 l 783 846 l 904 846 l 904 839 q 869 799 885 824 q 854 750 854 775 l 854 0 l 833 0 z "},"ň":{"ha":654,"x_min":28,"x_max":626,"o":"m 400 626 l 256 626 l 111 846 l 132 846 l 328 686 l 524 846 l 544 846 l 400 626 m 415 7 q 450 47 435 22 q 465 96 465 71 l 465 401 q 454 459 465 433 q 424 503 443 485 q 381 530 406 521 q 329 539 356 539 q 255 517 293 539 q 189 456 217 496 l 189 96 q 204 47 189 71 q 239 7 219 22 l 239 0 l 28 0 l 28 7 q 63 47 47 22 q 78 96 78 71 l 78 451 q 63 501 78 476 q 28 540 47 525 l 28 547 l 189 568 l 189 489 q 271 549 225 531 q 364 568 317 568 q 444 555 406 568 q 513 517 483 542 q 559 460 542 493 q 576 389 576 428 l 576 96 q 592 47 576 71 q 626 7 607 22 l 626 0 l 415 0 l 415 7 z "},"ŉ":{"ha":654,"x_min":28,"x_max":626,"o":"m 251 692 l 310 846 l 403 783 l 269 681 l 251 692 m 415 7 q 450 47 435 22 q 465 96 465 71 l 465 401 q 454 459 465 433 q 424 503 443 485 q 381 530 406 521 q 329 539 356 539 q 255 517 293 539 q 189 456 217 496 l 189 96 q 204 47 189 71 q 239 7 219 22 l 239 0 l 28 0 l 28 7 q 63 47 47 22 q 78 96 78 71 l 78 451 q 63 501 78 476 q 28 540 47 525 l 28 547 l 189 568 l 189 489 q 271 549 225 531 q 364 568 317 568 q 444 555 406 568 q 513 517 483 542 q 559 460 542 493 q 576 389 576 428 l 576 96 q 592 47 576 71 q 626 7 607 22 l 626 0 l 415 0 l 415 7 z "},"Ō":{"ha":922,"x_min":21,"x_max":901,"o":"m 669 896 l 253 896 l 253 953 l 669 953 l 669 896 m 21 424 q 52 605 21 524 q 141 744 83 686 q 280 835 199 803 q 461 867 361 867 q 642 835 561 867 q 781 744 724 803 q 870 605 839 686 q 901 424 901 524 q 870 242 901 324 q 781 101 839 160 q 642 11 724 43 q 461 -21 561 -21 q 280 11 361 -21 q 141 101 199 43 q 52 242 83 160 q 21 424 21 324 m 132 424 q 156 250 132 328 q 222 117 179 172 q 326 31 265 61 q 461 0 386 0 q 597 31 536 0 q 701 117 658 61 q 767 250 743 172 q 790 424 790 328 q 767 596 790 518 q 701 729 743 674 q 597 815 658 785 q 461 846 536 846 q 326 815 386 846 q 222 729 265 785 q 156 596 179 674 q 132 424 132 518 z "},"ō":{"ha":606,"x_min":21,"x_max":585,"o":"m 511 789 l 94 789 l 94 846 l 511 846 l 511 789 m 21 272 q 41 393 21 339 q 99 486 61 447 q 188 547 136 525 q 304 568 240 568 q 419 547 367 568 q 508 486 471 525 q 565 393 544 447 q 585 272 585 339 q 565 153 585 207 q 508 60 544 99 q 419 1 471 22 q 304 -21 367 -21 q 188 1 240 -21 q 99 60 136 22 q 41 153 61 99 q 21 272 21 207 m 132 272 q 144 160 132 211 q 178 74 156 110 q 233 19 201 39 q 304 0 265 0 q 428 74 382 0 q 474 272 474 149 q 462 385 474 335 q 428 472 450 436 q 374 528 406 508 q 304 547 343 547 q 233 528 265 547 q 178 472 201 508 q 144 385 156 436 q 132 272 132 335 z "},"Ŏ":{"ha":922,"x_min":21,"x_max":901,"o":"m 657 1036 l 678 1036 l 574 933 q 529 905 556 915 q 478 894 503 894 l 444 894 q 393 905 419 894 q 349 933 367 915 l 244 1036 l 265 1036 l 375 978 q 461 957 415 957 q 547 978 510 957 l 657 1036 m 21 424 q 52 605 21 524 q 141 744 83 686 q 280 835 199 803 q 461 867 361 867 q 642 835 561 867 q 781 744 724 803 q 870 605 839 686 q 901 424 901 524 q 870 242 901 324 q 781 101 839 160 q 642 11 724 43 q 461 -21 561 -21 q 280 11 361 -21 q 141 101 199 43 q 52 242 83 160 q 21 424 21 324 m 132 424 q 156 250 132 328 q 222 117 179 172 q 326 31 265 61 q 461 0 386 0 q 597 31 536 0 q 701 117 658 61 q 767 250 743 172 q 790 424 790 328 q 767 596 790 518 q 701 729 743 674 q 597 815 658 785 q 461 846 536 846 q 326 815 386 846 q 222 729 265 785 q 156 596 179 674 q 132 424 132 518 z "},"ŏ":{"ha":606,"x_min":21,"x_max":585,"o":"m 499 846 l 519 846 l 415 743 q 371 715 397 725 q 319 704 344 704 l 286 704 q 235 715 261 704 q 190 743 208 725 l 86 846 l 107 846 l 217 788 q 303 767 257 767 q 389 788 351 767 l 499 846 m 21 272 q 41 393 21 339 q 99 486 61 447 q 188 547 136 525 q 304 568 240 568 q 419 547 367 568 q 508 486 471 525 q 565 393 544 447 q 585 272 585 339 q 565 153 585 207 q 508 60 544 99 q 419 1 471 22 q 304 -21 367 -21 q 188 1 240 -21 q 99 60 136 22 q 41 153 61 99 q 21 272 21 207 m 132 272 q 144 160 132 211 q 178 74 156 110 q 233 19 201 39 q 304 0 265 0 q 428 74 382 0 q 474 272 474 149 q 462 385 474 335 q 428 472 450 436 q 374 528 406 508 q 304 547 343 547 q 233 528 265 547 q 178 472 201 508 q 144 385 156 436 q 132 272 132 335 z "},"Ő":{"ha":922,"x_min":21,"x_max":901,"o":"m 514 894 l 546 1060 l 657 1060 l 535 894 l 514 894 m 375 894 l 407 1060 l 518 1060 l 396 894 l 375 894 m 21 424 q 52 605 21 524 q 141 744 83 686 q 280 835 199 803 q 461 867 361 867 q 642 835 561 867 q 781 744 724 803 q 870 605 839 686 q 901 424 901 524 q 870 242 901 324 q 781 101 839 160 q 642 11 724 43 q 461 -21 561 -21 q 280 11 361 -21 q 141 101 199 43 q 52 242 83 160 q 21 424 21 324 m 132 424 q 156 250 132 328 q 222 117 179 172 q 326 31 265 61 q 461 0 386 0 q 597 31 536 0 q 701 117 658 61 q 767 250 743 172 q 790 424 790 328 q 767 596 790 518 q 701 729 743 674 q 597 815 658 785 q 461 846 536 846 q 326 815 386 846 q 222 729 265 785 q 156 596 179 674 q 132 424 132 518 z "},"ő":{"ha":606,"x_min":21,"x_max":585,"o":"m 340 681 l 372 846 l 483 846 l 361 681 l 340 681 m 201 681 l 233 846 l 344 846 l 222 681 l 201 681 m 21 272 q 41 393 21 339 q 99 486 61 447 q 188 547 136 525 q 304 568 240 568 q 419 547 367 568 q 508 486 471 525 q 565 393 544 447 q 585 272 585 339 q 565 153 585 207 q 508 60 544 99 q 419 1 471 22 q 304 -21 367 -21 q 188 1 240 -21 q 99 60 136 22 q 41 153 61 99 q 21 272 21 207 m 132 272 q 144 160 132 211 q 178 74 156 110 q 233 19 201 39 q 304 0 265 0 q 428 74 382 0 q 474 272 474 149 q 462 385 474 335 q 428 472 450 436 q 374 528 406 508 q 304 547 343 547 q 233 528 265 547 q 178 472 201 508 q 144 385 156 436 q 132 272 132 335 z "},"Œ":{"ha":1390,"x_min":21,"x_max":1363,"o":"m 21 424 q 52 605 21 524 q 141 744 83 686 q 280 835 199 803 q 461 867 361 867 q 649 832 565 867 q 790 735 732 797 l 790 750 q 775 799 790 775 q 740 839 760 824 l 740 846 l 1342 846 l 1363 776 l 1356 776 q 1319 810 1340 796 q 1267 825 1299 825 l 957 825 q 917 810 932 825 q 901 769 901 794 l 901 435 l 1139 435 q 1188 449 1171 435 q 1221 483 1206 464 l 1228 483 l 1228 365 l 1221 365 q 1188 399 1206 385 q 1139 414 1171 414 l 901 414 l 901 76 q 917 36 901 51 q 957 21 932 21 l 1267 21 q 1319 35 1299 21 q 1356 69 1340 50 l 1363 69 l 1342 0 l 740 0 l 740 7 q 775 47 760 22 q 790 96 790 71 l 790 111 q 649 14 732 49 q 461 -21 565 -21 q 280 11 361 -21 q 141 101 199 43 q 52 242 83 160 q 21 424 21 324 m 132 424 q 156 250 132 328 q 222 117 179 172 q 326 31 265 61 q 461 0 386 0 q 597 31 536 0 q 701 117 658 61 q 767 250 743 172 q 790 424 790 328 q 767 596 790 518 q 701 729 743 674 q 597 815 658 785 q 461 846 536 846 q 326 815 386 846 q 222 729 265 785 q 156 596 179 674 q 132 424 132 518 z "},"œ":{"ha":1017,"x_min":21,"x_max":996,"o":"m 21 272 q 41 393 21 339 q 99 486 61 447 q 188 547 136 525 q 304 568 240 568 q 437 539 379 568 q 531 457 494 510 q 634 541 572 514 q 760 568 696 568 q 931 510 867 568 q 996 339 996 451 l 590 339 q 586 307 588 324 q 585 272 585 290 q 602 153 585 204 q 649 67 619 101 q 715 17 678 33 q 792 0 753 0 q 856 10 824 0 q 915 42 888 21 q 963 96 942 64 q 996 169 983 128 l 996 58 q 906 1 964 22 q 785 -21 849 -21 q 645 6 714 -21 q 532 90 576 32 q 438 8 496 38 q 304 -21 379 -21 q 188 1 240 -21 q 99 60 136 22 q 41 153 61 99 q 21 272 21 207 m 132 272 q 144 160 132 211 q 178 74 156 110 q 233 19 201 39 q 304 0 265 0 q 428 74 382 0 q 474 272 474 149 q 462 385 474 335 q 428 472 450 436 q 374 528 406 508 q 304 547 343 547 q 233 528 265 547 q 178 472 201 508 q 144 385 156 436 q 132 272 132 335 m 968 400 q 903 504 953 467 q 792 542 853 542 q 728 531 760 542 q 671 499 697 521 q 624 442 644 476 q 593 360 604 407 l 932 360 q 962 371 951 360 q 968 400 972 382 z "},"Ŕ":{"ha":833,"x_min":28,"x_max":806,"o":"m 346 894 l 378 1060 l 489 1060 l 367 894 l 346 894 m 440 297 l 363 297 q 444 233 407 274 q 516 153 481 193 q 589 85 551 114 q 674 57 626 57 q 756 85 722 57 q 790 153 790 113 q 801 141 797 151 q 806 118 806 131 q 792 60 806 86 q 754 17 778 35 q 700 -11 731 -1 q 636 -21 669 -21 q 542 3 579 -21 q 478 62 504 26 q 432 138 451 97 q 392 215 413 179 q 346 274 372 250 q 279 297 319 297 l 189 297 l 189 96 q 204 47 189 71 q 239 7 219 22 l 239 0 l 28 0 l 28 7 q 63 47 47 22 q 78 96 78 71 l 78 750 q 63 799 78 775 q 28 839 47 824 l 28 846 l 451 846 q 583 824 526 846 q 678 764 640 801 q 735 678 717 726 q 754 578 754 631 q 735 476 754 526 q 676 385 715 425 q 578 322 638 346 q 440 297 519 297 m 244 825 q 204 810 219 825 q 189 769 189 794 l 189 318 l 415 318 q 515 340 472 318 q 586 399 558 363 q 628 483 614 436 q 642 578 642 529 q 628 669 642 625 q 587 749 614 714 q 519 804 560 783 q 424 825 478 825 l 244 825 z "},"ŕ":{"ha":503,"x_min":28,"x_max":482,"o":"m 181 681 l 213 846 l 324 846 l 201 681 l 181 681 m 28 7 q 63 47 47 22 q 78 96 78 71 l 78 451 q 63 501 78 476 q 28 540 47 525 l 28 547 l 189 568 l 189 485 q 267 549 228 531 q 350 568 306 568 q 403 562 378 568 q 457 547 429 556 l 482 439 q 411 506 442 482 q 336 531 381 531 q 256 508 290 531 q 189 450 221 486 l 189 96 q 204 47 189 71 q 239 7 219 22 l 239 0 l 28 0 l 28 7 z "},"Ŗ":{"ha":833,"x_min":28,"x_max":806,"o":"m 440 297 l 363 297 q 444 233 407 274 q 516 153 481 193 q 589 85 551 114 q 674 57 626 57 q 756 85 722 57 q 790 153 790 113 q 801 141 797 151 q 806 118 806 131 q 792 60 806 86 q 754 17 778 35 q 700 -11 731 -1 q 636 -21 669 -21 q 542 3 579 -21 q 478 62 504 26 q 432 138 451 97 q 392 215 413 179 q 346 274 372 250 q 279 297 319 297 l 189 297 l 189 96 q 204 47 189 71 q 239 7 219 22 l 239 0 l 28 0 l 28 7 q 63 47 47 22 q 78 96 78 71 l 78 750 q 63 799 78 775 q 28 839 47 824 l 28 846 l 451 846 q 583 824 526 846 q 678 764 640 801 q 735 678 717 726 q 754 578 754 631 q 735 476 754 526 q 676 385 715 425 q 578 322 638 346 q 440 297 519 297 m 244 825 q 204 810 219 825 q 189 769 189 794 l 189 318 l 415 318 q 515 340 472 318 q 586 399 558 363 q 628 483 614 436 q 642 578 642 529 q 628 669 642 625 q 587 749 614 714 q 519 804 560 783 q 424 825 478 825 l 244 825 m 342 -239 l 400 -85 l 493 -147 l 360 -250 l 342 -239 z "},"ŗ":{"ha":503,"x_min":28,"x_max":482,"o":"m 28 7 q 63 47 47 22 q 78 96 78 71 l 78 451 q 63 501 78 476 q 28 540 47 525 l 28 547 l 189 568 l 189 485 q 267 549 228 531 q 350 568 306 568 q 403 562 378 568 q 457 547 429 556 l 482 439 q 411 506 442 482 q 336 531 381 531 q 256 508 290 531 q 189 450 221 486 l 189 96 q 204 47 189 71 q 239 7 219 22 l 239 0 l 28 0 l 28 7 m 176 -239 l 235 -85 l 328 -147 l 194 -250 l 176 -239 z "},"Ř":{"ha":833,"x_min":28,"x_max":806,"o":"m 489 894 l 344 894 l 200 1114 l 221 1114 l 417 954 l 613 1114 l 633 1114 l 489 894 m 440 297 l 363 297 q 444 233 407 274 q 516 153 481 193 q 589 85 551 114 q 674 57 626 57 q 756 85 722 57 q 790 153 790 113 q 801 141 797 151 q 806 118 806 131 q 792 60 806 86 q 754 17 778 35 q 700 -11 731 -1 q 636 -21 669 -21 q 542 3 579 -21 q 478 62 504 26 q 432 138 451 97 q 392 215 413 179 q 346 274 372 250 q 279 297 319 297 l 189 297 l 189 96 q 204 47 189 71 q 239 7 219 22 l 239 0 l 28 0 l 28 7 q 63 47 47 22 q 78 96 78 71 l 78 750 q 63 799 78 775 q 28 839 47 824 l 28 846 l 451 846 q 583 824 526 846 q 678 764 640 801 q 735 678 717 726 q 754 578 754 631 q 735 476 754 526 q 676 385 715 425 q 578 322 638 346 q 440 297 519 297 m 244 825 q 204 810 219 825 q 189 769 189 794 l 189 318 l 415 318 q 515 340 472 318 q 586 399 558 363 q 628 483 614 436 q 642 578 642 529 q 628 669 642 625 q 587 749 614 714 q 519 804 560 783 q 424 825 478 825 l 244 825 z "},"ř":{"ha":503,"x_min":28,"x_max":482,"o":"m 324 626 l 179 626 l 35 846 l 56 846 l 251 686 l 447 846 l 468 846 l 324 626 m 28 7 q 63 47 47 22 q 78 96 78 71 l 78 451 q 63 501 78 476 q 28 540 47 525 l 28 547 l 189 568 l 189 485 q 267 549 228 531 q 350 568 306 568 q 403 562 378 568 q 457 547 429 556 l 482 439 q 411 506 442 482 q 336 531 381 531 q 256 508 290 531 q 189 450 221 486 l 189 96 q 204 47 189 71 q 239 7 219 22 l 239 0 l 28 0 l 28 7 z "},"Ś":{"ha":700,"x_min":21,"x_max":678,"o":"m 279 894 l 311 1060 l 422 1060 l 300 894 l 279 894 m 300 867 q 440 849 369 867 q 569 804 511 832 l 569 693 q 456 803 521 760 q 297 846 390 846 q 188 808 226 846 q 149 721 149 771 q 172 636 149 671 q 231 575 194 601 q 315 528 268 549 q 412 487 363 507 q 509 445 461 467 q 594 394 557 424 q 654 324 631 364 q 678 226 678 283 q 647 110 678 157 q 569 33 617 63 q 465 -8 521 4 q 357 -21 408 -21 q 177 6 267 -21 q 21 81 88 33 l 21 192 q 92 126 56 160 q 170 65 129 93 q 256 18 211 36 q 350 0 300 0 q 444 15 403 0 q 514 54 486 29 q 557 112 542 79 q 572 179 572 144 q 533 283 572 242 q 434 354 493 324 q 306 411 375 385 q 177 470 236 438 q 78 548 118 503 q 39 663 39 593 q 63 756 39 717 q 124 819 86 794 q 208 855 161 843 q 300 867 254 867 z "},"ś":{"ha":493,"x_min":21,"x_max":474,"o":"m 175 681 l 207 846 l 318 846 l 196 681 l 175 681 m 471 150 q 410 26 474 72 q 238 -21 346 -21 q 122 -3 179 -21 q 21 44 65 15 l 21 156 q 65 100 40 128 q 119 50 90 72 q 181 14 149 28 q 247 0 214 0 q 334 28 301 0 q 367 104 367 57 q 341 164 367 140 q 277 206 315 188 q 194 240 239 224 q 110 278 149 257 q 47 331 72 300 q 21 406 21 361 q 40 481 21 450 q 89 532 58 513 q 159 560 119 551 q 240 568 199 568 q 344 556 293 568 q 428 522 396 543 l 428 411 q 336 515 388 483 q 239 547 285 547 q 161 524 196 547 q 126 449 126 500 q 151 393 126 415 q 214 353 176 371 q 296 320 251 336 q 378 282 340 304 q 443 228 417 260 q 471 150 469 197 z "},"Ŝ":{"ha":700,"x_min":21,"x_max":678,"o":"m 278 1114 l 422 1114 l 567 894 l 546 894 l 350 1054 l 154 894 l 133 894 l 278 1114 m 300 867 q 440 849 369 867 q 569 804 511 832 l 569 693 q 456 803 521 760 q 297 846 390 846 q 188 808 226 846 q 149 721 149 771 q 172 636 149 671 q 231 575 194 601 q 315 528 268 549 q 412 487 363 507 q 509 445 461 467 q 594 394 557 424 q 654 324 631 364 q 678 226 678 283 q 647 110 678 157 q 569 33 617 63 q 465 -8 521 4 q 357 -21 408 -21 q 177 6 267 -21 q 21 81 88 33 l 21 192 q 92 126 56 160 q 170 65 129 93 q 256 18 211 36 q 350 0 300 0 q 444 15 403 0 q 514 54 486 29 q 557 112 542 79 q 572 179 572 144 q 533 283 572 242 q 434 354 493 324 q 306 411 375 385 q 177 470 236 438 q 78 548 118 503 q 39 663 39 593 q 63 756 39 717 q 124 819 86 794 q 208 855 161 843 q 300 867 254 867 z "},"ŝ":{"ha":493,"x_min":21,"x_max":474,"o":"m 175 846 l 319 846 l 464 626 l 443 626 l 247 786 l 51 626 l 31 626 l 175 846 m 471 150 q 410 26 474 72 q 238 -21 346 -21 q 122 -3 179 -21 q 21 44 65 15 l 21 156 q 65 100 40 128 q 119 50 90 72 q 181 14 149 28 q 247 0 214 0 q 334 28 301 0 q 367 104 367 57 q 341 164 367 140 q 277 206 315 188 q 194 240 239 224 q 110 278 149 257 q 47 331 72 300 q 21 406 21 361 q 40 481 21 450 q 89 532 58 513 q 159 560 119 551 q 240 568 199 568 q 344 556 293 568 q 428 522 396 543 l 428 411 q 336 515 388 483 q 239 547 285 547 q 161 524 196 547 q 126 449 126 500 q 151 393 126 415 q 214 353 176 371 q 296 320 251 336 q 378 282 340 304 q 443 228 417 260 q 471 150 469 197 z "},"Ş":{"ha":700,"x_min":21,"x_max":678,"o":"m 300 867 q 440 849 369 867 q 569 804 511 832 l 569 693 q 456 803 521 760 q 297 846 390 846 q 188 808 226 846 q 149 721 149 771 q 172 636 149 671 q 231 575 194 601 q 315 528 268 549 q 412 487 363 507 q 509 445 461 467 q 594 394 557 424 q 654 324 631 364 q 678 226 678 283 q 649 113 678 160 q 573 36 619 65 q 468 -7 526 7 q 353 -21 410 -21 l 326 -128 q 373 -137 350 -131 q 414 -156 396 -143 q 442 -186 432 -168 q 453 -228 453 -204 q 421 -292 453 -268 q 344 -317 389 -317 q 249 -286 293 -317 l 249 -240 q 295 -283 268 -269 q 347 -296 322 -296 q 390 -284 372 -296 q 408 -250 408 -272 q 376 -200 408 -218 q 292 -182 343 -182 l 332 -21 q 165 10 247 -17 q 21 81 83 36 l 21 192 q 92 126 56 160 q 170 65 129 93 q 256 18 211 36 q 350 0 300 0 q 444 15 403 0 q 514 54 486 29 q 557 112 542 79 q 572 179 572 144 q 533 283 572 242 q 434 354 493 324 q 306 411 375 385 q 177 470 236 438 q 78 548 118 503 q 39 663 39 593 q 63 756 39 717 q 124 819 86 794 q 208 855 161 843 q 300 867 254 867 z "},"ş":{"ha":493,"x_min":21,"x_max":474,"o":"m 471 150 q 413 28 474 75 q 249 -21 353 -18 l 222 -128 q 269 -137 246 -131 q 310 -156 292 -143 q 338 -186 328 -168 q 349 -228 349 -204 q 317 -292 349 -268 q 240 -317 285 -317 q 144 -286 189 -317 l 144 -240 q 191 -283 164 -269 q 243 -296 218 -296 q 286 -284 268 -296 q 304 -250 304 -272 q 272 -200 304 -218 q 188 -182 239 -182 l 228 -21 q 118 -1 172 -19 q 21 44 64 17 l 21 156 q 65 100 40 128 q 119 50 90 72 q 181 14 149 28 q 247 0 214 0 q 334 28 301 0 q 367 104 367 57 q 341 164 367 140 q 277 206 315 188 q 194 240 239 224 q 110 278 149 257 q 47 331 72 300 q 21 406 21 361 q 40 481 21 450 q 89 532 58 513 q 159 560 119 551 q 240 568 199 568 q 344 556 293 568 q 428 522 396 543 l 428 411 q 336 515 388 483 q 239 547 285 547 q 161 524 196 547 q 126 449 126 500 q 151 393 126 415 q 214 353 176 371 q 296 320 251 336 q 378 282 340 304 q 443 228 417 260 q 471 150 469 197 z "},"Š":{"ha":700,"x_min":21,"x_max":678,"o":"m 422 899 l 278 899 l 133 1118 l 154 1118 l 350 958 l 546 1118 l 567 1118 l 422 899 m 300 867 q 440 849 369 867 q 569 804 511 832 l 569 693 q 456 803 521 760 q 297 846 390 846 q 188 808 226 846 q 149 721 149 771 q 172 636 149 671 q 231 575 194 601 q 315 528 268 549 q 412 487 363 507 q 509 445 461 467 q 594 394 557 424 q 654 324 631 364 q 678 226 678 283 q 647 110 678 157 q 569 33 617 63 q 465 -8 521 4 q 357 -21 408 -21 q 177 6 267 -21 q 21 81 88 33 l 21 192 q 92 126 56 160 q 170 65 129 93 q 256 18 211 36 q 350 0 300 0 q 444 15 403 0 q 514 54 486 29 q 557 112 542 79 q 572 179 572 144 q 533 283 572 242 q 434 354 493 324 q 306 411 375 385 q 177 470 236 438 q 78 548 118 503 q 39 663 39 593 q 63 756 39 717 q 124 819 86 794 q 208 855 161 843 q 300 867 254 867 z "},"š":{"ha":493,"x_min":21,"x_max":474,"o":"m 319 626 l 175 626 l 31 846 l 51 846 l 247 686 l 443 846 l 464 846 l 319 626 m 471 150 q 410 26 474 72 q 238 -21 346 -21 q 122 -3 179 -21 q 21 44 65 15 l 21 156 q 65 100 40 128 q 119 50 90 72 q 181 14 149 28 q 247 0 214 0 q 334 28 301 0 q 367 104 367 57 q 341 164 367 140 q 277 206 315 188 q 194 240 239 224 q 110 278 149 257 q 47 331 72 300 q 21 406 21 361 q 40 481 21 450 q 89 532 58 513 q 159 560 119 551 q 240 568 199 568 q 344 556 293 568 q 428 522 396 543 l 428 411 q 336 515 388 483 q 239 547 285 547 q 161 524 196 547 q 126 449 126 500 q 151 393 126 415 q 214 353 176 371 q 296 320 251 336 q 378 282 340 304 q 443 228 417 260 q 471 150 469 197 z "},"Ţ":{"ha":883,"x_min":28,"x_max":856,"o":"m 835 846 l 856 776 l 849 776 q 813 810 833 796 q 760 825 792 825 l 497 825 l 497 96 q 513 47 497 71 q 547 7 528 22 l 547 0 l 336 0 l 336 7 q 371 47 356 22 q 386 96 386 71 l 386 825 l 124 825 q 71 810 92 825 q 35 776 50 796 l 28 776 l 49 846 l 835 846 m 367 -239 l 425 -85 l 518 -147 l 385 -250 l 367 -239 z "},"ţ":{"ha":390,"x_min":21,"x_max":363,"o":"m 181 721 l 201 721 l 201 547 l 340 547 l 340 526 l 201 526 l 201 74 q 217 28 201 46 q 257 10 233 10 q 313 38 283 10 q 363 136 342 65 l 363 25 q 306 -3 336 6 q 243 -11 275 -11 q 186 -2 214 -11 q 137 25 158 7 q 103 69 115 43 q 90 131 90 96 l 90 526 l 21 526 l 21 547 q 100 554 69 547 q 148 580 131 561 q 172 633 165 599 q 181 721 179 667 m 119 -239 l 178 -85 l 271 -147 l 138 -250 l 119 -239 z "},"Ť":{"ha":883,"x_min":28,"x_max":856,"o":"m 514 894 l 369 894 l 225 1114 l 246 1114 l 442 954 l 638 1114 l 658 1114 l 514 894 m 835 846 l 856 776 l 849 776 q 813 810 833 796 q 760 825 792 825 l 497 825 l 497 96 q 513 47 497 71 q 547 7 528 22 l 547 0 l 336 0 l 336 7 q 371 47 356 22 q 386 96 386 71 l 386 825 l 124 825 q 71 810 92 825 q 35 776 50 796 l 28 776 l 49 846 l 835 846 z "},"ť":{"ha":401,"x_min":28,"x_max":374,"o":"m 222 692 l 281 846 l 374 783 l 240 681 l 222 692 m 188 721 l 208 721 l 208 547 l 347 547 l 347 526 l 208 526 l 208 74 q 224 28 208 46 q 264 10 240 10 q 319 38 290 10 q 369 136 349 65 l 369 25 q 313 -3 343 6 q 250 -11 282 -11 q 193 -2 221 -11 q 144 25 165 7 q 110 69 122 43 q 97 131 97 96 l 97 526 l 28 526 l 28 547 q 107 554 76 547 q 155 580 138 561 q 179 633 172 599 q 188 721 186 667 z "},"Ŧ":{"ha":883,"x_min":28,"x_max":856,"o":"m 650 896 l 233 896 l 233 953 l 650 953 l 650 896 m 835 846 l 856 776 l 849 776 q 813 810 833 796 q 760 825 792 825 l 497 825 l 497 96 q 513 47 497 71 q 547 7 528 22 l 547 0 l 336 0 l 336 7 q 371 47 356 22 q 386 96 386 71 l 386 825 l 124 825 q 71 810 92 825 q 35 776 50 796 l 28 776 l 49 846 l 835 846 z "},"ŧ":{"ha":390,"x_min":21,"x_max":363,"o":"m 315 789 l 21 789 l 21 846 l 315 846 l 315 789 m 181 721 l 201 721 l 201 547 l 340 547 l 340 526 l 201 526 l 201 74 q 217 28 201 46 q 257 10 233 10 q 313 38 283 10 q 363 136 342 65 l 363 25 q 306 -3 336 6 q 243 -11 275 -11 q 186 -2 214 -11 q 137 25 158 7 q 103 69 115 43 q 90 131 90 96 l 90 526 l 21 526 l 21 547 q 100 554 69 547 q 148 580 131 561 q 172 633 165 599 q 181 721 179 667 z "},"Ũ":{"ha":804,"x_min":28,"x_max":776,"o":"m 139 894 q 206 1001 165 974 q 297 1028 247 1028 q 355 1022 325 1028 q 417 1011 385 1017 q 490 997 454 1004 q 556 989 525 989 q 610 1001 588 989 q 646 1047 633 1014 l 667 1047 q 599 938 640 965 q 507 910 557 910 q 453 915 481 910 q 397 925 425 919 q 319 940 357 932 q 250 947 282 947 q 194 936 218 947 q 160 894 171 925 l 139 894 m 726 281 q 704 166 726 218 q 641 77 682 114 q 542 20 600 40 q 415 0 485 0 q 277 20 339 0 q 171 77 215 40 q 102 166 126 114 q 78 282 78 218 l 78 750 q 63 799 78 775 q 28 839 47 824 l 28 846 l 239 846 l 239 839 q 204 799 219 824 q 189 750 189 775 l 189 281 q 208 177 189 224 q 260 98 226 131 q 343 47 294 65 q 450 29 392 29 q 553 47 507 29 q 633 98 600 65 q 685 177 667 131 q 706 281 704 224 l 706 750 q 690 799 706 775 q 656 839 675 824 l 656 846 l 776 846 l 776 839 q 742 799 757 824 q 726 750 726 775 l 726 281 z "},"ũ":{"ha":685,"x_min":28,"x_max":657,"o":"m 79 693 q 147 799 106 772 q 238 826 188 826 q 295 821 265 826 q 357 810 325 815 q 430 795 394 803 q 496 788 465 788 q 551 800 528 788 q 586 846 574 813 l 607 846 q 539 736 581 764 q 447 708 497 708 q 393 713 421 708 q 338 724 365 718 q 260 738 297 731 q 190 746 222 746 q 135 735 158 746 q 100 693 111 724 l 79 693 m 465 67 q 383 6 429 25 q 290 -12 338 -12 q 210 1 249 -12 q 142 38 171 14 q 95 95 113 63 q 78 167 78 128 l 78 451 q 63 501 78 476 q 28 540 47 525 l 28 547 l 189 568 l 189 154 q 200 97 189 122 q 230 53 211 71 q 274 26 249 36 q 325 17 299 17 q 399 38 361 17 q 465 100 438 60 l 465 451 q 452 499 465 475 q 415 540 439 524 l 415 547 l 576 568 l 576 96 q 595 35 576 51 q 635 18 614 18 q 647 19 642 18 q 657 24 651 21 l 657 17 q 615 -4 642 4 q 561 -12 589 -12 q 495 5 525 -12 q 465 63 465 22 l 465 67 z "},"Ū":{"ha":804,"x_min":28,"x_max":776,"o":"m 611 896 l 194 896 l 194 953 l 611 953 l 611 896 m 726 281 q 704 166 726 218 q 641 77 682 114 q 542 20 600 40 q 415 0 485 0 q 277 20 339 0 q 171 77 215 40 q 102 166 126 114 q 78 282 78 218 l 78 750 q 63 799 78 775 q 28 839 47 824 l 28 846 l 239 846 l 239 839 q 204 799 219 824 q 189 750 189 775 l 189 281 q 208 177 189 224 q 260 98 226 131 q 343 47 294 65 q 450 29 392 29 q 553 47 507 29 q 633 98 600 65 q 685 177 667 131 q 706 281 704 224 l 706 750 q 690 799 706 775 q 656 839 675 824 l 656 846 l 776 846 l 776 839 q 742 799 757 824 q 726 750 726 775 l 726 281 z "},"ū":{"ha":685,"x_min":28,"x_max":657,"o":"m 551 789 l 135 789 l 135 846 l 551 846 l 551 789 m 465 67 q 383 6 429 25 q 290 -12 338 -12 q 210 1 249 -12 q 142 38 171 14 q 95 95 113 63 q 78 167 78 128 l 78 451 q 63 501 78 476 q 28 540 47 525 l 28 547 l 189 568 l 189 154 q 200 97 189 122 q 230 53 211 71 q 274 26 249 36 q 325 17 299 17 q 399 38 361 17 q 465 100 438 60 l 465 451 q 452 499 465 475 q 415 540 439 524 l 415 547 l 576 568 l 576 96 q 595 35 576 51 q 635 18 614 18 q 647 19 642 18 q 657 24 651 21 l 657 17 q 615 -4 642 4 q 561 -12 589 -12 q 495 5 525 -12 q 465 63 465 22 l 465 67 z "},"Ŭ":{"ha":804,"x_min":28,"x_max":776,"o":"m 599 1036 l 619 1036 l 515 933 q 471 905 497 915 q 419 894 444 894 l 386 894 q 335 905 361 894 q 290 933 308 915 l 186 1036 l 207 1036 l 317 978 q 403 957 357 957 q 489 978 451 957 l 599 1036 m 726 281 q 704 166 726 218 q 641 77 682 114 q 542 20 600 40 q 415 0 485 0 q 277 20 339 0 q 171 77 215 40 q 102 166 126 114 q 78 282 78 218 l 78 750 q 63 799 78 775 q 28 839 47 824 l 28 846 l 239 846 l 239 839 q 204 799 219 824 q 189 750 189 775 l 189 281 q 208 177 189 224 q 260 98 226 131 q 343 47 294 65 q 450 29 392 29 q 553 47 507 29 q 633 98 600 65 q 685 177 667 131 q 706 281 704 224 l 706 750 q 690 799 706 775 q 656 839 675 824 l 656 846 l 776 846 l 776 839 q 742 799 757 824 q 726 750 726 775 l 726 281 z "},"ŭ":{"ha":685,"x_min":28,"x_max":657,"o":"m 539 846 l 560 846 l 456 743 q 411 715 438 725 q 360 704 385 704 l 326 704 q 275 715 301 704 q 231 743 249 725 l 126 846 l 147 846 l 257 788 q 343 767 297 767 q 429 788 392 767 l 539 846 m 465 67 q 383 6 429 25 q 290 -12 338 -12 q 210 1 249 -12 q 142 38 171 14 q 95 95 113 63 q 78 167 78 128 l 78 451 q 63 501 78 476 q 28 540 47 525 l 28 547 l 189 568 l 189 154 q 200 97 189 122 q 230 53 211 71 q 274 26 249 36 q 325 17 299 17 q 399 38 361 17 q 465 100 438 60 l 465 451 q 452 499 465 475 q 415 540 439 524 l 415 547 l 576 568 l 576 96 q 595 35 576 51 q 635 18 614 18 q 647 19 642 18 q 657 24 651 21 l 657 17 q 615 -4 642 4 q 561 -12 589 -12 q 495 5 525 -12 q 465 63 465 22 l 465 67 z "},"Ů":{"ha":804,"x_min":28,"x_max":776,"o":"m 565 1011 q 533 926 565 958 q 449 894 501 894 q 364 926 396 894 q 332 1011 332 958 q 364 1096 332 1064 q 449 1128 396 1128 q 533 1096 501 1128 q 565 1011 565 1064 m 504 1011 q 489 1051 504 1036 q 449 1067 474 1067 q 408 1051 424 1067 q 393 1011 393 1036 q 408 971 393 986 q 449 956 424 956 q 489 971 474 956 q 504 1011 504 986 m 726 281 q 704 166 726 218 q 641 77 682 114 q 542 20 600 40 q 415 0 485 0 q 277 20 339 0 q 171 77 215 40 q 102 166 126 114 q 78 282 78 218 l 78 750 q 63 799 78 775 q 28 839 47 824 l 28 846 l 239 846 l 239 839 q 204 799 219 824 q 189 750 189 775 l 189 281 q 208 177 189 224 q 260 98 226 131 q 343 47 294 65 q 450 29 392 29 q 553 47 507 29 q 633 98 600 65 q 685 177 667 131 q 706 281 704 224 l 706 750 q 690 799 706 775 q 656 839 675 824 l 656 846 l 776 846 l 776 839 q 742 799 757 824 q 726 750 726 775 l 726 281 z "},"ů":{"ha":685,"x_min":28,"x_max":657,"o":"m 460 729 q 428 644 460 676 q 343 613 396 613 q 258 644 290 613 q 226 729 226 676 q 258 814 226 782 q 343 846 290 846 q 428 814 396 846 q 460 729 460 782 m 399 729 q 383 769 399 754 q 343 785 368 785 q 303 769 318 785 q 288 729 288 754 q 303 689 288 704 q 343 674 318 674 q 383 689 368 674 q 399 729 399 704 m 465 67 q 383 6 429 25 q 290 -12 338 -12 q 210 1 249 -12 q 142 38 171 14 q 95 95 113 63 q 78 167 78 128 l 78 451 q 63 501 78 476 q 28 540 47 525 l 28 547 l 189 568 l 189 154 q 200 97 189 122 q 230 53 211 71 q 274 26 249 36 q 325 17 299 17 q 399 38 361 17 q 465 100 438 60 l 465 451 q 452 499 465 475 q 415 540 439 524 l 415 547 l 576 568 l 576 96 q 595 35 576 51 q 635 18 614 18 q 647 19 642 18 q 657 24 651 21 l 657 17 q 615 -4 642 4 q 561 -12 589 -12 q 495 5 525 -12 q 465 63 465 22 l 465 67 z "},"Ű":{"ha":804,"x_min":28,"x_max":776,"o":"m 475 894 l 507 1060 l 618 1060 l 496 894 l 475 894 m 336 894 l 368 1060 l 479 1060 l 357 894 l 336 894 m 726 281 q 704 166 726 218 q 641 77 682 114 q 542 20 600 40 q 415 0 485 0 q 277 20 339 0 q 171 77 215 40 q 102 166 126 114 q 78 282 78 218 l 78 750 q 63 799 78 775 q 28 839 47 824 l 28 846 l 239 846 l 239 839 q 204 799 219 824 q 189 750 189 775 l 189 281 q 208 177 189 224 q 260 98 226 131 q 343 47 294 65 q 450 29 392 29 q 553 47 507 29 q 633 98 600 65 q 685 177 667 131 q 706 281 704 224 l 706 750 q 690 799 706 775 q 656 839 675 824 l 656 846 l 776 846 l 776 839 q 742 799 757 824 q 726 750 726 775 l 726 281 z "},"ű":{"ha":685,"x_min":28,"x_max":657,"o":"m 354 681 l 386 846 l 497 846 l 375 681 l 354 681 m 215 681 l 247 846 l 358 846 l 236 681 l 215 681 m 465 67 q 383 6 429 25 q 290 -12 338 -12 q 210 1 249 -12 q 142 38 171 14 q 95 95 113 63 q 78 167 78 128 l 78 451 q 63 501 78 476 q 28 540 47 525 l 28 547 l 189 568 l 189 154 q 200 97 189 122 q 230 53 211 71 q 274 26 249 36 q 325 17 299 17 q 399 38 361 17 q 465 100 438 60 l 465 451 q 452 499 465 475 q 415 540 439 524 l 415 547 l 576 568 l 576 96 q 595 35 576 51 q 635 18 614 18 q 647 19 642 18 q 657 24 651 21 l 657 17 q 615 -4 642 4 q 561 -12 589 -12 q 495 5 525 -12 q 465 63 465 22 l 465 67 z "},"Ų":{"ha":804,"x_min":28,"x_max":776,"o":"m 726 281 q 693 143 726 203 q 599 47 660 83 q 601 -26 599 8 q 610 -85 603 -60 q 629 -126 617 -111 q 664 -142 642 -142 q 722 -108 699 -142 q 776 -11 744 -75 l 776 -122 q 723 -152 753 -142 q 661 -162 693 -162 q 600 -155 631 -162 q 545 -128 569 -147 q 506 -77 521 -110 q 488 6 490 -44 q 415 0 456 0 q 277 20 339 0 q 171 77 215 40 q 102 166 126 114 q 78 282 78 218 l 78 750 q 63 799 78 775 q 28 839 47 824 l 28 846 l 239 846 l 239 839 q 204 799 219 824 q 189 750 189 775 l 189 281 q 208 177 189 224 q 260 98 226 131 q 343 47 294 65 q 450 29 392 29 q 553 47 507 29 q 633 98 600 65 q 685 177 667 131 q 706 281 704 224 l 706 750 q 690 799 706 775 q 656 839 675 824 l 656 846 l 776 846 l 776 839 q 742 799 757 824 q 726 750 726 775 l 726 281 z "},"ų":{"ha":782,"x_min":28,"x_max":754,"o":"m 465 67 q 383 6 429 25 q 290 -12 338 -12 q 210 1 249 -12 q 142 38 171 14 q 95 95 113 63 q 78 167 78 128 l 78 451 q 63 501 78 476 q 28 540 47 525 l 28 547 l 189 568 l 189 154 q 200 97 189 122 q 230 53 211 71 q 274 26 249 36 q 325 17 299 17 q 399 38 361 17 q 465 100 438 60 l 465 451 q 452 499 465 475 q 415 540 439 524 l 415 547 l 576 568 l 576 0 q 587 -120 576 -79 q 642 -161 597 -161 q 699 -128 676 -161 q 754 -31 722 -94 l 754 -142 q 701 -172 731 -161 q 639 -182 671 -182 q 576 -174 607 -182 q 520 -145 544 -165 q 481 -90 496 -125 q 465 0 465 -54 l 465 67 z "},"Ŵ":{"ha":1418,"x_min":28,"x_max":1390,"o":"m 638 1114 l 782 1114 l 926 894 l 906 894 l 710 1054 l 514 894 l 493 894 l 638 1114 m 222 779 l 544 146 l 697 446 l 528 779 q 499 819 517 803 q 458 840 482 835 l 458 846 l 675 846 l 675 839 q 649 813 651 832 q 653 779 646 794 l 760 569 l 867 779 q 871 813 874 794 q 844 839 868 832 l 844 846 l 960 846 l 960 840 q 919 819 936 835 q 890 779 901 803 l 771 546 l 975 146 l 1297 779 q 1301 813 1304 794 q 1275 839 1299 832 l 1275 846 l 1390 846 l 1390 840 q 1349 819 1367 835 q 1321 779 1332 803 l 924 0 l 708 424 l 493 0 l 97 779 q 69 819 86 803 q 28 840 51 835 l 28 846 l 244 846 l 244 839 q 218 813 221 832 q 222 779 215 794 z "},"ŵ":{"ha":950,"x_min":21,"x_max":929,"o":"m 403 846 l 547 846 l 692 626 l 671 626 l 475 786 l 279 626 l 258 626 l 403 846 m 215 481 l 386 146 l 463 297 l 369 481 q 341 520 358 504 q 300 542 324 536 l 300 547 l 517 547 l 517 540 q 490 515 493 533 q 494 481 488 496 l 525 419 l 557 481 q 561 515 564 496 q 535 540 558 533 l 535 547 l 650 547 l 650 542 q 609 520 626 536 q 581 481 592 504 l 538 396 l 665 146 l 836 481 q 840 515 843 496 q 814 540 838 533 l 814 547 l 929 547 l 929 542 q 888 520 906 536 q 860 481 871 504 l 614 0 l 475 274 l 335 0 l 90 481 q 62 520 79 504 q 21 542 44 536 l 21 547 l 238 547 l 238 540 q 211 515 214 533 q 215 481 208 496 z "},"Ŷ":{"ha":913,"x_min":28,"x_max":885,"o":"m 443 1144 l 588 1144 l 732 925 l 711 925 l 515 1085 l 319 925 l 299 925 l 443 1144 m 513 396 l 513 96 q 528 47 513 71 q 563 7 543 22 l 563 0 l 351 0 l 351 7 q 386 47 371 22 q 401 96 401 71 l 401 396 l 110 779 q 73 817 94 800 q 28 840 51 835 l 28 846 l 239 846 l 239 839 q 235 810 232 826 q 250 779 239 793 l 517 426 l 782 779 q 797 810 793 793 q 793 839 800 826 l 793 846 l 885 846 l 885 840 q 840 817 861 835 q 803 779 818 800 l 513 396 z "},"ŷ":{"ha":638,"x_min":21,"x_max":617,"o":"m 247 846 l 392 846 l 536 626 l 515 626 l 319 786 l 124 626 l 103 626 l 247 846 m 242 547 l 242 540 q 217 513 218 532 q 225 479 217 493 l 371 183 l 524 481 q 528 515 531 496 q 501 540 525 533 l 501 547 l 617 547 l 617 542 q 576 520 593 536 q 547 481 558 504 l 236 -125 q 181 -187 214 -168 q 117 -207 149 -207 q 49 -184 78 -207 q 21 -121 21 -161 q 36 -81 21 -96 q 76 -65 51 -65 q 117 -81 101 -65 q 132 -121 132 -96 q 117 -161 132 -146 q 76 -176 101 -176 q 117 -186 92 -186 q 168 -172 142 -186 q 214 -121 194 -157 l 308 61 l 96 488 q 64 524 83 510 q 21 542 44 539 l 21 547 l 242 547 z "},"Ÿ":{"ha":913,"x_min":28,"x_max":885,"o":"m 521 954 q 536 994 521 979 q 576 1010 551 1010 q 617 994 601 1010 q 632 954 632 979 q 617 914 632 929 q 576 899 601 899 q 536 914 551 899 q 521 954 521 929 m 358 954 q 374 994 358 979 q 414 1010 389 1010 q 454 994 439 1010 q 469 954 469 979 q 454 914 469 929 q 414 899 439 899 q 374 914 389 899 q 358 954 358 929 m 513 396 l 513 96 q 528 47 513 71 q 563 7 543 22 l 563 0 l 351 0 l 351 7 q 386 47 371 22 q 401 96 401 71 l 401 396 l 110 779 q 73 817 94 800 q 28 840 51 835 l 28 846 l 239 846 l 239 839 q 235 810 232 826 q 250 779 239 793 l 517 426 l 782 779 q 797 810 793 793 q 793 839 800 826 l 793 846 l 885 846 l 885 840 q 840 817 861 835 q 803 779 818 800 l 513 396 z "},"Ź":{"ha":793,"x_min":28,"x_max":765,"o":"m 375 894 l 407 1060 l 518 1060 l 396 894 l 375 894 m 42 0 q 36 11 28 0 l 614 825 l 124 825 q 71 810 92 825 q 35 776 50 796 l 28 776 l 49 846 l 751 846 q 757 835 765 846 l 179 21 l 669 21 q 722 35 701 21 q 758 69 743 50 l 765 69 l 744 0 l 42 0 z "},"ź":{"ha":581,"x_min":28,"x_max":553,"o":"m 260 681 l 292 846 l 403 846 l 281 681 l 260 681 m 49 547 l 553 547 l 179 21 l 457 21 q 510 35 489 21 q 546 69 531 50 l 553 69 l 532 0 l 28 0 l 401 526 l 124 526 q 71 512 92 526 q 35 478 50 497 l 28 478 l 49 547 z "},"Ż":{"ha":793,"x_min":28,"x_max":765,"o":"m 342 950 q 357 990 342 975 q 397 1006 372 1006 q 438 990 422 1006 q 453 950 453 975 q 438 910 453 925 q 397 894 422 894 q 357 910 372 894 q 342 950 342 925 m 42 0 q 36 11 28 0 l 614 825 l 124 825 q 71 810 92 825 q 35 776 50 796 l 28 776 l 49 846 l 751 846 q 757 835 765 846 l 179 21 l 669 21 q 722 35 701 21 q 758 69 743 50 l 765 69 l 744 0 l 42 0 z "},"ż":{"ha":581,"x_min":28,"x_max":553,"o":"m 235 790 q 250 831 235 815 q 290 846 265 846 q 331 831 315 846 q 346 790 346 815 q 331 750 346 765 q 290 735 315 735 q 250 750 265 735 q 235 790 235 765 m 49 547 l 553 547 l 179 21 l 457 21 q 510 35 489 21 q 546 69 531 50 l 553 69 l 532 0 l 28 0 l 401 526 l 124 526 q 71 512 92 526 q 35 478 50 497 l 28 478 l 49 547 z "},"Ž":{"ha":793,"x_min":28,"x_max":765,"o":"m 474 899 l 329 899 l 185 1118 l 206 1118 l 401 958 l 597 1118 l 618 1118 l 474 899 m 42 0 q 36 11 28 0 l 614 825 l 124 825 q 71 810 92 825 q 35 776 50 796 l 28 776 l 49 846 l 751 846 q 757 835 765 846 l 179 21 l 669 21 q 722 35 701 21 q 758 69 743 50 l 765 69 l 744 0 l 42 0 z "},"ž":{"ha":581,"x_min":28,"x_max":553,"o":"m 363 626 l 218 626 l 74 846 l 94 846 l 290 686 l 486 846 l 507 846 l 363 626 m 49 547 l 553 547 l 179 21 l 457 21 q 510 35 489 21 q 546 69 531 50 l 553 69 l 532 0 l 28 0 l 401 526 l 124 526 q 71 512 92 526 q 35 478 50 497 l 28 478 l 49 547 z "},"ſ":{"ha":394,"x_min":28,"x_max":367,"o":"m 78 658 q 93 752 78 713 q 133 817 108 792 q 188 854 157 842 q 251 867 219 867 q 313 856 283 867 q 367 826 343 846 l 367 715 q 312 813 335 779 q 254 846 289 846 q 206 823 224 846 q 189 758 189 800 l 189 96 q 204 47 189 71 q 239 7 219 22 l 239 0 l 28 0 l 28 7 q 63 47 47 22 q 78 96 78 71 l 78 658 z "},"ƒ":{"ha":422,"x_min":-72,"x_max":394,"o":"m 217 14 q 201 -80 217 -40 q 162 -144 186 -119 q 106 -182 138 -169 q 43 -194 75 -194 q -19 -184 11 -194 q -72 -154 -49 -174 l -72 -43 q -17 -140 -40 -107 q 40 -174 6 -174 q 88 -151 71 -174 q 106 -86 106 -128 l 106 526 l 28 526 l 28 547 l 106 547 l 106 658 q 121 752 106 713 q 160 817 136 792 q 216 854 185 842 q 279 867 247 867 q 341 856 311 867 q 394 826 371 846 l 394 715 q 340 813 363 779 q 282 846 317 846 q 234 823 251 846 q 217 758 217 800 l 217 547 l 382 547 l 382 526 l 217 526 l 217 14 z "},"Ș":{"ha":700,"x_min":21,"x_max":678,"o":"m 300 867 q 440 849 369 867 q 569 804 511 832 l 569 693 q 456 803 521 760 q 297 846 390 846 q 188 808 226 846 q 149 721 149 771 q 172 636 149 671 q 231 575 194 601 q 315 528 268 549 q 412 487 363 507 q 509 445 461 467 q 594 394 557 424 q 654 324 631 364 q 678 226 678 283 q 647 110 678 157 q 569 33 617 63 q 465 -8 521 4 q 357 -21 408 -21 q 177 6 267 -21 q 21 81 88 33 l 21 192 q 92 126 56 160 q 170 65 129 93 q 256 18 211 36 q 350 0 300 0 q 444 15 403 0 q 514 54 486 29 q 557 112 542 79 q 572 179 572 144 q 533 283 572 242 q 434 354 493 324 q 306 411 375 385 q 177 470 236 438 q 78 548 118 503 q 39 663 39 593 q 63 756 39 717 q 124 819 86 794 q 208 855 161 843 q 300 867 254 867 m 275 -239 l 333 -85 l 426 -147 l 293 -250 l 275 -239 z "},"ș":{"ha":493,"x_min":21,"x_max":474,"o":"m 471 150 q 410 26 474 72 q 238 -21 346 -21 q 122 -3 179 -21 q 21 44 65 15 l 21 156 q 65 100 40 128 q 119 50 90 72 q 181 14 149 28 q 247 0 214 0 q 334 28 301 0 q 367 104 367 57 q 341 164 367 140 q 277 206 315 188 q 194 240 239 224 q 110 278 149 257 q 47 331 72 300 q 21 406 21 361 q 40 481 21 450 q 89 532 58 513 q 159 560 119 551 q 240 568 199 568 q 344 556 293 568 q 428 522 396 543 l 428 411 q 336 515 388 483 q 239 547 285 547 q 161 524 196 547 q 126 449 126 500 q 151 393 126 415 q 214 353 176 371 q 296 320 251 336 q 378 282 340 304 q 443 228 417 260 q 471 150 469 197 m 171 -239 l 229 -85 l 322 -147 l 189 -250 l 171 -239 z "},"ȷ":{"ha":217,"x_min":-101,"x_max":189,"o":"m 78 706 q 93 746 78 731 q 133 761 108 761 q 174 746 158 761 q 189 706 189 731 q 174 665 189 681 q 133 650 158 650 q 93 665 108 650 q 78 706 78 681 m 188 -90 q 172 -184 188 -144 q 133 -249 157 -224 q 77 -286 108 -274 q 14 -299 46 -299 q -48 -288 -18 -299 q -101 -258 -78 -278 l -101 -147 q -47 -244 -69 -211 q 11 -278 -24 -278 q 59 -255 42 -278 q 76 -190 76 -232 l 78 451 q 63 501 78 476 q 28 540 47 525 l 28 547 l 189 568 l 188 -90 z "},"ˆ":{"ha":489,"x_min":28,"x_max":461,"o":"m 172 846 l 317 846 l 461 626 l 440 626 l 244 786 l 49 626 l 28 626 l 172 846 z "},"ˇ":{"ha":489,"x_min":28,"x_max":461,"o":"m 317 626 l 172 626 l 28 846 l 49 846 l 244 686 l 440 846 l 461 846 l 317 626 z "},"ˉ":{"ha":364,"x_min":28,"x_max":336,"o":"m 28 846 l 336 846 l 336 790 l 28 790 l 28 846 z "},"˘":{"ha":489,"x_min":28,"x_max":461,"o":"m 440 846 l 461 846 l 357 743 q 313 715 339 725 q 261 704 286 704 l 228 704 q 176 715 203 704 q 132 743 150 725 l 28 846 l 49 846 l 158 788 q 244 767 199 767 q 331 788 293 767 l 440 846 z "},"˙":{"ha":167,"x_min":28,"x_max":139,"o":"m 28 790 q 43 831 28 815 q 83 846 58 846 q 124 831 108 846 q 139 790 139 815 q 124 750 139 765 q 83 735 108 735 q 43 750 58 735 q 28 790 28 765 z "},"˚":{"ha":289,"x_min":28,"x_max":261,"o":"m 261 729 q 229 644 261 676 q 144 613 197 613 q 60 644 92 613 q 28 729 28 676 q 60 814 28 782 q 144 846 92 846 q 229 814 197 846 q 261 729 261 782 m 200 729 q 185 769 200 754 q 144 785 169 785 q 104 769 119 785 q 89 729 89 754 q 104 689 89 704 q 144 674 119 674 q 185 689 169 674 q 200 729 200 704 z "},"˛":{"ha":344,"x_min":28,"x_max":317,"o":"m 139 0 q 149 -120 139 -79 q 204 -161 160 -161 q 262 -128 239 -161 q 317 -31 285 -94 l 317 -142 q 263 -172 293 -161 q 201 -182 233 -182 q 138 -174 169 -182 q 83 -145 107 -165 q 43 -90 58 -125 q 28 0 28 -54 l 139 0 z "},"˜":{"ha":583,"x_min":28,"x_max":556,"o":"m 28 693 q 95 799 54 772 q 186 826 136 826 q 244 821 214 826 q 306 810 274 815 q 378 795 343 803 q 444 788 414 788 q 499 800 476 788 q 535 846 522 813 l 556 846 q 488 736 529 764 q 396 708 446 708 q 342 713 369 708 q 286 724 314 718 q 208 738 246 731 q 139 746 171 746 q 83 735 107 746 q 49 693 60 724 l 28 693 z "},"˝":{"ha":338,"x_min":28,"x_max":310,"o":"m 167 681 l 199 846 l 310 846 l 188 681 l 167 681 m 28 681 l 60 846 l 171 846 l 49 681 l 28 681 z "},"̦":{"ha":207,"x_min":28,"x_max":179,"o":"m 28 -239 l 86 -85 l 179 -147 l 46 -250 l 28 -239 z "},"π":{"ha":1044,"x_min":28,"x_max":1017,"o":"m 497 825 l 497 96 q 513 47 497 71 q 547 7 528 22 l 547 0 l 336 0 l 336 7 q 371 47 356 22 q 386 96 386 71 l 386 825 l 124 825 q 71 810 92 825 q 35 776 50 796 l 28 776 l 49 846 l 900 846 l 900 839 q 865 799 881 824 q 850 750 850 775 l 850 151 q 882 56 850 88 q 957 24 914 24 q 1017 39 986 24 l 1017 18 q 974 6 997 11 q 926 0 951 0 q 860 11 893 0 q 799 49 826 22 q 756 123 772 76 q 739 240 739 169 l 739 756 q 720 806 739 788 q 669 825 701 825 l 497 825 z "},"Ẁ":{"ha":1418,"x_min":28,"x_max":1390,"o":"m 633 997 l 726 1060 l 785 906 l 767 894 l 633 997 m 222 779 l 544 146 l 697 446 l 528 779 q 499 819 517 803 q 458 840 482 835 l 458 846 l 675 846 l 675 839 q 649 813 651 832 q 653 779 646 794 l 760 569 l 867 779 q 871 813 874 794 q 844 839 868 832 l 844 846 l 960 846 l 960 840 q 919 819 936 835 q 890 779 901 803 l 771 546 l 975 146 l 1297 779 q 1301 813 1304 794 q 1275 839 1299 832 l 1275 846 l 1390 846 l 1390 840 q 1349 819 1367 835 q 1321 779 1332 803 l 924 0 l 708 424 l 493 0 l 97 779 q 69 819 86 803 q 28 840 51 835 l 28 846 l 244 846 l 244 839 q 218 813 221 832 q 222 779 215 794 z "},"ẁ":{"ha":950,"x_min":21,"x_max":929,"o":"m 400 783 l 493 846 l 551 692 l 533 681 l 400 783 m 215 481 l 386 146 l 463 297 l 369 481 q 341 520 358 504 q 300 542 324 536 l 300 547 l 517 547 l 517 540 q 490 515 493 533 q 494 481 488 496 l 525 419 l 557 481 q 561 515 564 496 q 535 540 558 533 l 535 547 l 650 547 l 650 542 q 609 520 626 536 q 581 481 592 504 l 538 396 l 665 146 l 836 481 q 840 515 843 496 q 814 540 838 533 l 814 547 l 929 547 l 929 542 q 888 520 906 536 q 860 481 871 504 l 614 0 l 475 274 l 335 0 l 90 481 q 62 520 79 504 q 21 542 44 536 l 21 547 l 238 547 l 238 540 q 211 515 214 533 q 215 481 208 496 z "},"Ẃ":{"ha":1418,"x_min":28,"x_max":1390,"o":"m 739 894 l 771 1060 l 882 1060 l 760 894 l 739 894 m 222 779 l 544 146 l 697 446 l 528 779 q 499 819 517 803 q 458 840 482 835 l 458 846 l 675 846 l 675 839 q 649 813 651 832 q 653 779 646 794 l 760 569 l 867 779 q 871 813 874 794 q 844 839 868 832 l 844 846 l 960 846 l 960 840 q 919 819 936 835 q 890 779 901 803 l 771 546 l 975 146 l 1297 779 q 1301 813 1304 794 q 1275 839 1299 832 l 1275 846 l 1390 846 l 1390 840 q 1349 819 1367 835 q 1321 779 1332 803 l 924 0 l 708 424 l 493 0 l 97 779 q 69 819 86 803 q 28 840 51 835 l 28 846 l 244 846 l 244 839 q 218 813 221 832 q 222 779 215 794 z "},"ẃ":{"ha":950,"x_min":21,"x_max":929,"o":"m 464 681 l 496 846 l 607 846 l 485 681 l 464 681 m 215 481 l 386 146 l 463 297 l 369 481 q 341 520 358 504 q 300 542 324 536 l 300 547 l 517 547 l 517 540 q 490 515 493 533 q 494 481 488 496 l 525 419 l 557 481 q 561 515 564 496 q 535 540 558 533 l 535 547 l 650 547 l 650 542 q 609 520 626 536 q 581 481 592 504 l 538 396 l 665 146 l 836 481 q 840 515 843 496 q 814 540 838 533 l 814 547 l 929 547 l 929 542 q 888 520 906 536 q 860 481 871 504 l 614 0 l 475 274 l 335 0 l 90 481 q 62 520 79 504 q 21 542 44 536 l 21 547 l 238 547 l 238 540 q 211 515 214 533 q 215 481 208 496 z "},"Ẅ":{"ha":1418,"x_min":28,"x_max":1390,"o":"m 779 950 q 794 990 779 975 q 835 1006 810 1006 q 875 990 860 1006 q 890 950 890 975 q 875 910 890 925 q 835 894 860 894 q 794 910 810 894 q 779 950 779 925 m 617 950 q 632 990 617 975 q 672 1006 647 1006 q 713 990 697 1006 q 728 950 728 975 q 713 910 728 925 q 672 894 697 894 q 632 910 647 894 q 617 950 617 925 m 222 779 l 544 146 l 697 446 l 528 779 q 499 819 517 803 q 458 840 482 835 l 458 846 l 675 846 l 675 839 q 649 813 651 832 q 653 779 646 794 l 760 569 l 867 779 q 871 813 874 794 q 844 839 868 832 l 844 846 l 960 846 l 960 840 q 919 819 936 835 q 890 779 901 803 l 771 546 l 975 146 l 1297 779 q 1301 813 1304 794 q 1275 839 1299 832 l 1275 846 l 1390 846 l 1390 840 q 1349 819 1367 835 q 1321 779 1332 803 l 924 0 l 708 424 l 493 0 l 97 779 q 69 819 86 803 q 28 840 51 835 l 28 846 l 244 846 l 244 839 q 218 813 221 832 q 222 779 215 794 z "},"ẅ":{"ha":950,"x_min":21,"x_max":929,"o":"m 501 790 q 517 831 501 815 q 557 846 532 846 q 597 831 582 846 q 613 790 613 815 q 597 750 613 765 q 557 735 582 735 q 517 750 532 735 q 501 790 501 765 m 339 790 q 354 831 339 815 q 394 846 369 846 q 435 831 419 846 q 450 790 450 815 q 435 750 450 765 q 394 735 419 735 q 354 750 369 735 q 339 790 339 765 m 215 481 l 386 146 l 463 297 l 369 481 q 341 520 358 504 q 300 542 324 536 l 300 547 l 517 547 l 517 540 q 490 515 493 533 q 494 481 488 496 l 525 419 l 557 481 q 561 515 564 496 q 535 540 558 533 l 535 547 l 650 547 l 650 542 q 609 520 626 536 q 581 481 592 504 l 538 396 l 665 146 l 836 481 q 840 515 843 496 q 814 540 838 533 l 814 547 l 929 547 l 929 542 q 888 520 906 536 q 860 481 871 504 l 614 0 l 475 274 l 335 0 l 90 481 q 62 520 79 504 q 21 542 44 536 l 21 547 l 238 547 l 238 540 q 211 515 214 533 q 215 481 208 496 z "},"–":{"ha":365,"x_min":28,"x_max":338,"o":"m 28 301 l 338 301 l 338 246 l 28 246 l 28 301 z "},"—":{"ha":796,"x_min":28,"x_max":768,"o":"m 28 301 l 768 301 l 768 246 l 28 246 l 28 301 z "},"‘":{"ha":207,"x_min":28,"x_max":179,"o":"m 28 692 l 86 846 l 179 783 l 46 681 l 28 692 z "},"’":{"ha":207,"x_min":28,"x_max":179,"o":"m 28 692 l 86 846 l 179 783 l 46 681 l 28 692 z "},"‚":{"ha":197,"x_min":28,"x_max":169,"o":"m 169 56 q 131 -42 169 -6 q 28 -78 92 -78 l 28 -57 q 76 -41 58 -57 q 94 3 94 -25 q 58 56 58 14 q 74 96 58 81 q 114 111 89 111 q 154 96 139 111 q 169 56 169 81 z "},"“":{"ha":338,"x_min":28,"x_max":310,"o":"m 171 846 l 139 681 l 28 681 l 150 846 l 171 846 m 310 846 l 278 681 l 167 681 l 289 846 l 310 846 z "},"”":{"ha":338,"x_min":28,"x_max":310,"o":"m 167 681 l 199 846 l 310 846 l 188 681 l 167 681 m 28 681 l 60 846 l 171 846 l 49 681 l 28 681 z "},"„":{"ha":353,"x_min":28,"x_max":325,"o":"m 169 56 q 131 -42 169 -6 q 28 -78 92 -78 l 28 -57 q 76 -41 58 -57 q 94 3 94 -25 q 58 56 58 14 q 74 96 58 81 q 114 111 89 111 q 154 96 139 111 q 169 56 169 81 m 325 56 q 286 -42 325 -6 q 183 -78 247 -78 l 183 -57 q 232 -41 214 -57 q 250 3 250 -25 q 214 56 214 14 q 229 96 214 81 q 269 111 244 111 q 310 96 294 111 q 325 56 325 81 z "},"†":{"ha":478,"x_min":28,"x_max":450,"o":"m 186 381 l 28 363 l 28 474 l 186 451 l 186 846 l 297 846 l 297 453 l 450 474 l 450 363 l 297 379 l 297 0 l 186 0 l 186 381 z "},"‡":{"ha":478,"x_min":28,"x_max":450,"o":"m 186 271 l 28 253 l 28 364 l 186 342 l 186 490 l 28 472 l 28 583 l 186 561 l 186 846 l 297 846 l 297 563 l 450 583 l 450 472 l 297 489 l 297 343 l 450 364 l 450 253 l 297 269 l 297 0 l 186 0 l 186 271 z "},"•":{"ha":289,"x_min":28,"x_max":261,"o":"m 261 272 q 229 188 261 219 q 144 156 197 156 q 60 188 92 156 q 28 272 28 219 q 60 357 28 325 q 144 389 92 389 q 229 357 197 389 q 261 272 261 325 z "},"…":{"ha":500,"x_min":28,"x_max":472,"o":"m 28 56 q 43 96 28 81 q 83 111 58 111 q 124 96 108 111 q 139 56 139 81 q 124 15 139 31 q 83 0 108 0 q 43 15 58 0 q 28 56 28 31 m 194 56 q 210 96 194 81 q 250 111 225 111 q 290 96 275 111 q 306 56 306 81 q 290 15 306 31 q 250 0 275 0 q 210 15 225 0 q 194 56 194 31 m 361 56 q 376 96 361 81 q 417 111 392 111 q 457 96 442 111 q 472 56 472 81 q 457 15 472 31 q 417 0 442 0 q 376 15 392 0 q 361 56 361 31 z "},"‰":{"ha":831,"x_min":28,"x_max":803,"o":"m 85 0 l 439 813 q 399 794 421 799 q 353 789 376 789 q 270 797 313 789 q 190 804 228 804 q 151 800 171 804 q 237 764 204 799 q 269 674 269 729 q 236 581 269 615 q 149 547 203 547 q 61 581 94 547 q 28 674 28 615 q 46 744 28 714 l 46 746 q 60 763 53 757 q 75 776 67 769 q 140 810 104 801 q 213 819 175 819 q 285 815 249 819 q 354 811 321 811 q 410 818 385 811 q 454 846 436 825 l 475 846 l 106 0 l 85 0 m 75 674 q 95 588 75 621 q 149 556 115 556 q 202 588 182 556 q 222 674 222 621 q 202 759 222 726 q 149 792 182 792 q 110 777 126 792 q 88 743 94 763 q 75 674 75 714 m 532 172 q 499 81 532 115 q 411 46 465 46 q 324 81 357 46 q 290 172 290 115 q 324 265 290 231 q 411 299 357 299 q 499 265 465 299 q 532 172 532 231 m 803 172 q 769 81 803 115 q 682 46 736 46 q 594 81 628 46 q 561 172 561 115 q 594 265 561 231 q 682 299 628 299 q 769 265 736 299 q 803 172 803 231 m 485 172 q 465 258 485 225 q 411 290 444 290 q 358 258 378 290 q 338 172 338 225 q 358 87 338 119 q 411 54 378 54 q 465 87 444 54 q 485 172 485 119 m 756 172 q 735 258 756 225 q 682 290 715 290 q 628 258 649 290 q 608 172 608 225 q 628 87 608 119 q 682 54 649 54 q 735 87 715 54 q 756 172 756 119 z "},"‹":{"ha":367,"x_min":28,"x_max":339,"o":"m 264 547 l 339 547 l 101 272 l 103 272 l 339 -3 l 265 -3 l 28 272 l 264 547 z "},"›":{"ha":367,"x_min":28,"x_max":339,"o":"m 101 -3 l 28 -3 l 264 272 l 265 272 l 28 547 l 103 547 l 339 272 l 101 -3 z "},"⁄":{"ha":546,"x_min":28,"x_max":518,"o":"m 397 846 l 518 846 l 149 0 l 28 0 l 397 846 z "},"₣":{"ha":707,"x_min":28,"x_max":679,"o":"m 244 825 q 204 810 219 825 q 189 769 189 794 l 189 435 l 456 435 q 505 449 488 435 q 538 483 522 464 l 544 483 l 544 365 l 538 365 q 505 399 522 385 q 456 414 488 414 l 189 414 l 189 301 l 338 301 l 338 246 l 189 246 l 189 96 q 204 47 189 71 q 239 7 219 22 l 239 0 l 28 0 l 28 7 q 63 47 47 22 q 78 96 78 71 l 78 246 l 28 246 l 28 301 l 78 301 l 78 750 q 63 799 78 775 q 28 839 47 824 l 28 846 l 658 846 l 679 776 l 672 776 q 636 810 657 796 q 583 825 615 825 l 244 825 z "},"₤":{"ha":629,"x_min":28,"x_max":601,"o":"m 167 111 l 506 111 q 558 126 538 111 q 594 160 579 140 l 601 160 l 551 0 l 56 0 l 56 111 q 75 177 69 143 q 83 246 81 211 l 28 246 l 28 301 l 85 301 q 82 350 83 325 q 78 400 81 375 l 28 400 l 28 456 l 72 456 q 62 554 67 504 q 56 657 57 604 q 75 744 54 706 q 129 810 96 782 q 206 852 163 838 q 294 867 250 867 q 413 835 357 865 q 497 736 468 804 l 497 625 q 415 794 469 742 q 306 846 361 846 q 252 833 278 846 q 206 795 226 819 q 174 736 186 771 q 163 657 163 701 q 167 553 163 604 q 176 456 171 503 l 338 456 l 338 400 l 183 400 q 192 301 189 350 l 338 301 l 338 246 l 192 246 q 185 178 190 211 q 167 111 179 144 z "},"₧":{"ha":1597,"x_min":28,"x_max":1571,"o":"m 440 297 l 189 297 l 189 96 q 204 47 189 71 q 239 7 219 22 l 239 0 l 28 0 l 28 7 q 63 47 47 22 q 78 96 78 71 l 78 750 q 63 799 78 775 q 28 839 47 824 l 28 846 l 451 846 q 583 824 526 846 q 678 764 640 801 q 734 678 715 726 q 754 578 753 631 q 736 476 756 526 q 677 385 717 425 q 578 322 638 346 q 440 297 519 297 m 244 825 q 204 810 219 825 q 189 769 189 794 l 189 318 l 415 318 q 515 340 472 318 q 586 399 558 363 q 628 483 614 436 q 642 578 642 529 q 628 669 642 625 q 587 749 614 714 q 519 804 560 783 q 424 825 478 825 l 244 825 m 936 721 l 957 721 l 957 547 l 1096 547 l 1096 526 l 957 526 l 957 58 q 970 17 957 33 q 1003 0 983 0 q 1059 35 1035 0 q 1118 156 1083 71 q 1163 100 1138 128 q 1217 50 1188 72 q 1278 14 1246 28 q 1344 0 1311 0 q 1431 28 1399 0 q 1464 104 1464 57 q 1438 164 1464 140 q 1374 206 1413 188 q 1291 240 1336 224 q 1208 278 1246 257 q 1144 331 1169 300 q 1118 406 1118 361 q 1137 481 1118 450 q 1186 532 1156 513 q 1256 560 1217 551 q 1338 568 1296 568 q 1442 556 1390 568 q 1525 522 1493 543 l 1525 411 q 1433 515 1485 483 q 1336 547 1382 547 q 1258 524 1293 547 q 1224 449 1224 500 q 1249 393 1224 415 q 1311 353 1274 371 q 1393 320 1349 336 q 1476 282 1438 304 q 1540 228 1514 260 q 1568 150 1567 197 q 1507 26 1571 72 q 1335 -21 1443 -21 q 1219 -3 1276 -21 q 1118 44 1163 15 q 1053 -3 1090 15 q 975 -21 1017 -21 q 884 13 922 -21 q 846 115 846 47 l 846 526 l 776 526 l 776 547 q 856 554 825 547 q 903 580 886 561 q 928 633 921 599 q 936 721 935 667 z "},"€":{"ha":908,"x_min":28,"x_max":881,"o":"m 593 -21 q 439 2 510 -21 q 313 67 368 25 q 221 168 258 108 q 167 301 183 228 l 28 301 l 28 357 l 157 357 q 153 404 154 381 q 153 451 153 428 l 28 451 l 28 507 l 158 507 q 207 656 171 589 q 299 769 243 722 q 430 841 356 815 q 593 867 504 867 q 680 858 638 867 q 760 838 722 850 q 828 810 797 825 q 881 783 860 796 l 881 672 q 840 733 868 701 q 773 789 811 764 q 688 830 735 814 q 593 846 642 846 q 472 822 526 846 q 375 753 417 797 q 306 647 333 710 q 269 507 279 585 l 422 507 l 422 451 l 264 451 q 264 404 264 428 q 267 357 264 381 l 422 357 l 422 301 l 275 301 q 385 81 303 163 q 593 0 468 0 q 688 16 642 0 q 773 57 735 32 q 840 113 811 82 q 881 174 868 144 l 881 63 q 828 37 860 51 q 760 10 797 22 q 680 -12 722 -3 q 593 -21 638 -21 z "},"ℓ":{"ha":440,"x_min":28,"x_max":413,"o":"m 404 40 q 351 10 381 21 q 289 0 321 0 q 226 13 257 0 q 170 50 194 25 q 131 115 146 75 q 115 208 115 154 l 115 417 q 74 413 96 414 q 28 411 51 411 l 28 432 q 74 433 51 432 q 115 438 96 435 l 115 867 l 276 846 l 307 846 q 385 806 358 846 q 413 700 413 767 q 402 630 413 667 q 369 559 392 593 q 312 496 347 525 q 226 446 276 467 l 226 108 q 244 44 226 67 q 292 21 261 21 q 349 54 326 21 q 404 151 372 88 l 404 40 m 276 825 q 239 794 251 814 q 226 750 226 775 l 226 467 q 303 513 272 486 q 354 572 335 540 q 383 636 374 603 q 392 700 392 669 q 368 794 392 764 q 307 825 344 825 l 276 825 z "},"™":{"ha":850,"x_min":28,"x_max":822,"o":"m 744 846 l 806 846 l 806 842 q 788 823 796 835 q 782 800 781 811 l 799 488 q 822 444 801 461 l 822 442 l 722 442 l 722 444 q 740 463 732 451 q 746 488 747 475 l 729 785 l 582 442 l 414 782 l 397 488 q 403 463 396 475 q 421 444 411 451 l 421 442 l 363 442 l 363 444 q 379 463 372 451 q 386 488 386 475 l 404 800 l 399 814 q 386 831 393 825 q 358 836 379 836 l 253 836 l 253 488 q 260 463 253 475 q 276 444 267 451 l 276 442 l 176 442 l 176 444 q 193 463 186 451 q 200 488 200 475 l 200 836 l 74 836 q 49 829 58 836 q 32 813 39 822 l 28 813 l 39 846 l 442 846 l 603 518 l 744 846 z "}}}
